<svg viewBox="0 0 107 33" fill="none" xmlns="http://www.w3.org/2000/svg">
<path d="M0.125993 20.9856V17.8155H10.363C11.1189 17.7838 11.7174 17.4668 12.1269 16.8962C12.5363 16.3256 12.7568 15.6599 12.7568 14.9308C12.7568 14.1383 12.4733 13.4726 11.9379 12.9337C11.3709 12.3948 10.7094 12.1095 9.92198 12.1095H5.95319C5.10273 12.0778 4.34677 11.8876 3.62231 11.5706C2.89785 11.2536 2.26788 10.8415 1.73241 10.2709C1.19694 9.73198 0.787459 9.09798 0.472475 8.36887C0.157492 7.63976 0 6.87896 0 6.05475C0 5.23054 0.157492 4.43804 0.472475 3.70893C0.787459 2.97983 1.22844 2.31412 1.76391 1.77521C2.29938 1.23631 2.92935 0.792507 3.68531 0.475504C4.40977 0.158501 5.16573 0 6.01619 0H13.1978V3.20173H6.01619C5.26023 3.26513 4.59876 3.55043 4.03179 4.08933C3.46482 4.62824 3.21283 5.29394 3.21283 6.08645C3.21283 6.87896 3.49632 7.54466 4.03179 8.11527C4.56726 8.68587 5.26023 8.93948 6.04768 8.93948H10.0795C10.8984 8.93948 11.6859 9.09798 12.4104 9.41498C13.1348 9.73198 13.7648 10.1758 14.3318 10.7464C14.8672 11.317 15.3082 11.951 15.6232 12.6801C15.9382 13.4092 16.0957 14.17 16.0957 14.9942C16.0957 15.8501 15.9382 16.6109 15.6547 17.3083C15.3712 18.0058 14.9302 18.6715 14.3318 19.2738C13.7018 19.8444 13.0718 20.2882 12.3789 20.6052C11.6859 20.8905 10.9299 21.049 10.0795 21.049H0.125993V20.9856Z" fill="#020203"/>
<path d="M31.2782 7.06889C32.8847 8.6856 33.7036 10.6193 33.7036 12.87C33.7036 15.1525 32.8847 17.0545 31.2782 18.6395C29.6718 20.2245 27.7189 21.017 25.4825 21.017C23.6871 21.017 22.1122 20.5098 20.7263 19.4637V25.138H17.293V12.8383C17.293 10.6193 18.1119 8.6856 19.7183 7.03719C21.3248 5.45217 23.2462 4.65967 25.4825 4.65967C27.7189 4.69137 29.6403 5.48387 31.2782 7.06889ZM28.8844 16.3254C29.7978 15.3744 30.2703 14.2331 30.2703 12.87C30.2703 11.5386 29.7978 10.3657 28.8844 9.41471C27.9709 8.432 26.837 7.9565 25.4825 7.9565C24.1281 7.9565 22.9942 8.432 22.1122 9.41471C21.1988 10.3974 20.7263 11.5386 20.7263 12.87C20.7263 14.2331 21.1988 15.3744 22.1122 16.3254C23.0257 17.2764 24.1596 17.7519 25.4825 17.7519C26.837 17.7519 27.9709 17.2764 28.8844 16.3254Z" fill="#020203"/>
<path d="M48.7909 7.06893C50.3973 8.68564 51.2163 10.6194 51.2163 12.8701C51.2163 15.1525 50.3973 17.0545 48.7909 18.6395C47.1845 20.2245 45.2316 21.017 42.9952 21.017C40.7904 21.017 38.8375 20.2245 37.1995 18.6395C35.5931 17.0862 34.8057 15.1525 34.8057 12.8701C34.8057 10.6194 35.5931 8.68564 37.1995 7.06893C38.8375 5.48391 40.7589 4.69141 42.9952 4.69141C45.2631 4.69141 47.1845 5.48391 48.7909 7.06893ZM46.4286 16.3254C47.342 15.3744 47.8145 14.2332 47.8145 12.8701C47.8145 11.5387 47.342 10.3658 46.4286 9.41475C45.4836 8.43204 44.3497 7.95653 43.0267 7.95653C41.6723 7.95653 40.5384 8.43204 39.6564 9.41475C38.743 10.3975 38.2705 11.5387 38.2705 12.8701C38.2705 14.2332 38.743 15.3744 39.6564 16.3254C40.5699 17.2764 41.7038 17.7519 43.0267 17.7519C44.3497 17.7519 45.4836 17.2764 46.4286 16.3254Z" fill="#020203"/>
<path d="M57.2321 9.35131C56.3186 10.334 55.8462 11.4752 55.8462 12.7749V20.9853H52.4443V12.7749C52.4443 10.5559 53.2633 8.6222 54.8697 7.00549C56.4446 5.45217 58.366 4.65967 60.6654 4.65967H62.8703V7.8931H60.6654C59.2795 7.8931 58.1455 8.3686 57.2321 9.35131Z" fill="#020203"/>
<path d="M74.4311 17.7523V21.0174H72.4467C70.2103 21.0174 68.2889 20.2249 66.651 18.6399C65.0445 17.0866 64.2256 15.1528 64.2256 12.8704V0.507324H67.6274V4.62836H72.8876V7.89349H67.6274V12.8704C67.6274 13.5361 67.7849 14.2018 68.0684 14.7724C68.3519 15.3748 68.7299 15.882 69.2023 16.3575C69.6748 16.833 70.1788 17.1817 70.6827 17.3719C71.1867 17.5938 71.7852 17.6889 72.4782 17.7523H74.4311Z" fill="#020203"/>
<path d="M83.534 11.2217C84.1955 11.2217 84.8569 11.3485 85.4239 11.6338C86.0224 11.8874 86.5263 12.2678 86.9358 12.7116C87.3768 13.1554 87.7233 13.6626 87.9753 14.2649C88.2273 14.8672 88.3532 15.4695 88.3532 16.1352C88.3532 16.8009 88.2273 17.4666 87.9753 18.0372C87.7233 18.6395 87.3768 19.1467 86.9358 19.5905C86.4948 20.0343 85.9909 20.383 85.4239 20.6366C84.8254 20.8902 84.1955 21.017 83.534 21.017H83.4395H75.8484V17.7836H83.6285C84.0695 17.7519 84.416 17.5617 84.7309 17.2447C85.0144 16.9277 85.1719 16.5473 85.1719 16.1035C85.1719 15.6597 85.0144 15.2476 84.6994 14.9306C84.3845 14.6136 84.0065 14.4551 83.534 14.4551H80.5102C79.8487 14.4234 79.2187 14.2966 78.6518 14.043C78.0533 13.7894 77.5493 13.4407 77.1398 12.9969C76.6989 12.5531 76.3839 12.0459 76.1319 11.4436C75.8799 10.8413 75.7539 10.239 75.7539 9.57325C75.7539 8.90754 75.8799 8.24184 76.1319 7.67123C76.3839 7.06893 76.7304 6.56172 77.1713 6.11792C77.6123 5.67411 78.1163 5.32541 78.6833 5.07181C79.2817 4.81821 79.9117 4.69141 80.5732 4.69141H86.8728V7.92483H80.6677H80.5732C80.1322 7.95653 79.7227 8.11504 79.4077 8.43204C79.0927 8.74904 78.9352 9.12944 78.9352 9.60495C78.9352 10.0488 79.0927 10.4609 79.4077 10.7779C79.7227 11.0949 80.1007 11.2534 80.5732 11.2534H80.6677H83.471H83.534V11.2217Z" fill="#020203"/>
<path d="M89.6758 20.9856V8.08361C89.6758 6.9741 89.8963 5.92799 90.3057 4.94528C90.7152 3.96257 91.3137 3.10666 92.0382 2.37756C92.7626 1.64845 93.6131 1.07785 94.5895 0.665744C95.566 0.25364 96.6054 0.0317383 97.6764 0.0317383H101.551V3.42367H97.6134C96.9834 3.42367 96.3849 3.55047 95.818 3.80407C95.251 4.05767 94.7785 4.37467 94.369 4.78678C93.9596 5.19888 93.6131 5.67439 93.3926 6.24499C93.1721 6.8156 93.0461 7.3862 93.0461 8.05191V9.25652H101.551V12.7118H93.0776V20.9539H89.6758V20.9856Z" fill="#3A9EBA"/>
<path d="M106.748 20.9855V9.28809H102.968V20.9855H106.748Z" fill="#3A9EBA"/>
<path d="M104.858 8.40059C106.041 8.40059 107 7.43549 107 6.24497C107 5.05446 106.041 4.08936 104.858 4.08936C103.675 4.08936 102.716 5.05446 102.716 6.24497C102.716 7.43549 103.675 8.40059 104.858 8.40059Z" fill="#3A9EBA"/>
<path d="M19.4664 28.6887H18.5844V30.1469C18.5844 30.242 18.5844 30.3371 18.5844 30.4005C18.5844 30.4956 18.6159 30.559 18.6474 30.6224C18.6789 30.6858 18.7104 30.7492 18.7734 30.7809C18.8364 30.8126 18.9309 30.8443 19.0254 30.8443C19.0884 30.8443 19.1829 30.8443 19.2459 30.8126C19.3089 30.8126 19.4034 30.7809 19.4664 30.7492V31.3198C19.4034 31.3515 19.3089 31.3832 19.1829 31.4149C19.0569 31.4149 18.9939 31.4466 18.9309 31.4466C18.7104 31.4466 18.5214 31.4149 18.3954 31.3515C18.2694 31.2881 18.1749 31.193 18.1119 31.0979C18.0489 31.0028 18.0174 30.876 18.0174 30.7492C18.0174 30.6224 17.9859 30.4956 17.9859 30.3688V28.6887H17.293V28.1498H17.9859V27.2622H18.5844V28.1498H19.4664V28.6887Z" fill="#020203"/>
<path d="M19.9072 29.7665C19.9072 29.5446 19.9387 29.3227 20.0332 29.1008C20.1277 28.9106 20.2537 28.7204 20.3797 28.5619C20.5372 28.4034 20.7262 28.2766 20.9152 28.2132C21.1357 28.1181 21.3561 28.0864 21.5766 28.0864C21.8286 28.0864 22.0491 28.1181 22.2381 28.2132C22.4586 28.3083 22.6161 28.4351 22.7736 28.5619C22.9311 28.7204 23.0571 28.8789 23.1201 29.1008C23.2146 29.291 23.2461 29.5129 23.2461 29.7665C23.2461 29.9884 23.2146 30.2103 23.1201 30.4322C23.0256 30.6224 22.8996 30.8126 22.7736 30.9712C22.6161 31.1297 22.4271 31.2565 22.2381 31.3199C22.0176 31.415 21.7971 31.4467 21.5766 31.4467C21.3247 31.4467 21.1042 31.415 20.9152 31.3199C20.6947 31.2248 20.5372 31.098 20.3797 30.9712C20.2222 30.8126 20.0962 30.6541 20.0332 30.4322C19.9702 30.242 19.9072 30.0201 19.9072 29.7665ZM20.5687 29.7665C20.5687 29.925 20.6002 30.0835 20.6317 30.2103C20.6947 30.3371 20.7577 30.4639 20.8522 30.559C20.9467 30.6541 21.0412 30.7175 21.1672 30.7809C21.2932 30.8443 21.4506 30.8761 21.6081 30.8761C21.7656 30.8761 21.9231 30.8443 22.0491 30.7809C22.1751 30.7175 22.3011 30.6541 22.3641 30.559C22.4586 30.4639 22.5216 30.3371 22.5846 30.2103C22.6476 30.0835 22.6476 29.925 22.6476 29.7665C22.6476 29.608 22.6161 29.4495 22.5846 29.3227C22.5216 29.1959 22.4586 29.0691 22.3641 28.974C22.2696 28.8789 22.1751 28.8155 22.0491 28.7521C21.9231 28.6887 21.7656 28.657 21.6081 28.657C21.4506 28.657 21.2932 28.6887 21.1672 28.7521C21.0412 28.8155 20.9152 28.8789 20.8522 28.974C20.7577 29.0691 20.6947 29.1959 20.6317 29.3227C20.6002 29.4495 20.5687 29.608 20.5687 29.7665Z" fill="#020203"/>
<path d="M23.8447 28.1816H24.4117V28.6888C24.4117 28.6571 24.4747 28.5937 24.5062 28.5303C24.5692 28.4669 24.6322 28.4035 24.7267 28.3401C24.8212 28.2767 24.9157 28.2133 25.0417 28.1816C25.1677 28.1499 25.2937 28.1182 25.4196 28.1182C25.6716 28.1182 25.8606 28.1816 26.0181 28.2767C26.1756 28.3718 26.3016 28.5303 26.4276 28.7205C26.5221 28.5303 26.6796 28.3718 26.8686 28.2767C27.0576 28.1816 27.2466 28.1182 27.4355 28.1182C27.6875 28.1182 27.8765 28.1499 28.034 28.245C28.1915 28.3401 28.3175 28.4352 28.412 28.562C28.5065 28.6888 28.5695 28.8473 28.601 29.0058C28.664 29.1643 28.664 29.3228 28.664 29.513V31.3833H28.0655V29.6081C28.0655 29.4813 28.0655 29.3545 28.034 29.2594C28.0025 29.1326 27.971 29.0375 27.9395 28.9741C27.8765 28.879 27.8135 28.8156 27.719 28.7522C27.6245 28.6888 27.4985 28.6888 27.3725 28.6888C27.0891 28.6888 26.8686 28.7839 26.7426 28.9741C26.6166 29.1643 26.5536 29.3862 26.5536 29.6715V31.3833H25.9551V29.7032C25.9551 29.5447 25.9551 29.4179 25.9236 29.2911C25.8921 29.1643 25.8921 29.0692 25.8291 28.9741C25.7976 28.879 25.7031 28.8156 25.6401 28.7522C25.5456 28.6888 25.4196 28.6888 25.2937 28.6888C25.1992 28.6888 25.0732 28.7205 24.9787 28.7522C24.8842 28.7839 24.7897 28.8473 24.7267 28.9424C24.6637 29.0375 24.6007 29.1326 24.5377 29.2594C24.5062 29.3862 24.4747 29.5447 24.4747 29.7349V31.3833H23.8762V28.1816H23.8447Z" fill="#020203"/>
<path d="M29.2305 29.7665C29.2305 29.5446 29.262 29.3227 29.3565 29.1008C29.451 28.9106 29.577 28.7204 29.7029 28.5619C29.8604 28.4034 30.0494 28.2766 30.2384 28.2132C30.4589 28.1181 30.6794 28.0864 30.8999 28.0864C31.1519 28.0864 31.3724 28.1181 31.5613 28.2132C31.7818 28.3083 31.9393 28.4351 32.0968 28.5619C32.2543 28.7204 32.3803 28.8789 32.4433 29.1008C32.5378 29.291 32.5693 29.5129 32.5693 29.7665C32.5693 29.9884 32.5378 30.2103 32.4433 30.4322C32.3488 30.6224 32.2228 30.8126 32.0968 30.9712C31.9393 31.1297 31.7503 31.2565 31.5613 31.3199C31.3409 31.415 31.1204 31.4467 30.8999 31.4467C30.6479 31.4467 30.4274 31.415 30.2384 31.3199C30.0179 31.2248 29.8604 31.098 29.7029 30.9712C29.5455 30.8126 29.4195 30.6541 29.3565 30.4322C29.2935 30.242 29.2305 30.0201 29.2305 29.7665ZM29.8919 29.7665C29.8919 29.925 29.9234 30.0835 29.9549 30.2103C30.0179 30.3371 30.0809 30.4639 30.1754 30.559C30.2699 30.6541 30.3644 30.7175 30.4904 30.7809C30.6164 30.8443 30.7739 30.8761 30.9314 30.8761C31.0889 30.8761 31.2464 30.8443 31.3724 30.7809C31.4983 30.7175 31.6243 30.6541 31.6873 30.559C31.7818 30.4639 31.8448 30.3371 31.9078 30.2103C31.9708 30.0835 31.9708 29.925 31.9708 29.7665C31.9708 29.608 31.9393 29.4495 31.9078 29.3227C31.8448 29.1959 31.7818 29.0691 31.6873 28.974C31.5928 28.8789 31.4983 28.8155 31.3724 28.7521C31.2464 28.6887 31.0889 28.657 30.9314 28.657C30.7739 28.657 30.6164 28.6887 30.4904 28.7521C30.3644 28.8155 30.2384 28.8789 30.1754 28.974C30.0809 29.0691 30.0179 29.1959 29.9549 29.3227C29.9234 29.4495 29.8919 29.608 29.8919 29.7665Z" fill="#020203"/>
<path d="M33.1995 28.1816H33.7979V28.6888C33.8294 28.5937 33.8924 28.5303 33.9554 28.4669C34.0184 28.4035 34.1129 28.3401 34.1759 28.2767C34.2704 28.2133 34.3649 28.1816 34.4594 28.1499C34.5539 28.1182 34.6484 28.1182 34.7429 28.1182C34.8374 28.1182 34.9319 28.1182 35.0264 28.1499L34.9949 28.8156C34.9319 28.8156 34.9004 28.7839 34.8374 28.7839C34.7744 28.7839 34.7429 28.7839 34.6799 28.7839C34.3964 28.7839 34.1444 28.879 33.9869 29.0375C33.8294 29.196 33.7664 29.4496 33.7664 29.83V31.3833H33.168V28.1816H33.1995Z" fill="#020203"/>
<path d="M35.5618 28.1816H36.1602V28.6888C36.1917 28.5937 36.2547 28.5303 36.3177 28.4669C36.3807 28.4035 36.4752 28.3401 36.5382 28.2767C36.6327 28.2133 36.7272 28.1816 36.8217 28.1499C36.9162 28.1182 37.0107 28.1182 37.1052 28.1182C37.1997 28.1182 37.2942 28.1182 37.3887 28.1499L37.3572 28.8156C37.2942 28.8156 37.2627 28.7839 37.1997 28.7839C37.1367 28.7839 37.1052 28.7839 37.0422 28.7839C36.7587 28.7839 36.5067 28.879 36.3492 29.0375C36.1917 29.196 36.1287 29.4496 36.1287 29.83V31.3833H35.5303V28.1816H35.5618Z" fill="#020203"/>
<path d="M37.6094 29.7665C37.6094 29.5446 37.6409 29.3227 37.7354 29.1008C37.8299 28.9106 37.9559 28.7204 38.0819 28.5619C38.2393 28.4034 38.4283 28.2766 38.6173 28.2132C38.8378 28.1181 39.0583 28.0864 39.2788 28.0864C39.5308 28.0864 39.7513 28.1181 39.9403 28.2132C40.1607 28.3083 40.3182 28.4351 40.4757 28.5619C40.6332 28.7204 40.7592 28.8789 40.8222 29.1008C40.9167 29.291 40.9482 29.5129 40.9482 29.7665C40.9482 29.9884 40.9167 30.2103 40.8222 30.4322C40.7277 30.6224 40.6017 30.8126 40.4757 30.9712C40.3182 31.1297 40.1292 31.2565 39.9403 31.3199C39.7198 31.415 39.4993 31.4467 39.2788 31.4467C39.0268 31.4467 38.8063 31.415 38.6173 31.3199C38.3968 31.2248 38.2393 31.098 38.0819 30.9712C37.9244 30.8126 37.7984 30.6541 37.7354 30.4322C37.6409 30.242 37.6094 30.0201 37.6094 29.7665ZM38.2393 29.7665C38.2393 29.925 38.2708 30.0835 38.3023 30.2103C38.3653 30.3371 38.4283 30.4639 38.5228 30.559C38.6173 30.6541 38.7118 30.7175 38.8378 30.7809C38.9638 30.8443 39.1213 30.8761 39.2788 30.8761C39.4363 30.8761 39.5938 30.8443 39.7198 30.7809C39.8458 30.7175 39.9718 30.6541 40.0347 30.559C40.1292 30.4639 40.1922 30.3371 40.2552 30.2103C40.3182 30.0835 40.3182 29.925 40.3182 29.7665C40.3182 29.608 40.2867 29.4495 40.2552 29.3227C40.1922 29.1959 40.1292 29.0691 40.0347 28.974C39.9403 28.8789 39.8458 28.8155 39.7198 28.7521C39.5938 28.6887 39.4363 28.657 39.2788 28.657C39.1213 28.657 38.9638 28.6887 38.8378 28.7521C38.7118 28.8155 38.5858 28.8789 38.5228 28.974C38.4283 29.0691 38.3653 29.1959 38.3023 29.3227C38.2708 29.4495 38.2393 29.608 38.2393 29.7665Z" fill="#020203"/>
<path d="M41.1055 28.1816H41.7984L42.5229 30.5909L43.2789 28.1816H43.9403L44.7593 30.5909L45.4522 28.1816H46.1137L45.0428 31.3834H44.4443L43.5938 28.9741L42.8379 31.3834H42.1764L41.1055 28.1816Z" fill="#020203"/>
<path d="M46.9329 28.2764H46.3975L46.8384 26.6597H47.4684L46.9329 28.2764Z" fill="#020203"/>
<path d="M48.9168 28.974C48.8538 28.8789 48.7593 28.8155 48.6648 28.7521C48.5703 28.6887 48.4443 28.657 48.2868 28.657C48.1293 28.657 48.0033 28.6887 47.9088 28.7521C47.8143 28.8155 47.7513 28.9106 47.7513 29.0057C47.7513 29.1008 47.7828 29.1642 47.8458 29.2276C47.9088 29.291 47.9718 29.3227 48.0663 29.3544C48.1608 29.3861 48.2238 29.4178 48.3183 29.4495C48.4128 29.4812 48.5073 29.4812 48.5703 29.4812C48.6963 29.5129 48.8223 29.5446 48.9483 29.608C49.0743 29.6397 49.1688 29.7031 49.2318 29.7982C49.3262 29.8616 49.3892 29.9567 49.4207 30.0518C49.4522 30.1469 49.4837 30.2737 49.4837 30.4322C49.4837 30.6224 49.4522 30.7809 49.3577 30.9078C49.2947 31.0346 49.1688 31.1297 49.0743 31.2248C48.9798 31.3199 48.8223 31.3516 48.6648 31.415C48.5073 31.4467 48.3498 31.4784 48.1923 31.4784C47.9403 31.4784 47.6883 31.4467 47.4993 31.3516C47.3103 31.2565 47.1214 31.1297 46.9639 30.9078L47.4363 30.5273C47.5308 30.6224 47.6568 30.7175 47.7513 30.7809C47.8773 30.8443 48.0348 30.9078 48.1923 30.9078C48.2553 30.9078 48.3498 30.9078 48.4128 30.8761C48.4758 30.8444 48.5703 30.8443 48.6333 30.8126C48.6963 30.7809 48.7278 30.7493 48.7908 30.6858C48.8538 30.6224 48.8538 30.559 48.8538 30.4956C48.8538 30.4005 48.8223 30.3371 48.7593 30.2737C48.6963 30.2103 48.6333 30.1786 48.5703 30.1469C48.5073 30.1152 48.4128 30.0835 48.3183 30.0518C48.2238 30.0201 48.1608 30.0201 48.0978 29.9884C47.9718 29.9567 47.8458 29.925 47.7198 29.8933C47.5938 29.8616 47.4993 29.7982 47.4048 29.7348C47.3103 29.6714 47.2474 29.5763 47.1844 29.4812C47.1214 29.3861 47.0899 29.2593 47.0899 29.1008C47.0899 28.9423 47.1214 28.7838 47.1844 28.657C47.2474 28.5302 47.3418 28.4351 47.4678 28.34C47.5938 28.2449 47.7198 28.2132 47.8458 28.1498C48.0033 28.1181 48.1293 28.0864 48.2868 28.0864C48.5073 28.0864 48.6963 28.1181 48.9168 28.2132C49.1373 28.3083 49.2633 28.4351 49.3892 28.6253L48.9168 28.974Z" fill="#020203"/>
<path d="M55.7202 31.3516C55.7202 31.6052 55.6887 31.8271 55.5942 32.0173C55.4997 32.2075 55.4052 32.3977 55.2477 32.5245C55.0902 32.683 54.9012 32.7781 54.6807 32.8732C54.4602 32.9683 54.2398 33 53.9563 33C53.6413 33 53.3578 32.9683 53.1058 32.8732C52.8538 32.7781 52.6018 32.6513 52.3814 32.4294L52.7908 31.9222C52.9483 32.0807 53.1058 32.2392 53.2948 32.3026C53.4838 32.3977 53.6728 32.4294 53.9248 32.4294C54.1453 32.4294 54.3342 32.3977 54.4917 32.3343C54.6492 32.2709 54.7437 32.1758 54.8382 32.0807C54.9327 31.9856 54.9957 31.8588 55.0272 31.732C55.0587 31.6052 55.0902 31.4784 55.0902 31.3199V30.8444H55.0587C54.9327 31.0346 54.7752 31.1931 54.5862 31.2882C54.3972 31.3833 54.1768 31.415 53.9563 31.415C53.7358 31.415 53.5153 31.3833 53.2948 31.2882C53.1058 31.1931 52.9168 31.098 52.7908 30.9395C52.6333 30.7809 52.5388 30.6224 52.4444 30.4322C52.3499 30.242 52.3184 30.0201 52.3184 29.7665C52.3184 29.5446 52.3499 29.3227 52.4444 29.1008C52.5073 28.9106 52.6333 28.7204 52.7593 28.5619C52.8853 28.4034 53.0743 28.2766 53.2633 28.2132C53.4523 28.1181 53.6728 28.0864 53.9248 28.0864C54.1453 28.0864 54.3342 28.1181 54.5547 28.2132C54.7437 28.3083 54.9327 28.4351 55.0272 28.6253V28.1498H55.6257V31.3516H55.7202ZM54.0823 28.657C53.9248 28.657 53.7673 28.6887 53.6413 28.7521C53.5153 28.8155 53.3893 28.8789 53.3263 28.974C53.2318 29.0691 53.1688 29.1959 53.1058 29.3227C53.0428 29.4495 53.0428 29.608 53.0428 29.7665C53.0428 30.0835 53.1373 30.3371 53.3263 30.559C53.5153 30.7492 53.7673 30.8444 54.0823 30.8444C54.3972 30.8444 54.6492 30.7492 54.8382 30.559C55.0272 30.3688 55.1217 30.1152 55.1217 29.7665C55.1217 29.608 55.0902 29.4495 55.0587 29.3227C54.9957 29.1959 54.9327 29.0691 54.8382 28.974C54.7437 28.8789 54.6492 28.8155 54.5232 28.7521C54.3658 28.6887 54.2398 28.657 54.0823 28.657Z" fill="#020203"/>
<path d="M56.3821 28.5619C56.5396 28.4034 56.7601 28.2766 56.9806 28.2132C57.2011 28.1498 57.4215 28.0864 57.642 28.0864C57.8625 28.0864 58.083 28.1181 58.2405 28.1815C58.398 28.2449 58.5555 28.3083 58.65 28.4034C58.7445 28.4985 58.839 28.6253 58.902 28.7521C58.965 28.8789 58.965 29.0057 58.965 29.1642V30.8126C58.965 30.9395 58.965 31.0346 58.965 31.1297C58.965 31.2248 58.965 31.3199 58.9965 31.415H58.461C58.461 31.2565 58.4295 31.098 58.4295 30.9395C58.3035 31.1614 58.146 31.2882 57.957 31.3833C57.768 31.4784 57.5475 31.5101 57.3271 31.5101C57.1696 31.5101 57.0436 31.4784 56.9176 31.4467C56.7916 31.415 56.6656 31.3516 56.5711 31.2565C56.4766 31.1614 56.3821 31.0663 56.3191 30.9395C56.2561 30.8126 56.2246 30.6859 56.2246 30.5273C56.2246 30.3054 56.2561 30.1469 56.3506 30.0201C56.4451 29.8933 56.5711 29.7665 56.7286 29.6714C56.8861 29.5763 57.0751 29.5129 57.2956 29.4812C57.516 29.4495 57.7365 29.4178 57.9885 29.4178H58.4295V29.291C58.4295 29.1959 58.398 29.1325 58.398 29.0374C58.3665 28.9423 58.335 28.8789 58.272 28.8155C58.209 28.7521 58.146 28.6887 58.0515 28.657C57.957 28.6253 57.831 28.5936 57.705 28.5936C57.579 28.5936 57.4845 28.5936 57.39 28.6253C57.2956 28.657 57.2326 28.6887 57.1381 28.7204C57.0751 28.7521 57.0121 28.7838 56.9491 28.8472C56.8861 28.8789 56.8231 28.9423 56.7916 28.974L56.3821 28.5619ZM58.083 29.8299C57.9255 29.8299 57.7995 29.8299 57.642 29.8616C57.4845 29.8933 57.3585 29.8933 57.2326 29.9567C57.1066 29.9884 57.0121 30.0518 56.9176 30.1469C56.8231 30.242 56.7916 30.3371 56.7916 30.4639C56.7916 30.6541 56.8546 30.781 56.9806 30.8761C57.1066 30.9712 57.2641 31.0029 57.4845 31.0029C57.642 31.0029 57.7995 30.9712 57.894 30.9078C58.02 30.8444 58.1145 30.781 58.1775 30.6859C58.2405 30.5907 58.3035 30.4956 58.335 30.3688C58.3665 30.2737 58.3665 30.1469 58.3665 30.0518V29.8616H58.083V29.8299Z" fill="#020203"/>
<path d="M59.5947 28.1816H60.1617V28.6888C60.1617 28.6571 60.2247 28.5937 60.2562 28.5303C60.3192 28.4669 60.3822 28.4035 60.4767 28.3401C60.5712 28.2767 60.6657 28.2133 60.7917 28.1816C60.9177 28.1499 61.0436 28.1182 61.1696 28.1182C61.4216 28.1182 61.6106 28.1816 61.7681 28.2767C61.9256 28.3718 62.0516 28.5303 62.1776 28.7205C62.2721 28.5303 62.4296 28.3718 62.6186 28.2767C62.8076 28.1816 62.9965 28.1182 63.1855 28.1182C63.4375 28.1182 63.6265 28.1499 63.784 28.245C63.9415 28.3401 64.0675 28.4352 64.162 28.562C64.2565 28.6888 64.3195 28.8473 64.351 29.0058C64.3825 29.1643 64.414 29.3545 64.414 29.5447V31.3833H63.8155V29.6081C63.8155 29.4813 63.8155 29.3545 63.784 29.2594C63.7525 29.1326 63.721 29.0375 63.6895 28.9741C63.6265 28.879 63.5635 28.8156 63.469 28.7522C63.3745 28.6888 63.2485 28.6888 63.1225 28.6888C62.8391 28.6888 62.6186 28.7839 62.4926 28.9741C62.3666 29.1643 62.3036 29.3862 62.3036 29.6715V31.3833H61.7051V29.7032C61.7051 29.5447 61.7051 29.4179 61.6736 29.2911C61.6421 29.1643 61.6421 29.0692 61.5791 28.9741C61.5476 28.879 61.4531 28.8156 61.3901 28.7522C61.2956 28.6888 61.1696 28.6888 61.0437 28.6888C60.9492 28.6888 60.8232 28.7205 60.7287 28.7522C60.6342 28.7839 60.5397 28.8473 60.4767 28.9424C60.4137 29.0375 60.3507 29.1326 60.2877 29.2594C60.2562 29.3862 60.2247 29.5447 60.2247 29.7349V31.3833H59.6262V28.1816H59.5947Z" fill="#020203"/>
<path d="M65.5799 29.9884C65.5799 30.1152 65.6114 30.242 65.6744 30.3688C65.7374 30.4956 65.8004 30.5907 65.9264 30.6541C66.0524 30.7175 66.1469 30.8127 66.2729 30.8444C66.3989 30.8761 66.5249 30.9078 66.6824 30.9078C66.8713 30.9078 67.0288 30.8761 67.1863 30.7809C67.3123 30.6858 67.4383 30.5907 67.5643 30.4322L68.0368 30.7809C67.6903 31.2248 67.2178 31.4467 66.6194 31.4467C66.3674 31.4467 66.1469 31.415 65.9264 31.3199C65.7374 31.2248 65.5484 31.1297 65.4224 30.9712C65.2964 30.8126 65.1704 30.6541 65.1074 30.4322C65.0444 30.242 64.9814 30.0201 64.9814 29.7665C64.9814 29.5129 65.0129 29.291 65.1074 29.1008C65.2019 28.9106 65.2964 28.7204 65.4539 28.5619C65.6114 28.4034 65.7689 28.2766 65.9894 28.2132C66.1784 28.1181 66.3989 28.0864 66.6509 28.0864C66.9343 28.0864 67.1863 28.1498 67.3753 28.2449C67.5643 28.34 67.7218 28.4668 67.8478 28.6253C67.9738 28.7838 68.0683 28.974 68.1313 29.1642C68.1943 29.3544 68.2258 29.5763 68.2258 29.7665V29.9884H65.5799ZM67.5013 29.5129C67.5013 29.3861 67.4698 29.2593 67.4383 29.1325C67.4068 29.0057 67.3438 28.9106 67.2808 28.8472C67.2178 28.7521 67.1233 28.6887 66.9973 28.657C66.8713 28.6253 66.7453 28.5936 66.5879 28.5936C66.4304 28.5936 66.3044 28.6253 66.1784 28.6887C66.0524 28.7521 65.9579 28.8155 65.8634 28.9106C65.7689 29.0057 65.7059 29.1008 65.6744 29.2276C65.6429 29.3227 65.6114 29.4495 65.6114 29.5446H67.5013V29.5129Z" fill="#020203"/>
<path d="M72.4459 28.6887H71.5639V30.1469C71.5639 30.242 71.5639 30.3371 71.5639 30.4005C71.5639 30.4956 71.5954 30.559 71.6269 30.6224C71.6584 30.6858 71.6899 30.7492 71.7529 30.7809C71.8159 30.8126 71.9104 30.8443 72.0049 30.8443C72.0679 30.8443 72.1624 30.8443 72.2254 30.8126C72.2884 30.8126 72.3829 30.7809 72.4459 30.7492V31.3198C72.3829 31.3515 72.2884 31.3832 72.1624 31.4149C72.0364 31.4149 71.9734 31.4466 71.9104 31.4466C71.6899 31.4466 71.5009 31.4149 71.3749 31.3515C71.2489 31.2881 71.1544 31.193 71.0914 31.0979C71.0284 31.0028 70.9969 30.876 70.9969 30.7492C70.9969 30.6224 70.9654 30.4956 70.9654 30.3688V28.6887H70.2725V28.1498H70.9654V27.2622H71.5639V28.1498H72.4459V28.6887Z" fill="#020203"/>
<path d="M72.8877 29.7665C72.8877 29.5446 72.9192 29.3227 73.0137 29.1008C73.1082 28.9106 73.2342 28.7204 73.3602 28.5619C73.5177 28.4034 73.7067 28.2766 73.8956 28.2132C74.1161 28.1181 74.3366 28.0864 74.5571 28.0864C74.8091 28.0864 75.0296 28.1181 75.2186 28.2132C75.4391 28.3083 75.5966 28.4351 75.7541 28.5619C75.9115 28.7204 76.0375 28.8789 76.1005 29.1008C76.195 29.291 76.2265 29.5129 76.2265 29.7665C76.2265 29.9884 76.195 30.2103 76.1005 30.4322C76.006 30.6224 75.88 30.8126 75.7541 30.9712C75.5966 31.1297 75.4076 31.2565 75.2186 31.3199C74.9981 31.415 74.7776 31.4467 74.5571 31.4467C74.3051 31.4467 74.0846 31.415 73.8956 31.3199C73.6752 31.2248 73.5177 31.098 73.3602 30.9712C73.2027 30.8126 73.0767 30.6541 73.0137 30.4322C72.9192 30.242 72.8877 30.0201 72.8877 29.7665ZM73.5177 29.7665C73.5177 29.925 73.5492 30.0835 73.5807 30.2103C73.6437 30.3371 73.7067 30.4639 73.8012 30.559C73.8956 30.6541 73.9901 30.7175 74.1161 30.7809C74.2421 30.8443 74.3996 30.8761 74.5571 30.8761C74.7146 30.8761 74.8721 30.8443 74.9981 30.7809C75.1241 30.7175 75.2501 30.6541 75.3131 30.559C75.4076 30.4639 75.4706 30.3371 75.5336 30.2103C75.5966 30.0835 75.5966 29.925 75.5966 29.7665C75.5966 29.608 75.5651 29.4495 75.5336 29.3227C75.4706 29.1959 75.4076 29.0691 75.3131 28.974C75.2186 28.8789 75.1241 28.8155 74.9981 28.7521C74.8721 28.6887 74.7146 28.657 74.5571 28.657C74.3996 28.657 74.2421 28.6887 74.1161 28.7521C73.9901 28.8155 73.8641 28.8789 73.8012 28.974C73.7067 29.0691 73.6437 29.1959 73.5807 29.3227C73.5492 29.4495 73.5177 29.608 73.5177 29.7665Z" fill="#020203"/>
<path d="M79.9743 31.3835H79.3759V30.908C79.2499 31.0665 79.0924 31.225 78.9034 31.3201C78.7144 31.4152 78.4939 31.4469 78.2734 31.4469C78.0214 31.4469 77.8009 31.4152 77.6119 31.3201C77.423 31.225 77.234 31.1299 77.108 30.9714C76.982 30.8129 76.856 30.6544 76.793 30.4325C76.73 30.2423 76.667 30.0204 76.667 29.7668C76.667 29.5132 76.6985 29.2913 76.793 29.1011C76.856 28.9109 76.982 28.7207 77.108 28.5622C77.234 28.4037 77.423 28.2769 77.6119 28.2135C77.8009 28.1184 78.0214 28.0867 78.2734 28.0867C78.4939 28.0867 78.7144 28.1501 78.9349 28.2452C79.1239 28.3403 79.2814 28.4671 79.4074 28.6256V26.248H80.0058V31.3835H79.9743ZM78.3364 30.908C78.4939 30.908 78.6514 30.8763 78.7774 30.8129C78.9034 30.7495 79.0294 30.6861 79.0924 30.591C79.1869 30.4959 79.2499 30.3691 79.3129 30.2423C79.3759 30.1155 79.3759 29.957 79.3759 29.7985C79.3759 29.64 79.3444 29.4815 79.3129 29.3547C79.2499 29.2279 79.1869 29.1011 79.0924 29.006C78.9979 28.9109 78.9034 28.8475 78.7774 28.7841C78.6514 28.7207 78.4939 28.689 78.3364 28.689C78.1789 28.689 78.0214 28.7207 77.8954 28.7841C77.7694 28.8475 77.6434 28.9109 77.5804 29.006C77.486 29.1011 77.423 29.2279 77.36 29.3547C77.297 29.4815 77.297 29.64 77.297 29.7985C77.297 29.957 77.3285 30.1155 77.36 30.2423C77.423 30.3691 77.486 30.4959 77.5804 30.591C77.6749 30.6861 77.7694 30.7495 77.8954 30.8129C78.0214 30.8763 78.1474 30.908 78.3364 30.908Z" fill="#020203"/>
<path d="M80.7307 28.5619C80.8882 28.4034 81.1087 28.2766 81.3292 28.2132C81.5497 28.1498 81.7702 28.0864 81.9907 28.0864C82.2111 28.0864 82.4316 28.1181 82.5891 28.1815C82.7466 28.2449 82.9041 28.3083 82.9986 28.4034C83.0931 28.4985 83.1876 28.6253 83.2506 28.7521C83.3136 28.8789 83.3136 29.0057 83.3136 29.1642V30.8126C83.3136 30.9395 83.3136 31.0346 83.3136 31.1297C83.3136 31.2248 83.3136 31.3199 83.3451 31.415H82.8096C82.8096 31.2565 82.7781 31.098 82.7781 30.9395C82.6521 31.1614 82.4946 31.2882 82.3056 31.3833C82.1167 31.4784 81.8962 31.5101 81.6757 31.5101C81.5182 31.5101 81.3922 31.4784 81.2662 31.4467C81.1402 31.415 81.0142 31.3516 80.9197 31.2565C80.8252 31.1614 80.7307 31.0663 80.6677 30.9395C80.6047 30.8126 80.5732 30.6859 80.5732 30.5273C80.5732 30.3054 80.6047 30.1469 80.6992 30.0201C80.7937 29.8933 80.9197 29.7665 81.0772 29.6714C81.2347 29.5763 81.4237 29.5129 81.6442 29.4812C81.8647 29.4495 82.0852 29.4178 82.3371 29.4178H82.7781V29.291C82.7781 29.1959 82.7466 29.1325 82.7466 29.0374C82.7151 28.9423 82.6836 28.8789 82.6206 28.8155C82.5576 28.7521 82.4946 28.6887 82.4001 28.657C82.3056 28.6253 82.1797 28.5936 82.0537 28.5936C81.9277 28.5936 81.8332 28.5936 81.7387 28.6253C81.6442 28.657 81.5812 28.6887 81.4867 28.7204C81.4237 28.7521 81.3607 28.7838 81.2977 28.8472C81.2347 28.8789 81.1717 28.9423 81.1402 28.974L80.7307 28.5619ZM82.4316 29.8299C82.2742 29.8299 82.1482 29.8299 81.9907 29.8616C81.8332 29.8933 81.7072 29.8933 81.5812 29.9567C81.4552 29.9884 81.3607 30.0518 81.2662 30.1469C81.1717 30.242 81.1402 30.3371 81.1402 30.4639C81.1402 30.6541 81.2032 30.781 81.3292 30.8761C81.4552 30.9712 81.6127 31.0029 81.8332 31.0029C81.9907 31.0029 82.1482 30.9712 82.2427 30.9078C82.3686 30.8444 82.4631 30.781 82.5261 30.6859C82.5891 30.5907 82.6521 30.4956 82.6836 30.3688C82.7151 30.2737 82.7151 30.1469 82.7151 30.0518V29.8616H82.4316V29.8299Z" fill="#020203"/>
<path d="M83.6914 28.1816H84.3844L85.3293 30.686L86.2428 28.1816H86.9042L85.3923 32.0808C85.3293 32.2076 85.2978 32.3344 85.2348 32.4612C85.1718 32.588 85.1088 32.6831 85.0143 32.7465C84.9198 32.8099 84.8253 32.905 84.7308 32.9367C84.6049 32.9684 84.4789 33.0001 84.3214 33.0001C84.2269 33.0001 84.1324 33.0001 84.0379 32.9684C83.9434 32.9684 83.8489 32.9367 83.7859 32.905L83.8489 32.3344C83.9749 32.3978 84.1009 32.3978 84.1954 32.3978C84.2899 32.3978 84.3529 32.3978 84.4474 32.3661C84.5104 32.3344 84.5734 32.3027 84.6049 32.271C84.6364 32.2393 84.6993 32.1759 84.7308 32.1125C84.7623 32.0491 84.7938 31.9857 84.8253 31.8906L85.0143 31.3834L83.6914 28.1816Z" fill="#020203"/>
</svg>
