<svg width="20" height="20" viewBox="0 0 20 20" fill="none" xmlns="http://www.w3.org/2000/svg">
<path d="M7.70811 6.66656H1.45825C0.654129 6.66656 0 6.01244 0 5.20816V1.45825C0 0.654129 0.654129 0 1.45825 0H7.70811C8.51238 0 9.16651 0.654129 9.16651 1.45825V5.20816C9.16651 6.01244 8.51238 6.66656 7.70811 6.66656ZM1.45825 1.24997C1.34335 1.24997 1.24997 1.34335 1.24997 1.45825V5.20816C1.24997 5.32321 1.34335 5.41659 1.45825 5.41659H7.70811C7.82315 5.41659 7.91654 5.32321 7.91654 5.20816V1.45825C7.91654 1.34335 7.82315 1.24997 7.70811 1.24997H1.45825Z" fill="white"/>
<path d="M7.70811 19.9997H1.45825C0.654129 19.9997 0 19.3456 0 18.5415V9.79165C0 8.98738 0.654129 8.33325 1.45825 8.33325H7.70811C8.51238 8.33325 9.16651 8.98738 9.16651 9.79165V18.5415C9.16651 19.3456 8.51238 19.9997 7.70811 19.9997ZM1.45825 9.58322C1.34335 9.58322 1.24997 9.6766 1.24997 9.79165V18.5415C1.24997 18.6563 1.34335 18.7497 1.45825 18.7497H7.70811C7.82315 18.7497 7.91654 18.6563 7.91654 18.5415V9.79165C7.91654 9.6766 7.82315 9.58322 7.70811 9.58322H1.45825Z" fill="white"/>
<path d="M18.5414 19.9996H12.2915C11.4873 19.9996 10.8331 19.3454 10.8331 18.5413V14.7914C10.8331 13.9871 11.4873 13.333 12.2915 13.333H18.5414C19.3455 13.333 19.9996 13.9871 19.9996 14.7914V18.5413C19.9996 19.3454 19.3455 19.9996 18.5414 19.9996V19.9996ZM12.2915 14.583C12.1765 14.583 12.0831 14.6764 12.0831 14.7914V18.5413C12.0831 18.6562 12.1765 18.7496 12.2915 18.7496H18.5414C18.6563 18.7496 18.7497 18.6562 18.7497 18.5413V14.7914C18.7497 14.6764 18.6563 14.583 18.5414 14.583H12.2915Z" fill="white"/>
<path d="M18.5414 11.6665H12.2915C11.4873 11.6665 10.8331 11.0123 10.8331 10.208V1.45825C10.8331 0.654129 11.4873 0 12.2915 0H18.5414C19.3455 0 19.9996 0.654129 19.9996 1.45825V10.208C19.9996 11.0123 19.3455 11.6665 18.5414 11.6665ZM12.2915 1.24997C12.1765 1.24997 12.0831 1.34335 12.0831 1.45825V10.208C12.0831 10.3231 12.1765 10.4165 12.2915 10.4165H18.5414C18.6563 10.4165 18.7497 10.3231 18.7497 10.208V1.45825C18.7497 1.34335 18.6563 1.24997 18.5414 1.24997H12.2915Z" fill="white"/>
</svg>
