<svg width="22" height="22" viewBox="0 0 22 22" fill="none" xmlns="http://www.w3.org/2000/svg">
<rect x="2" y="10" width="7" height="10" fill="#72B1F0" stroke="white" stroke-width="0.3"/>
<path d="M8.70811 7.66656H2.45825C1.65413 7.66656 1 7.01244 1 6.20816V2.45825C1 1.65413 1.65413 1 2.45825 1H8.70811C9.51238 1 10.1665 1.65413 10.1665 2.45825V6.20816C10.1665 7.01244 9.51238 7.66656 8.70811 7.66656ZM2.45825 2.24997C2.34335 2.24997 2.24997 2.34335 2.24997 2.45825V6.20816C2.24997 6.32321 2.34335 6.41659 2.45825 6.41659H8.70811C8.82315 6.41659 8.91654 6.32321 8.91654 6.20816V2.45825C8.91654 2.34335 8.82315 2.24997 8.70811 2.24997H2.45825Z" fill="white" stroke="white" stroke-width="0.3"/>
<path d="M8.70811 20.9997H2.45825C1.65413 20.9997 1 20.3456 1 19.5415V10.7917C1 9.98738 1.65413 9.33325 2.45825 9.33325H8.70811C9.51238 9.33325 10.1665 9.98738 10.1665 10.7917V19.5415C10.1665 20.3456 9.51238 20.9997 8.70811 20.9997ZM2.45825 10.5832C2.34335 10.5832 2.24997 10.6766 2.24997 10.7917V19.5415C2.24997 19.6563 2.34335 19.7497 2.45825 19.7497H8.70811C8.82315 19.7497 8.91654 19.6563 8.91654 19.5415V10.7917C8.91654 10.6766 8.82315 10.5832 8.70811 10.5832H2.45825Z" fill="white" stroke="white" stroke-width="0.3"/>
<path d="M19.5413 20.9996H13.2915C12.4872 20.9996 11.8331 20.3454 11.8331 19.5413V15.7914C11.8331 14.9871 12.4872 14.333 13.2915 14.333H19.5413C20.3454 14.333 20.9996 14.9871 20.9996 15.7914V19.5413C20.9996 20.3454 20.3454 20.9996 19.5413 20.9996V20.9996ZM13.2915 15.583C13.1764 15.583 13.083 15.6764 13.083 15.7914V19.5413C13.083 19.6562 13.1764 19.7496 13.2915 19.7496H19.5413C19.6562 19.7496 19.7496 19.6562 19.7496 19.5413V15.7914C19.7496 15.6764 19.6562 15.583 19.5413 15.583H13.2915Z" fill="white" stroke="white" stroke-width="0.3"/>
<rect x="13" y="2" width="7" height="10" fill="#72B1F0" stroke="white" stroke-width="0.3"/>
<path d="M19.5413 12.6665H13.2915C12.4872 12.6665 11.8331 12.0123 11.8331 11.208V2.45825C11.8331 1.65413 12.4872 1 13.2915 1H19.5413C20.3454 1 20.9996 1.65413 20.9996 2.45825V11.208C20.9996 12.0123 20.3454 12.6665 19.5413 12.6665ZM13.2915 2.24997C13.1764 2.24997 13.083 2.34335 13.083 2.45825V11.208C13.083 11.3231 13.1764 11.4165 13.2915 11.4165H19.5413C19.6562 11.4165 19.7496 11.3231 19.7496 11.208V2.45825C19.7496 2.34335 19.6562 2.24997 19.5413 2.24997H13.2915Z" fill="white" stroke="white" stroke-width="0.3"/>
</svg>
