<svg width="22" height="22" viewBox="0 0 22 22" fill="none" xmlns="http://www.w3.org/2000/svg">
<rect x="11" y="11" width="9" height="9" rx="4.5" fill="#72B1F0"/>
<path d="M18.582 11.2951C18 10.9187 17 10.5 16.2383 10.4944C16.2346 7.82392 16.2383 2.22266 16.2383 2.22266V1.58594C16.2383 1.26234 15.9759 1 15.6523 1H5.10156C4.94613 1 4.79711 1.06172 4.68727 1.17164L1.17172 4.68715C1.0641 4.79477 1 4.94414 1 5.10156V20.4141C1 20.7377 1.26234 21 1.58594 21H15.6855C18.705 21 21 18.579 21 15.7266C21 13.8703 20.0358 12.235 18.582 11.2951ZM4.51953 2.9966V4.51562H3.00051L4.51953 2.9966ZM2.17188 19.8281V5.6875H5.10547C5.42906 5.6875 5.69141 5.42516 5.69141 5.10156V2.17188H15.0664V10.4944C13.5336 10.6866 12.2035 11.5394 11.3705 12.7578H3.93359C3.61 12.7578 3.34766 13.0202 3.34766 13.3438C3.34766 13.6673 3.61 13.9297 3.93359 13.9297H10.7686C10.633 14.3026 10.5386 14.6951 10.4904 15.1016H3.93359C3.61 15.1016 3.34766 15.3639 3.34766 15.6875C3.34766 16.0111 3.61 16.2734 3.93359 16.2734H10.4814C10.6213 17.6243 11.3631 18.9765 12.4161 19.8281H2.17188ZM15.7266 19.8281C13.465 19.8281 11.625 17.9882 11.625 15.7266C11.625 13.465 13.465 11.625 15.7266 11.625C17.9882 11.625 19.8281 13.465 19.8281 15.7266C19.8281 17.9882 17.9882 19.8281 15.7266 19.8281Z" fill="white" stroke="white" stroke-width="0.2"/>
<path d="M16.7037 15.3833C16.2145 15.002 15.5654 14.9247 15.4415 14.7011C15.4118 14.6475 15.4458 14.5356 15.5326 14.4773C15.6617 14.3905 15.9587 14.4264 16.0551 14.5154C16.293 14.7347 16.6637 14.7198 16.8831 14.482C17.1025 14.2441 17.0875 13.8734 16.8496 13.654C16.6941 13.5105 16.4998 13.405 16.2889 13.3391C16.2838 13.02 16.0238 12.7627 15.7034 12.7627C15.3798 12.7627 15.1175 13.025 15.1175 13.3486V13.3781C14.3689 13.6863 14.0385 14.5869 14.4164 15.2691C14.6818 15.7481 15.1389 15.9287 15.5061 16.0737C15.7488 16.1696 16.1553 16.3143 16.1263 16.5737C16.1127 16.6955 16.0153 16.822 15.8894 16.8812C15.6951 16.9727 15.2998 16.913 15.06 16.7562C14.7892 16.579 14.4261 16.6549 14.2489 16.9257C14.0717 17.1966 14.1476 17.5597 14.4184 17.7369C14.6115 17.8632 14.855 17.9666 15.1175 18.0291V18.0391C15.1175 18.3627 15.3798 18.625 15.7034 18.625C16.027 18.625 16.2894 18.3627 16.2894 18.0391V17.9834C17.3589 17.573 17.7058 16.1641 16.7037 15.3833V15.3833Z" fill="white" stroke="#72B1F0" stroke-width="0.2"/>
<path d="M5.14258 11.002H12.1699C12.4935 11.002 12.7559 10.7396 12.7559 10.416C12.7559 7.2984 12.7558 11.2137 12.7559 8.06836C12.7559 7.74477 12.4935 7.48242 12.1699 7.48242H10.4121V5.72656C10.4121 5.40297 10.1498 5.14062 9.82617 5.14062H7.48633C7.16273 5.14062 6.90039 5.40297 6.90039 5.72656V6.89988C6.78703 6.8998 5.03035 6.89832 5.14258 6.89844C4.81934 6.89844 4.55664 7.16062 4.55664 7.48438V10.416C4.55664 10.7396 4.81898 11.002 5.14258 11.002V11.002ZM11.584 8.6543V9.83008H10.4121V8.6543H11.584ZM8.07227 6.3125H9.24023V9.83008H8.07227V6.3125ZM6.90039 8.07176V9.83004H5.72852V8.07078L6.90039 8.07176Z" fill="white" stroke="#0B61C4" stroke-width="0.2"/>
</svg>
