<svg width="20" height="20" viewBox="0 0 20 20" fill="none" xmlns="http://www.w3.org/2000/svg">
<path d="M17.582 10.2951C17 9.91875 16 9.5 15.2383 9.49438C15.2346 6.82392 15.2383 1.22266 15.2383 1.22266V0.585938C15.2383 0.262344 14.9759 0 14.6523 0H4.10156C3.94613 0 3.79711 0.0617188 3.68727 0.171641L0.171719 3.68715C0.0641016 3.79477 0 3.94414 0 4.10156V19.4141C0 19.7377 0.262344 20 0.585938 20H14.6855C17.705 20 20 17.579 20 14.7266C20 12.8703 19.0358 11.235 17.582 10.2951ZM3.51953 1.9966V3.51562H2.00051L3.51953 1.9966ZM1.17188 18.8281V4.6875H4.10547C4.42906 4.6875 4.69141 4.42516 4.69141 4.10156V1.17188H14.0664V9.49438C12.5336 9.68664 11.2035 10.5394 10.3705 11.7578H2.93359C2.61 11.7578 2.34766 12.0202 2.34766 12.3438C2.34766 12.6673 2.61 12.9297 2.93359 12.9297H9.76855C9.63297 13.3026 9.53855 13.6951 9.49035 14.1016H2.93359C2.61 14.1016 2.34766 14.3639 2.34766 14.6875C2.34766 15.0111 2.61 15.2734 2.93359 15.2734H9.48141C9.62127 16.6243 10.3631 17.9765 11.4161 18.8281H1.17188ZM14.7266 18.8281C12.465 18.8281 10.625 16.9882 10.625 14.7266C10.625 12.465 12.465 10.625 14.7266 10.625C16.9882 10.625 18.8281 12.465 18.8281 14.7266C18.8281 16.9882 16.9882 18.8281 14.7266 18.8281Z" fill="white"/>
<path d="M15.7037 14.3833C15.2145 14.002 14.5654 13.9247 14.4415 13.7011C14.4118 13.6475 14.4458 13.5356 14.5326 13.4773C14.6617 13.3905 14.9587 13.4264 15.0551 13.5154C15.293 13.7347 15.6637 13.7198 15.8831 13.482C16.1025 13.2441 16.0875 12.8734 15.8496 12.654C15.6941 12.5105 15.4998 12.405 15.2889 12.3391C15.2838 12.02 15.0238 11.7627 14.7034 11.7627C14.3798 11.7627 14.1175 12.025 14.1175 12.3486V12.3781C13.3689 12.6863 13.0385 13.5869 13.4164 14.2691C13.6818 14.7481 14.1389 14.9287 14.5061 15.0737C14.7488 15.1696 15.1553 15.3143 15.1263 15.5737C15.1127 15.6955 15.0153 15.822 14.8894 15.8812C14.6951 15.9727 14.2998 15.913 14.06 15.7562C13.7892 15.579 13.4261 15.6549 13.2489 15.9257C13.0717 16.1966 13.1476 16.5597 13.4184 16.7369C13.6115 16.8632 13.855 16.9666 14.1175 17.0291V17.0391C14.1175 17.3627 14.3798 17.625 14.7034 17.625C15.027 17.625 15.2894 17.3627 15.2894 17.0391V16.9834C16.3589 16.573 16.7058 15.1641 15.7037 14.3833V14.3833Z" fill="white" stroke="#0B61C4" stroke-width="0.2"/>
<path d="M4.14258 10.002H11.1699C11.4935 10.002 11.7559 9.73961 11.7559 9.41602C11.7559 6.2984 11.7558 10.2137 11.7559 7.06836C11.7559 6.74477 11.4935 6.48242 11.1699 6.48242H9.41211V4.72656C9.41211 4.40297 9.14977 4.14062 8.82617 4.14062H6.48633C6.16273 4.14062 5.90039 4.40297 5.90039 4.72656V5.89988C5.78703 5.8998 4.03035 5.89832 4.14258 5.89844C3.81934 5.89844 3.55664 6.16062 3.55664 6.48438V9.41602C3.55664 9.73961 3.81898 10.002 4.14258 10.002V10.002ZM10.584 7.6543V8.83008H9.41211V7.6543H10.584ZM7.07227 5.3125H8.24023V8.83008H7.07227V5.3125ZM5.90039 7.07176V8.83004H4.72852V7.07078L5.90039 7.07176Z" fill="white" stroke="#0B61C4" stroke-width="0.2"/>
</svg>
