<svg width="22" height="22" viewBox="0 0 22 22" fill="none" xmlns="http://www.w3.org/2000/svg">
<rect x="2" y="2" width="18" height="18" rx="9" fill="#72B1F0"/>
<path d="M11 1C5.47254 1 1 5.47293 1 11C1 16.5275 5.47293 21 11 21C16.5275 21 21 16.5271 21 11C21 5.47254 16.527 1 11 1ZM11 19.4375C6.33621 19.4375 2.5625 15.6635 2.5625 11C2.5625 6.33621 6.33652 2.5625 11 2.5625C15.6638 2.5625 19.4375 6.33652 19.4375 11C19.4375 15.6638 15.6634 19.4375 11 19.4375Z" fill="white" stroke="white" stroke-width="0.3"/>
<path d="M11 9.37231C10.5685 9.37231 10.2188 9.72208 10.2188 10.1536V15.1845C10.2188 15.616 10.5685 15.9658 11 15.9658C11.4315 15.9658 11.7812 15.616 11.7812 15.1845V10.1536C11.7812 9.72208 11.4315 9.37231 11 9.37231Z" fill="white" stroke="#72B1F0" stroke-width="0.3"/>
<path d="M11 8.41553C11.5825 8.41553 12.0547 7.94333 12.0547 7.36084C12.0547 6.77835 11.5825 6.30615 11 6.30615C10.4175 6.30615 9.94531 6.77835 9.94531 7.36084C9.94531 7.94333 10.4175 8.41553 11 8.41553Z" fill="white" stroke="#72B1F0" stroke-width="0.3"/>
</svg>
