<svg width="20" height="20" viewBox="0 0 20 20" fill="none" xmlns="http://www.w3.org/2000/svg">
<path d="M7.09839 5.22852H12.9017C13.2252 5.22852 13.4876 4.96617 13.4876 4.64258C13.4876 4.31898 13.2252 4.05664 12.9017 4.05664H7.09839C6.77479 4.05664 6.51245 4.31898 6.51245 4.64258C6.51245 4.96617 6.77479 5.22852 7.09839 5.22852Z" fill="white"/>
<path d="M7.09839 8.02271H12.9017C13.2252 8.02271 13.4876 7.76036 13.4876 7.43677C13.4876 7.11317 13.2252 6.85083 12.9017 6.85083H7.09839C6.77479 6.85083 6.51245 7.11317 6.51245 7.43677C6.51245 7.76036 6.77479 8.02271 7.09839 8.02271Z" fill="white"/>
<path d="M19.6386 5.71827L16.9823 4.61604V1.05249C16.9823 0.728896 16.72 0.466553 16.3964 0.466553H3.60363C3.28004 0.466553 3.0177 0.728896 3.0177 1.05249V4.61601L0.361367 5.71827C0.142578 5.80905 0 6.02261 0 6.25944V18.9471C0 19.2707 0.262344 19.533 0.585938 19.533H19.4141C19.7377 19.533 20 19.2707 20 18.9471V6.25944C20 6.02261 19.8574 5.80905 19.6386 5.71827V5.71827ZM1.17188 7.66601L6.61809 13.0685L1.17188 17.6827V7.66601ZM10 11.7392L17.8161 18.3611H2.18395L10 11.7392ZM13.3819 13.0685L18.8281 7.66601V17.6827L13.3819 13.0685ZM18.3765 6.46331L16.9823 7.84636V5.88479L18.3765 6.46331ZM15.8104 1.63843V9.00882L12.4844 12.3082L10.3788 10.5242C10.1602 10.339 9.83977 10.339 9.62121 10.5242L7.51555 12.3082L4.18953 9.00882V1.63843H15.8104ZM3.0177 7.84636L1.62348 6.46331L3.0177 5.88479V7.84636Z" fill="white"/>
</svg>
