<svg width="22" height="20" viewBox="0 0 22 20" fill="none" xmlns="http://www.w3.org/2000/svg">
<path d="M17 1H4.5V9L9 13L11 11.5L13.5 13L17.5 9.5L17 1Z" fill="#72B1F0"/>
<path d="M8.09833 5.22852H13.9016C14.2252 5.22852 14.4875 4.96617 14.4875 4.64258C14.4875 4.31898 14.2252 4.05664 13.9016 4.05664H8.09833C7.77473 4.05664 7.51239 4.31898 7.51239 4.64258C7.51239 4.96617 7.77473 5.22852 8.09833 5.22852Z" fill="white"/>
<path d="M8.09833 8.02271H13.9016C14.2252 8.02271 14.4875 7.76036 14.4875 7.43677C14.4875 7.11317 14.2252 6.85083 13.9016 6.85083H8.09833C7.77473 6.85083 7.51239 7.11317 7.51239 7.43677C7.51239 7.76036 7.77473 8.02271 8.09833 8.02271Z" fill="white"/>
<path d="M20.6386 5.71827L17.9823 4.61604V1.05249C17.9823 0.728896 17.72 0.466553 17.3964 0.466553H4.60363C4.28004 0.466553 4.0177 0.728896 4.0177 1.05249V4.61601L1.36137 5.71827C1.14258 5.80905 1 6.02261 1 6.25944V18.9471C1 19.2707 1.26234 19.533 1.58594 19.533H20.4141C20.7377 19.533 21 19.2707 21 18.9471V6.25944C21 6.02261 20.8574 5.80905 20.6386 5.71827V5.71827ZM2.17188 7.66601L7.61809 13.0685L2.17188 17.6827V7.66601ZM11 11.7392L18.8161 18.3611H3.18395L11 11.7392ZM14.3819 13.0685L19.8281 7.66601V17.6827L14.3819 13.0685ZM19.3765 6.46331L17.9823 7.84636V5.88479L19.3765 6.46331ZM16.8104 1.63843V9.00882L13.4844 12.3082L11.3788 10.5242C11.1602 10.339 10.8398 10.339 10.6212 10.5242L8.51555 12.3082L5.18953 9.00882V1.63843H16.8104ZM4.0177 7.84636L2.62348 6.46331L4.0177 5.88479V7.84636Z" fill="white" stroke="white" stroke-width="0.2"/>
</svg>
