<svg width="20" height="20" viewBox="0 0 20 20" fill="none" xmlns="http://www.w3.org/2000/svg">
<path d="M6.10274 8.91675H4.01941C3.67441 8.91675 3.39441 8.63675 3.39441 8.29175C3.39441 7.94675 3.67441 7.66675 4.01941 7.66675H6.10274C6.44774 7.66675 6.72774 7.94675 6.72774 8.29175C6.72774 8.63675 6.44774 8.91675 6.10274 8.91675Z" fill="white"/>
<path d="M16.1025 8.91675H9.85254C9.50754 8.91675 9.22754 8.63675 9.22754 8.29175C9.22754 7.94675 9.50754 7.66675 9.85254 7.66675H16.1025C16.4475 7.66675 16.7275 7.94675 16.7275 8.29175C16.7275 8.63675 16.4475 8.91675 16.1025 8.91675Z" fill="white"/>
<path d="M6.10274 12.25H4.01941C3.67441 12.25 3.39441 11.97 3.39441 11.625C3.39441 11.28 3.67441 11 4.01941 11H6.10274C6.44774 11 6.72774 11.28 6.72774 11.625C6.72774 11.97 6.44774 12.25 6.10274 12.25Z" fill="white"/>
<path d="M16.1025 12.25H9.85254C9.50754 12.25 9.22754 11.97 9.22754 11.625C9.22754 11.28 9.50754 11 9.85254 11H16.1025C16.4475 11 16.7275 11.28 16.7275 11.625C16.7275 11.97 16.4475 12.25 16.1025 12.25Z" fill="white"/>
<path d="M6.10274 15.5833H4.01941C3.67441 15.5833 3.39441 15.3033 3.39441 14.9583C3.39441 14.6133 3.67441 14.3333 4.01941 14.3333H6.10274C6.44774 14.3333 6.72774 14.6133 6.72774 14.9583C6.72774 15.3033 6.44774 15.5833 6.10274 15.5833Z" fill="white"/>
<path d="M16.1025 15.5833H9.85254C9.50754 15.5833 9.22754 15.3033 9.22754 14.9583C9.22754 14.6133 9.50754 14.3333 9.85254 14.3333H16.1025C16.4475 14.3333 16.7275 14.6133 16.7275 14.9583C16.7275 15.3033 16.4475 15.5833 16.1025 15.5833Z" fill="white"/>
<path fill-rule="evenodd" clip-rule="evenodd" d="M2.29167 19.3333H17.7083C18.9725 19.3333 20 18.3058 20 17.0417V4.54199V3.29167C20 2.0275 18.9725 1 17.7083 1H2.29167C1.0275 1 0 2.0275 0 3.29167V4.54199V17.0417C0 18.3058 1.0275 19.3333 2.29167 19.3333ZM1.25 3.91699V3.29167C1.25 2.7175 1.7175 2.25 2.29167 2.25H17.7083C18.2825 2.25 18.75 2.7175 18.75 3.29167V3.91699H1.25ZM1.25 5.16699H18.75V17.0417C18.75 17.6158 18.2825 18.0833 17.7083 18.0833H2.29167C1.7175 18.0833 1.25 17.6158 1.25 17.0417V5.16699Z" fill="white"/>
</svg>
