<svg width="20" height="20" viewBox="0 0 20 20" fill="none" xmlns="http://www.w3.org/2000/svg">
<path d="M10.0191 11.5902H10.8102C11.2478 11.5902 11.6087 11.3054 11.6087 10.9527C11.6087 10.7837 11.5415 10.6215 11.422 10.502C11.3024 10.3824 11.1403 10.3152 10.9712 10.3152H9.84238C9.20042 10.3152 8.67477 9.71876 8.70236 8.99627C8.72019 8.66458 8.86523 8.35254 9.10728 8.12506C9.34934 7.89759 9.66978 7.77219 10.0019 7.77498H12.6712L13.3422 6.5H9.97137C9.63181 6.5004 9.29575 6.56865 8.98294 6.70075C8.67012 6.83285 8.38686 7.02614 8.1498 7.26924C7.91273 7.51235 7.72664 7.80039 7.60245 8.11643C7.47827 8.43247 7.41849 8.77014 7.42664 9.1096C7.45944 10.4942 8.62929 11.5902 10.0191 11.5902Z" fill="white"/>
<path d="M10.8332 8.40674H10.2032C9.66632 8.40674 9.4158 8.69156 9.4158 9.04423C9.4158 9.2133 9.48297 9.37545 9.60252 9.495C9.72207 9.61455 9.88422 9.68171 10.0533 9.68171H11.0524C11.2231 9.6822 11.3919 9.71703 11.5489 9.78414C11.7058 9.85125 11.8477 9.94926 11.9659 10.0723C12.0842 10.1954 12.1765 10.341 12.2373 10.5005C12.2981 10.66 12.3262 10.8301 12.3199 11.0007C12.3019 11.3326 12.1566 11.6447 11.9143 11.8722C11.6719 12.0997 11.3512 12.225 11.0188 12.222H8.02899L7.349 13.497H11.0502C11.3897 13.4967 11.7259 13.4285 12.0387 13.2964C12.3516 13.1643 12.6349 12.9711 12.872 12.7279C13.109 12.4848 13.2951 12.1967 13.4193 11.8806C13.5434 11.5646 13.6031 11.2268 13.5949 10.8873C13.5643 9.50352 12.4377 8.40674 10.8332 8.40674Z" fill="white"/>
<path d="M3.76528 6.5L0 13.4997H1.73949L2.7699 11.5902H4.87175V13.4997H6.38308V6.5H3.76528ZM3.45213 10.3152L4.86877 7.68327V10.3152H3.45213Z" fill="white"/>
<path d="M19.323 7.77498L20 6.5H16.0819H15.4205H14.5706V13.4997H16.0819V10.3592H17.9354L18.6147 9.08425H16.0819V7.77498H19.323Z" fill="white"/>
</svg>
