<svg width="22" height="22" viewBox="0 0 22 22" fill="none" xmlns="http://www.w3.org/2000/svg">
<rect x="2" y="2" width="18" height="18" rx="9" fill="#72B1F0"/>
<path d="M11 1C5.47254 1 1 5.47293 1 11C1 16.5275 5.47293 21 11 21C16.5275 21 21 16.5271 21 11C21 5.47254 16.527 1 11 1ZM11 19.4375C6.33621 19.4375 2.5625 15.6635 2.5625 11C2.5625 6.33621 6.33652 2.5625 11 2.5625C15.6638 2.5625 19.4375 6.33652 19.4375 11C19.4375 15.6638 15.6634 19.4375 11 19.4375Z" fill="white" stroke="white" stroke-width="0.3"/>
<path d="M11.0153 12.2721H11.6482C11.9983 12.2721 12.287 12.0443 12.287 11.7621C12.287 11.6269 12.2333 11.4972 12.1377 11.4015C12.042 11.3059 11.9123 11.2521 11.777 11.2521H10.874C10.3604 11.2521 9.93989 10.775 9.96196 10.197C9.97623 9.93161 10.0923 9.68198 10.2859 9.5C10.4795 9.31802 10.7359 9.21771 11.0016 9.21993H13.137L13.6739 8.19995H10.9772C10.7055 8.20027 10.4367 8.25487 10.1864 8.36055C9.93617 8.46623 9.70956 8.62086 9.51991 8.81535C9.33026 9.00983 9.18138 9.24026 9.08203 9.49309C8.98269 9.74592 8.93487 10.0161 8.94138 10.2876C8.96763 11.3953 9.9035 12.2721 11.0153 12.2721Z" fill="white"/>
<path d="M11.6666 9.72534H11.1625C10.7331 9.72534 10.5327 9.9532 10.5327 10.2353C10.5327 10.3706 10.5864 10.5003 10.682 10.596C10.7777 10.6916 10.9074 10.7453 11.0426 10.7453H11.8419C11.9785 10.7457 12.1136 10.7736 12.2391 10.8273C12.3647 10.8809 12.4781 10.9594 12.5728 11.0578C12.6674 11.1563 12.7412 11.2728 12.7899 11.4004C12.8385 11.528 12.861 11.664 12.8559 11.8005C12.8415 12.066 12.7253 12.3157 12.5314 12.4977C12.3375 12.6797 12.081 12.7799 11.8151 12.7775H9.4232L8.87921 13.7975H11.8401C12.1118 13.7973 12.3807 13.7427 12.631 13.6371C12.8813 13.5314 13.1079 13.3768 13.2976 13.1823C13.4873 12.9878 13.6361 12.7573 13.7354 12.5045C13.8348 12.2516 13.8825 11.9814 13.8759 11.7098C13.8515 10.6028 12.9502 9.72534 11.6666 9.72534Z" fill="white"/>
<path d="M6.01222 8.19995L3 13.7997H4.39159L5.21592 12.2721H6.8974V13.7997H8.10647V8.19995H6.01222ZM5.7617 11.2521L6.89502 9.14657V11.2521H5.7617Z" fill="white"/>
<path d="M18.4584 9.21993L19 8.19995H15.8655H15.3364H14.6564V13.7997H15.8655V11.2873H17.3483L17.8917 10.2674H15.8655V9.21993H18.4584Z" fill="white"/>
</svg>
