<svg width="20" height="20" viewBox="0 0 20 20" fill="none" xmlns="http://www.w3.org/2000/svg">
<path d="M17.226 3.0774C15.3382 1.107 12.7263 -0.00500396 9.99755 1.69292e-05C4.48303 -0.00692863 0.00695347 4.45785 7.91671e-06 9.97241C-0.00342302 12.6992 1.10845 15.3087 3.07739 17.1951C3.08312 17.2008 3.08526 17.2094 3.09095 17.2144C3.14877 17.2701 3.21162 17.3172 3.27019 17.3708C3.43086 17.5136 3.59153 17.6614 3.76078 17.7992C3.85145 17.8706 3.94571 17.942 4.03856 18.0077C4.19851 18.127 4.35847 18.2462 4.52554 18.3562C4.6391 18.4276 4.75621 18.499 4.87257 18.5704C5.02679 18.6633 5.18035 18.7568 5.33959 18.8418C5.47457 18.9132 5.61235 18.9746 5.74946 19.0395C5.89942 19.111 6.04725 19.1823 6.20076 19.2466C6.35427 19.3109 6.50854 19.3609 6.66419 19.4166C6.81983 19.4723 6.9541 19.5237 7.10335 19.5694C7.27188 19.6201 7.44468 19.6593 7.61606 19.7015C7.75886 19.7364 7.8974 19.7764 8.04451 19.805C8.24158 19.8443 8.44154 19.8693 8.64149 19.8964C8.76505 19.9136 8.88572 19.9379 9.01065 19.95C9.33772 19.9821 9.6676 20 10.0004 20C10.3331 20 10.663 19.9821 10.9901 19.95C11.115 19.9379 11.2357 19.9136 11.3592 19.8964C11.5592 19.8693 11.7591 19.8443 11.9562 19.805C12.099 19.7764 12.2418 19.7336 12.3846 19.7015C12.556 19.6593 12.7288 19.62 12.8974 19.5694C13.0466 19.5237 13.1908 19.468 13.3365 19.4166C13.4822 19.3652 13.6479 19.3095 13.8 19.2466C13.952 19.1838 14.1013 19.1102 14.2512 19.0395C14.3884 18.9746 14.5262 18.9131 14.6611 18.8418C14.8204 18.7568 14.9739 18.6632 15.1281 18.5704C15.2445 18.499 15.3617 18.434 15.4752 18.3562C15.6423 18.2462 15.8022 18.127 15.9622 18.0077C16.055 17.9363 16.1492 17.872 16.2399 17.7992C16.4092 17.6635 16.5698 17.5193 16.7305 17.3708C16.7891 17.3172 16.8519 17.2701 16.9098 17.2144C16.9155 17.2094 16.9176 17.2008 16.9233 17.1951C20.9055 13.3801 21.0409 7.05942 17.226 3.0774ZM15.621 16.4474C15.491 16.5617 15.3568 16.6702 15.2211 16.7752C15.1412 16.8366 15.0612 16.8973 14.979 16.9559C14.8498 17.0494 14.7184 17.138 14.5848 17.2229C14.4877 17.2851 14.3885 17.345 14.2885 17.4036C14.1628 17.475 14.035 17.5464 13.9057 17.6178C13.7915 17.6764 13.6751 17.7314 13.558 17.7857C13.4409 17.8399 13.3116 17.8978 13.1852 17.9485C13.0588 17.9992 12.9246 18.047 12.7925 18.0913C12.6718 18.1327 12.5511 18.1755 12.429 18.2119C12.2862 18.2548 12.137 18.2898 11.9891 18.3255C11.8734 18.3526 11.7592 18.3833 11.6421 18.4062C11.4729 18.439 11.3001 18.4619 11.1265 18.4855C11.028 18.4983 10.9302 18.5162 10.8309 18.5262C10.5567 18.5526 10.2789 18.5683 9.99826 18.5683C9.71764 18.5683 9.43986 18.5526 9.16563 18.5262C9.06639 18.5162 8.96856 18.4983 8.86999 18.4855C8.69647 18.4619 8.52367 18.439 8.35442 18.4062C8.23731 18.3834 8.12305 18.3526 8.0074 18.3255C7.85958 18.2898 7.71246 18.2541 7.56753 18.2119C7.44544 18.1755 7.32473 18.1327 7.20406 18.0913C7.07197 18.0456 6.93983 17.9991 6.8113 17.9485C6.68276 17.8978 6.56138 17.8421 6.43854 17.7857C6.3157 17.7293 6.20503 17.6764 6.0908 17.6178C5.96156 17.5507 5.83373 17.48 5.70804 17.4036C5.60809 17.3451 5.5088 17.2851 5.41168 17.2229C5.27817 17.138 5.14675 17.0494 5.0175 16.9559C4.93537 16.8973 4.85541 16.8366 4.77541 16.7752C4.63972 16.6702 4.5055 16.561 4.37554 16.4474C4.34412 16.4239 4.31554 16.3939 4.28487 16.3667C4.3168 13.9376 5.87733 11.7927 8.17878 11.0147C9.32952 11.5621 10.6656 11.5621 11.8163 11.0147C14.1177 11.7927 15.6783 13.9375 15.7102 16.3667C15.6802 16.3939 15.6517 16.421 15.621 16.4474ZM7.50749 5.72542C8.28066 4.35036 10.0221 3.86246 11.3972 4.63563C12.7722 5.40881 13.2601 7.15026 12.4869 8.52531C12.2304 8.98154 11.8534 9.35853 11.3972 9.6151C11.3936 9.6151 11.3893 9.61509 11.385 9.61936C11.1957 9.72476 10.9955 9.80953 10.788 9.87216C10.7509 9.88288 10.7166 9.89714 10.6774 9.90643C10.606 9.92501 10.531 9.93785 10.4574 9.9507C10.3189 9.97493 10.1788 9.98898 10.0383 9.99283H9.95684C9.8163 9.98898 9.67617 9.97493 9.53768 9.9507C9.46626 9.93785 9.39057 9.92501 9.31777 9.90643C9.2799 9.89714 9.24634 9.88288 9.2071 9.87216C8.99961 9.80953 8.79948 9.7248 8.61011 9.61936L8.59727 9.6151C7.22222 8.84192 6.73431 7.10047 7.50749 5.72542ZM16.977 14.9507C16.5188 12.8134 15.1113 11.0014 13.1538 10.0286C14.754 8.28548 14.6381 5.57517 12.895 3.97497C11.1519 2.37477 8.44154 2.49067 6.84134 4.23379C5.337 5.87253 5.337 8.38992 6.84134 10.0286C4.88382 11.0014 3.47638 12.8134 3.01815 14.9507C0.279922 11.0937 1.18686 5.74726 5.04386 3.00903C8.90087 0.27081 14.2474 1.17775 16.9856 5.03475C18.0149 6.48466 18.5674 8.219 18.5666 9.99714C18.5666 11.7737 18.0108 13.5058 16.977 14.9507Z" fill="white"/>
</svg>
