<svg width="22" height="22" viewBox="0 0 22 22" fill="none" xmlns="http://www.w3.org/2000/svg">
<path d="M20.7993 10.4945L19.3701 9.06662L11.5058 1.20916C11.2267 0.930281 10.7741 0.930281 10.4949 1.20916L2.63057 9.06662L1.2007 10.4953C0.926401 10.7791 0.934235 11.2313 1.21826 11.5053C1.49532 11.7727 1.93455 11.7727 2.21162 11.5053L2.42036 11.2953V20.2857C2.42036 20.6802 2.74045 21 3.13531 21H18.864C19.2588 21 19.5789 20.6802 19.5789 20.2857V11.2953L19.7884 11.5046C20.0724 11.7787 20.525 11.7708 20.7993 11.4871C21.0669 11.2102 21.0669 10.7714 20.7993 10.4945ZM13.1445 19.5714H8.85485V13.8568H13.1445V19.5714ZM18.149 19.5714H14.5743V13.1425C14.5743 12.748 14.2543 12.4282 13.8594 12.4282H8.1399C7.74503 12.4282 7.42494 12.748 7.42494 13.1425V19.5714H3.85026V9.86667L10.9996 2.72349L18.149 9.86667V19.5714Z" fill="white" stroke="#0B61C4" stroke-width="0.3"/>
</svg>
