<svg width="16" height="16" viewBox="0 0 16 16" fill="none" xmlns="http://www.w3.org/2000/svg">
<path d="M8 16C3.50667 16 0 12.336 0 8C0 3.58926 3.58926 0 8 0C12.4107 0 16 3.58926 16 8C16 12.4107 12.4107 16 8 16Z" fill="url(#paint0_linear_3189_10644)"/>
<path d="M6.81687 10.6294L5.12937 8.94188C4.68995 8.50245 4.68995 7.79048 5.12937 7.35105C5.5688 6.91163 6.28077 6.91163 6.7202 7.35105L7.61225 8.24318L10.1919 5.66355C10.6313 5.22413 11.3433 5.22413 11.7827 5.66355C12.2221 6.10298 12.2221 6.81495 11.7827 7.25438L8.4077 10.6294C7.9682 11.0689 7.2563 11.0689 6.81687 10.6294Z" fill="white"/>
<defs>
<linearGradient id="paint0_linear_3189_10644" x1="8" y1="-6.478e-07" x2="29.7089" y2="22.467" gradientUnits="userSpaceOnUse">
<stop stop-color="#ACE30D"/>
<stop offset="1" stop-color="#13C12F"/>
</linearGradient>
</defs>
</svg>
