<svg width="24" height="24" viewBox="0 0 24 24" fill="none" xmlns="http://www.w3.org/2000/svg">
<circle cx="12" cy="12" r="11.5" fill="white" stroke="#369EBA"/>
<path d="M12.5182 12.1751L16.9237 12.175C17.2103 12.1751 17.4419 11.9434 17.4419 11.6568C17.4419 11.3702 17.2102 11.1386 16.9237 11.1386L12.5182 11.1386L12.5183 6.73319C12.5182 6.44656 12.2866 6.21497 12 6.21497C11.7134 6.21491 11.4818 6.44657 11.4818 6.7332L11.4817 11.1386L7.07626 11.1388C6.78964 11.1387 6.55797 11.3704 6.55803 11.657C6.55796 11.7999 6.61595 11.9297 6.70976 12.0235C6.80358 12.1173 6.93331 12.1752 7.07625 12.1752L11.4817 12.1751L11.4816 16.5806C11.4816 16.7235 11.5396 16.8533 11.6334 16.9471C11.7272 17.0409 11.8569 17.0988 11.9999 17.0988C12.2865 17.0989 12.5182 16.8672 12.5181 16.5806L12.5182 12.1751Z" fill="#369EBA"/>
</svg>
