<svg width="173" height="69" viewBox="0 0 173 69" fill="none" xmlns="http://www.w3.org/2000/svg">
<path d="M56.6715 28.9446H61.146C63.6216 28.9446 65.6627 27.3299 65.6627 25.3304C65.6627 24.3719 65.2829 23.4526 64.6066 22.7748C63.9304 22.097 63.0133 21.7162 62.057 21.7162H55.672C52.0409 21.7162 49.0678 18.3345 49.2238 14.2384C49.3247 12.3579 50.145 10.5888 51.5142 9.29914C52.8833 8.00948 54.6958 7.29858 56.5745 7.31435H71.6724L75.4679 0.0859375H56.4016C54.481 0.0881996 52.5802 0.475165 50.8108 1.2241C49.0415 1.97303 47.4393 3.06883 46.0984 4.44713C44.7575 5.82543 43.7049 7.45843 43.0025 9.25019C42.3001 11.042 41.962 12.9564 42.0081 14.8809C42.1936 22.7307 48.8105 28.9446 56.6715 28.9446Z" fill="white"/>
<path d="M61.2786 10.8945H57.715C54.6786 10.8945 53.2616 12.5093 53.2616 14.5087C53.2616 15.4673 53.6415 16.3866 54.3177 17.0644C54.9939 17.7422 55.911 18.1229 56.8673 18.1229H62.5185C63.484 18.1257 64.439 18.3232 65.3267 18.7036C66.2144 19.0841 67.0167 19.6398 67.6857 20.3375C68.3546 21.0353 68.8767 21.8609 69.2206 22.7651C69.5646 23.6693 69.7235 24.6337 69.6879 25.6008C69.5859 27.4824 68.7641 29.2521 67.3934 30.5418C66.0227 31.8315 64.2086 32.5417 62.3287 32.5248H45.4174L41.5713 39.7532H62.5058C64.4266 39.7516 66.3277 39.365 68.0973 38.6162C69.8669 37.8675 71.4693 36.7717 72.8104 35.3933C74.1514 34.0149 75.2039 32.3817 75.9061 30.5896C76.6084 28.7976 76.9461 26.883 76.8994 24.9582C76.7265 17.1127 70.3542 10.8945 61.2786 10.8945Z" fill="white"/>
<path d="M21.2972 0.0859375L0 39.7704H9.8389L15.6672 28.9446H27.5557V39.7704H36.1041V0.0859375H21.2972ZM19.526 21.7162L27.5388 6.79441V21.7162H19.526Z" fill="white"/>
<path d="M109.295 7.31435L113.124 0.0859375H90.9625H87.2218H82.4141V39.7704H90.9625V21.9656H101.447L105.289 14.7372H90.9625V7.31435H109.295Z" fill="white"/>
<path d="M154.318 1.00391L157.452 8.10973H156.005L155.259 6.38083H152.109L151.425 8.10973H149.987L152.91 1.00391H154.318ZM152.535 5.34095H154.837L153.639 2.52568L152.535 5.34095Z" fill="white"/>
<path d="M161.731 1.00391V7.03604H165.172V8.10973H160.36V1.00391H161.731Z" fill="white"/>
<path d="M169.558 1.00391V7.03604H172.999V8.10973H168.188V1.00391H169.558Z" fill="white"/>
<path d="M126.612 16.8116C127.31 16.8141 127.996 16.993 128.607 17.3315V18.5489C128.025 18.1562 127.349 17.927 126.65 17.8852C126.366 17.8704 126.085 17.9395 125.84 18.0839C125.749 18.1407 125.675 18.22 125.624 18.314C125.573 18.4081 125.547 18.5137 125.549 18.6208C125.549 18.8913 125.73 19.1365 126.093 19.3647C126.194 19.4324 126.586 19.6226 127.265 19.9354C127.753 20.1366 128.186 20.4493 128.531 20.8485C128.793 21.1976 128.929 21.625 128.919 22.0617C128.929 22.3408 128.876 22.6187 128.763 22.8743C128.651 23.1299 128.482 23.3564 128.269 23.5369C127.793 23.9227 127.194 24.1224 126.582 24.0991C126.188 24.1061 125.794 24.0563 125.414 23.9512C125.029 23.822 124.659 23.6489 124.313 23.4355V22.0828C124.896 22.6379 125.654 22.9713 126.456 23.0255C126.743 23.0393 127.027 22.964 127.27 22.8099C127.366 22.7465 127.445 22.6598 127.498 22.5578C127.552 22.4558 127.579 22.3419 127.578 22.2265C127.571 22.0562 127.517 21.8911 127.423 21.7494C127.328 21.6076 127.196 21.4948 127.042 21.4234C126.743 21.2627 126.359 21.0683 125.886 20.84C125.401 20.6462 124.967 20.3406 124.621 19.9481C124.344 19.6186 124.194 19.1999 124.2 18.7687C124.189 18.4956 124.244 18.224 124.359 17.9762C124.474 17.7285 124.646 17.5118 124.862 17.3442C125.367 16.9704 125.985 16.7823 126.612 16.8116Z" fill="white"/>
<path d="M134.924 16.9083C135.517 16.883 136.098 17.089 136.543 17.4832C136.737 17.6773 136.891 17.9078 136.997 18.1617C137.102 18.4156 137.156 18.6878 137.156 18.9627C137.156 19.2377 137.102 19.5099 136.997 19.7638C136.891 20.0177 136.737 20.2482 136.543 20.4422C136.083 20.8484 135.486 21.0632 134.873 21.0425H133.553V24.0015H132.187V16.9083H134.924ZM134.586 19.9603C134.888 19.9768 135.186 19.8871 135.43 19.7067C135.535 19.615 135.617 19.5 135.671 19.371C135.724 19.2419 135.747 19.1022 135.737 18.9627C135.737 18.3075 135.316 17.9778 134.472 17.9778H133.536V19.9603H134.586Z" fill="white"/>
<path d="M143.965 16.8169C144.653 16.8061 145.333 16.9628 145.947 17.2735C146.528 17.5703 147.015 18.0242 147.352 18.5839C147.609 19.0015 147.778 19.4676 147.848 19.9533C147.918 20.439 147.888 20.934 147.76 21.4076C147.631 21.8812 147.407 22.3232 147.101 22.7064C146.795 23.0896 146.414 23.4058 145.981 23.6353C145.359 23.9467 144.673 24.1089 143.978 24.1089C143.283 24.1089 142.597 23.9467 141.975 23.6353C141.395 23.3377 140.91 22.8843 140.573 22.3258C140.237 21.7673 140.062 21.1259 140.069 20.4734C140.068 19.8264 140.242 19.1913 140.57 18.6346C140.901 18.0696 141.381 17.6073 141.958 17.2988C142.577 16.974 143.267 16.8084 143.965 16.8169ZM141.464 20.465C141.459 20.9085 141.569 21.3457 141.785 21.7331C141.992 22.1029 142.301 22.4052 142.675 22.6039C143.072 22.8159 143.516 22.9236 143.965 22.9167C144.295 22.9287 144.624 22.8738 144.932 22.7554C145.24 22.637 145.521 22.4575 145.758 22.2277C145.991 21.9985 146.175 21.7229 146.296 21.4187C146.417 21.1144 146.474 20.7882 146.462 20.4607C146.467 20.0178 146.358 19.581 146.146 19.1926C145.938 18.8205 145.628 18.5166 145.252 18.3176C144.85 18.112 144.406 18.0048 143.955 18.0048C143.504 18.0048 143.059 18.112 142.658 18.3176C142.285 18.5181 141.978 18.8218 141.772 19.1926C141.563 19.5834 141.457 20.0214 141.464 20.465Z" fill="white"/>
<path d="M153.787 16.9088C154.38 16.8814 154.962 17.0791 155.415 17.4625C155.621 17.6403 155.784 17.8621 155.893 18.1116C156.002 18.3611 156.053 18.6319 156.044 18.904C156.054 19.2804 155.944 19.6503 155.732 19.9608C155.498 20.2816 155.178 20.5282 154.808 20.6709C155.039 20.7968 155.244 20.9661 155.411 21.1697C155.662 21.5018 155.881 21.8571 156.065 22.2307C156.498 23.0931 156.82 23.6877 157.031 24.0146H155.504C155.35 23.7729 155.209 23.5231 155.082 23.2664C154.82 22.742 154.531 22.2313 154.218 21.7362C154.078 21.5186 153.9 21.3293 153.69 21.1782C153.517 21.067 153.314 21.0096 153.108 21.0133H152.611V24.0019H151.24V16.9088H153.787ZM153.48 19.9396C153.784 19.9542 154.084 19.8582 154.323 19.6691C154.425 19.576 154.506 19.4615 154.559 19.3336C154.613 19.2058 154.637 19.0677 154.631 18.9293C154.643 18.7922 154.621 18.6542 154.567 18.5275C154.513 18.4008 154.43 18.2892 154.323 18.2023C154.076 18.0309 153.78 17.9462 153.48 17.9613H152.636V19.9396H153.48Z" fill="white"/>
<path d="M165.377 16.9062V17.9757H162.846V23.9994H161.476V17.9757H158.945V16.9062H165.377Z" fill="white"/>
<path d="M170.442 16.812C171.14 16.814 171.826 16.9929 172.436 17.3319V18.5494C171.857 18.1562 171.182 17.927 170.484 17.8857C170.2 17.8703 169.918 17.9395 169.674 18.0844C169.584 18.1412 169.509 18.2204 169.458 18.3145C169.407 18.4085 169.381 18.5142 169.383 18.6212C169.383 18.8918 169.564 19.1369 169.923 19.3652C170.028 19.4328 170.416 19.6231 171.095 19.9359C171.582 20.137 172.016 20.4497 172.36 20.8489C172.621 21.1984 172.756 21.6259 172.744 22.0621C172.754 22.342 172.699 22.6203 172.585 22.8759C172.471 23.1315 172.301 23.3577 172.086 23.5374C171.61 23.9231 171.011 24.1229 170.399 24.0996C170.004 24.1065 169.609 24.0567 169.227 23.9516C168.843 23.8223 168.475 23.6493 168.131 23.4359V22.0832C168.713 22.6383 169.471 22.9718 170.273 23.0259C170.559 23.0391 170.841 22.9638 171.083 22.8103C171.179 22.7472 171.259 22.6606 171.313 22.5587C171.368 22.4567 171.396 22.3426 171.395 22.227C171.388 22.0561 171.334 21.8904 171.239 21.7486C171.143 21.6067 171.01 21.4943 170.855 21.4238C170.557 21.2632 170.173 21.0687 169.704 20.8405C169.219 20.6454 168.786 20.34 168.438 19.9485C168.163 19.6179 168.013 19.2 168.017 18.7692C168.007 18.4958 168.062 18.224 168.178 17.9763C168.294 17.7286 168.467 17.5121 168.683 17.3446C169.19 16.9687 169.812 16.7805 170.442 16.812Z" fill="white"/>
<path d="M119.581 32.8086V33.8823H116.629V35.7169H119.581V36.799H116.629V39.9144H115.259V32.8086H119.581Z" fill="white"/>
<path d="M124.305 32.8086V39.9144H122.938V32.8086H124.305Z" fill="white"/>
<path d="M129.18 32.8086L133.397 37.767V32.8086H134.738V39.9144H133.562L129.324 34.8714V39.9144H127.982V32.8086H129.18Z" fill="white"/>
<path d="M141.964 32.8086L145.094 39.9144H143.647L142.913 38.1855H139.763L139.075 39.9144H137.642L140.564 32.8086H141.964ZM140.176 37.1414H142.466L141.268 34.3304L140.176 37.1414Z" fill="white"/>
<path d="M149.205 32.8086L153.422 37.767V32.8086H154.763V39.9144H153.574L149.357 34.8714V39.9144H148.016V32.8086H149.205Z" fill="white"/>
<path d="M162.111 32.7192C162.509 32.7187 162.905 32.7655 163.292 32.8587C163.731 32.9639 164.155 33.12 164.557 33.3237V34.6172C164.175 34.3914 163.769 34.2085 163.347 34.0719C162.971 33.9593 162.58 33.9023 162.187 33.9028C161.715 33.8963 161.248 34.0036 160.825 34.2156C160.432 34.4146 160.103 34.7209 159.876 35.0991C159.657 35.4855 159.541 35.9225 159.541 36.3672C159.541 36.812 159.657 37.249 159.876 37.6354C160.099 38.0126 160.427 38.3156 160.821 38.5062C161.245 38.7174 161.714 38.8233 162.187 38.8148C162.566 38.8174 162.943 38.7603 163.305 38.6457C163.768 38.4851 164.215 38.2828 164.642 38.0412V39.3347C164.24 39.5515 163.816 39.723 163.377 39.8462C162.935 39.9541 162.481 40.0052 162.027 39.9984C161.332 40.0109 160.644 39.8573 160.02 39.5503C159.443 39.2633 158.961 38.8157 158.632 38.261C158.299 37.7046 158.125 37.0669 158.13 36.418C158.121 35.7395 158.3 35.0719 158.649 34.4904C158.991 33.9247 159.487 33.4686 160.079 33.1758C160.711 32.8654 161.407 32.709 162.111 32.7192Z" fill="white"/>
<path d="M172.589 32.8086V33.8823H169.379V35.7465H172.454V36.8202H169.379V38.8407H172.66V39.9144H168.021V32.8086H172.589Z" fill="white"/>
<path d="M104.218 39.8916L125.242 0H123.525L102.502 39.8916H104.218Z" fill="white"/>
<path d="M130.8 62.328H125.232L124.08 65H122L127.152 53.608H128.832L134 65H131.936L130.8 62.328ZM130.112 60.728L128.016 55.848L125.92 60.728H130.112ZM142.816 53.224V65H140.848V63.704C140.603 64.152 140.251 64.504 139.792 64.76C139.333 65.0053 138.811 65.128 138.224 65.128C137.531 65.128 136.912 64.952 136.368 64.6C135.824 64.248 135.397 63.752 135.088 63.112C134.789 62.4613 134.64 61.72 134.64 60.888C134.64 60.056 134.789 59.3253 135.088 58.696C135.387 58.0667 135.808 57.5813 136.352 57.24C136.896 56.888 137.52 56.712 138.224 56.712C138.8 56.712 139.312 56.8347 139.76 57.08C140.219 57.3147 140.571 57.6507 140.816 58.088V53.224H142.816ZM138.752 63.56C139.413 63.56 139.925 63.3307 140.288 62.872C140.661 62.4133 140.848 61.7627 140.848 60.92C140.848 60.0773 140.667 59.4267 140.304 58.968C139.941 58.5093 139.429 58.28 138.768 58.28C138.096 58.28 137.573 58.5093 137.2 58.968C136.837 59.416 136.656 60.056 136.656 60.888C136.656 61.7307 136.837 62.3867 137.2 62.856C137.573 63.3253 138.091 63.56 138.752 63.56ZM154.53 56.712C155.448 56.712 156.13 56.9893 156.578 57.544C157.026 58.088 157.25 58.92 157.25 60.04V65H155.25V60.104C155.25 59.464 155.144 59.0053 154.93 58.728C154.728 58.44 154.386 58.296 153.906 58.296C153.352 58.296 152.914 58.4933 152.594 58.888C152.285 59.272 152.13 59.8053 152.13 60.488V65H150.13V60.104C150.13 59.4747 150.018 59.016 149.794 58.728C149.581 58.44 149.24 58.296 148.77 58.296C148.216 58.296 147.778 58.4933 147.458 58.888C147.138 59.272 146.978 59.8053 146.978 60.488V65H144.994V59.208C144.994 58.3547 144.952 57.592 144.866 56.92H146.738L146.882 58.2C147.117 57.72 147.453 57.352 147.89 57.096C148.338 56.84 148.85 56.712 149.426 56.712C150.664 56.712 151.469 57.224 151.842 58.248C152.098 57.768 152.461 57.3947 152.93 57.128C153.41 56.8507 153.944 56.712 154.53 56.712ZM159.385 56.92H161.369V65H159.385V56.92ZM161.481 53.256V55.224H159.257V53.256H161.481ZM168.181 56.712C170.111 56.712 171.077 57.8213 171.077 60.04V65H169.077V60.136C169.077 59.496 168.954 59.032 168.709 58.744C168.463 58.4453 168.085 58.296 167.573 58.296C166.965 58.296 166.474 58.4933 166.101 58.888C165.727 59.272 165.541 59.784 165.541 60.424V65H163.557V59.208C163.557 58.3547 163.514 57.592 163.429 56.92H165.301L165.445 58.248C165.722 57.7573 166.095 57.3787 166.565 57.112C167.045 56.8453 167.583 56.712 168.181 56.712Z" fill="white"/>
</svg>
