<svg width="12" height="10" viewBox="0 0 12 10" fill="none" xmlns="http://www.w3.org/2000/svg">
<path d="M10.5652 1.73913H9.31304L8.62174 0.652174C8.36087 0.244565 7.90435 0 7.43478 0H4.56522C4.09565 0 3.63913 0.244565 3.37826 0.652174L2.68696 1.73913H1.43478C0.63913 1.73913 0 2.40489 0 3.2337V8.50543C0 9.33424 0.63913 10 1.43478 10H10.5652C11.3609 10 12 9.33424 12 8.50543V3.2337C12 2.40489 11.3609 1.73913 10.5652 1.73913ZM6 8.77717C4.21304 8.77717 2.76522 7.26902 2.76522 5.40761C2.76522 3.5462 4.21304 2.05163 6 2.05163C7.78696 2.05163 9.23478 3.55978 9.23478 5.4212C9.23478 7.26902 7.78696 8.77717 6 8.77717ZM10.3826 3.84511C10.3696 3.84511 10.3565 3.84511 10.3304 3.84511H9.80869C9.57391 3.83152 9.3913 3.62772 9.40435 3.38315C9.41739 3.15217 9.58696 2.97554 9.80869 2.96196H10.3304C10.5652 2.94837 10.7609 3.13859 10.7739 3.38315C10.787 3.62772 10.6174 3.83152 10.3826 3.84511Z" fill="#0B61C4"/>
<path d="M5.99922 3.54688C5.00791 3.54688 4.19922 4.38927 4.19922 5.42188C4.19922 6.45448 5.00791 7.28329 5.99922 7.28329C6.99052 7.28329 7.79922 6.4409 7.79922 5.40829C7.79922 4.37568 6.99052 3.54688 5.99922 3.54688Z" fill="#0B61C4"/>
</svg>
