<svg width="22" height="20" viewBox="0 0 22 20" fill="none" xmlns="http://www.w3.org/2000/svg">
<path d="M7.10286 8.91675H5.01953C4.67453 8.91675 4.39453 8.63675 4.39453 8.29175C4.39453 7.94675 4.67453 7.66675 5.01953 7.66675H7.10286C7.44786 7.66675 7.72786 7.94675 7.72786 8.29175C7.72786 8.63675 7.44786 8.91675 7.10286 8.91675Z" fill="white" stroke="#0B61C4" stroke-width="0.2"/>
<path d="M17.1025 8.91675H10.8525C10.5075 8.91675 10.2275 8.63675 10.2275 8.29175C10.2275 7.94675 10.5075 7.66675 10.8525 7.66675H17.1025C17.4475 7.66675 17.7275 7.94675 17.7275 8.29175C17.7275 8.63675 17.4475 8.91675 17.1025 8.91675Z" fill="white" stroke="#0B61C4" stroke-width="0.2"/>
<path d="M7.10286 12.25H5.01953C4.67453 12.25 4.39453 11.97 4.39453 11.625C4.39453 11.28 4.67453 11 5.01953 11H7.10286C7.44786 11 7.72786 11.28 7.72786 11.625C7.72786 11.97 7.44786 12.25 7.10286 12.25Z" fill="white" stroke="#0B61C4" stroke-width="0.2"/>
<path d="M17.1025 12.25H10.8525C10.5075 12.25 10.2275 11.97 10.2275 11.625C10.2275 11.28 10.5075 11 10.8525 11H17.1025C17.4475 11 17.7275 11.28 17.7275 11.625C17.7275 11.97 17.4475 12.25 17.1025 12.25Z" fill="white" stroke="#0B61C4" stroke-width="0.2"/>
<path d="M7.10286 15.5833H5.01953C4.67453 15.5833 4.39453 15.3033 4.39453 14.9583C4.39453 14.6133 4.67453 14.3333 5.01953 14.3333H7.10286C7.44786 14.3333 7.72786 14.6133 7.72786 14.9583C7.72786 15.3033 7.44786 15.5833 7.10286 15.5833Z" fill="white" stroke="#0B61C4" stroke-width="0.2"/>
<path d="M17.1025 15.5833H10.8525C10.5075 15.5833 10.2275 15.3033 10.2275 14.9583C10.2275 14.6133 10.5075 14.3333 10.8525 14.3333H17.1025C17.4475 14.3333 17.7275 14.6133 17.7275 14.9583C17.7275 15.3033 17.4475 15.5833 17.1025 15.5833Z" fill="white" stroke="#0B61C4" stroke-width="0.2"/>
<path fill-rule="evenodd" clip-rule="evenodd" d="M3.29167 19.3333H18.7083C19.9725 19.3333 21 18.3058 21 17.0417V4.54199V3.29167C21 2.0275 19.9725 1 18.7083 1H3.29167C2.0275 1 1 2.0275 1 3.29167V4.54199V17.0417C1 18.3058 2.0275 19.3333 3.29167 19.3333ZM2.25 3.91699V3.29167C2.25 2.7175 2.7175 2.25 3.29167 2.25H18.7083C19.2825 2.25 19.75 2.7175 19.75 3.29167V3.91699H2.25ZM2.25 5.16699H19.75V17.0417C19.75 17.6158 19.2825 18.0833 18.7083 18.0833H3.29167C2.7175 18.0833 2.25 17.6158 2.25 17.0417V5.16699Z" fill="white"/>
<path d="M2.25 3.91699H2.15V4.01699H2.25V3.91699ZM19.75 3.91699V4.01699H19.85V3.91699H19.75ZM19.75 5.16699H19.85V5.06699H19.75V5.16699ZM2.25 5.16699V5.06699H2.15V5.16699H2.25ZM18.7083 19.2333H3.29167V19.4333H18.7083V19.2333ZM20.9 17.0417C20.9 18.2506 19.9173 19.2333 18.7083 19.2333V19.4333C20.0277 19.4333 21.1 18.3611 21.1 17.0417H20.9ZM20.9 4.54199V17.0417H21.1V4.54199H20.9ZM20.9 3.29167V4.54199H21.1V3.29167H20.9ZM18.7083 1.1C19.9173 1.1 20.9 2.08273 20.9 3.29167H21.1C21.1 1.97227 20.0277 0.9 18.7083 0.9V1.1ZM3.29167 1.1H18.7083V0.9H3.29167V1.1ZM1.1 3.29167C1.1 2.08273 2.08273 1.1 3.29167 1.1V0.9C1.97227 0.9 0.9 1.97227 0.9 3.29167H1.1ZM1.1 4.54199V3.29167H0.9V4.54199H1.1ZM1.1 17.0417V4.54199H0.9V17.0417H1.1ZM3.29167 19.2333C2.08273 19.2333 1.1 18.2506 1.1 17.0417H0.9C0.9 18.3611 1.97227 19.4333 3.29167 19.4333V19.2333ZM2.15 3.29167V3.91699H2.35V3.29167H2.15ZM3.29167 2.15C2.66227 2.15 2.15 2.66227 2.15 3.29167H2.35C2.35 2.77273 2.77273 2.35 3.29167 2.35V2.15ZM18.7083 2.15H3.29167V2.35H18.7083V2.15ZM19.85 3.29167C19.85 2.66227 19.3377 2.15 18.7083 2.15V2.35C19.2273 2.35 19.65 2.77273 19.65 3.29167H19.85ZM19.85 3.91699V3.29167H19.65V3.91699H19.85ZM2.25 4.01699H19.75V3.81699H2.25V4.01699ZM19.75 5.06699H2.25V5.26699H19.75V5.06699ZM19.85 17.0417V5.16699H19.65V17.0417H19.85ZM18.7083 18.1833C19.3377 18.1833 19.85 17.6711 19.85 17.0417H19.65C19.65 17.5606 19.2273 17.9833 18.7083 17.9833V18.1833ZM3.29167 18.1833H18.7083V17.9833H3.29167V18.1833ZM2.15 17.0417C2.15 17.6711 2.66227 18.1833 3.29167 18.1833V17.9833C2.77273 17.9833 2.35 17.5606 2.35 17.0417H2.15ZM2.15 5.16699V17.0417H2.35V5.16699H2.15Z" fill="#0B61C4"/>
</svg>
