<svg width="16" height="16" viewBox="0 0 16 16" fill="none" xmlns="http://www.w3.org/2000/svg">
<path d="M15.4017 3C15.8225 3 16.1144 2.59871 15.9565 2.23073C15.3962 0.924188 14.0371 0 12.4532 0C10.4069 0 6.87168 0 3.54677 0C1.96293 0 0.603814 0.924188 0.0434618 2.23073C-0.11435 2.59871 0.177456 3 0.598327 3H15.4017Z" fill="#EB5757"/>
<path d="M2.2368 14.5038C2.30316 15.3429 3.08713 16.0001 4.02151 16.0001H11.9785C12.9129 16.0001 13.6969 15.3429 13.7632 14.5038L14.5991 3.9375H1.40094L2.2368 14.5038ZM9.63099 6.81002C9.64746 6.51386 9.92797 6.28546 10.2564 6.3006C10.5854 6.31541 10.8388 6.56751 10.8223 6.86364L10.5042 12.5907C10.4883 12.8777 10.2247 13.1008 9.90904 13.1008C9.56563 13.1008 9.29593 12.8423 9.31287 12.5371L9.63099 6.81002ZM5.74364 6.3006C6.07218 6.28574 6.35266 6.51389 6.36908 6.81002L6.68717 12.5371C6.70411 12.8424 6.43421 13.1008 6.09099 13.1008C5.77529 13.1008 5.51175 12.8777 5.49581 12.5907L5.17772 6.86364C5.1613 6.56751 5.41466 6.31541 5.74364 6.3006Z" fill="#EB5757"/>
</svg>
