<svg width="120" height="120" viewBox="0 0 120 120" fill="none" xmlns="http://www.w3.org/2000/svg">
<rect width="120" height="120" rx="60" fill="#72B1F0"/>
<path d="M68.2096 89H36.2273C34.9962 89 34 88.0501 34 86.8761V27.1239C34 25.9499 34.9962 25 36.2273 25H76.7824C81 25 83 28.1388 83 30.6388V69.885C83 71.0589 82.0038 72.0089 80.7727 72.0089C74.6304 72.0089 69.6364 76.773 69.6364 82.6283C69.6364 83.8769 69.8539 85.0467 70.2845 86.1087C70.8535 87.5094 69.7639 89 68.2096 89Z" fill="white"/>
<path d="M78 97C86.2843 97 93 90.2843 93 82C93 73.7157 86.2843 67 78 67C69.7157 67 63 73.7157 63 82C63 90.2843 69.7157 97 78 97Z" fill="#FFB95A"/>
<path d="M69.0581 85.4146C68.2738 86.7479 69.2352 88.4286 70.782 88.4286H85.2169C86.7637 88.4286 87.725 86.7479 86.9408 85.4146L79.7233 73.1449C78.95 71.8303 77.0489 71.8303 76.2756 73.1449L69.0581 85.4146ZM78.9735 85.6655C78.9735 86.1949 78.5443 86.6241 78.0148 86.6241H77.9841C77.4546 86.6241 77.0254 86.1949 77.0254 85.6655C77.0254 85.136 77.4546 84.7068 77.9841 84.7068H78.0148C78.5443 84.7068 78.9735 85.136 78.9735 85.6655ZM78.9735 81.8155C78.9735 82.3535 78.5374 82.7895 77.9994 82.7895C77.4615 82.7895 77.0254 82.3535 77.0254 81.8155V76.9403C77.0254 76.4023 77.4615 75.9662 77.9994 75.9662C78.5374 75.9662 78.9735 76.4023 78.9735 76.9403V81.8155Z" fill="#FCFBFA"/>
<path d="M45 42C46.1046 42 47 41.1046 47 40C47 38.8954 46.1046 38 45 38C43.8954 38 43 38.8954 43 40C43 41.1046 43.8954 42 45 42Z" fill="url(#paint0_linear)"/>
<path d="M45 50C46.1046 50 47 49.1046 47 48C47 46.8954 46.1046 46 45 46C43.8954 46 43 46.8954 43 48C43 49.1046 43.8954 50 45 50Z" fill="url(#paint1_linear)"/>
<path d="M45 60C46.1046 60 47 59.1046 47 58C47 56.8954 46.1046 56 45 56C43.8954 56 43 56.8954 43 58C43 59.1046 43.8954 60 45 60Z" fill="url(#paint2_linear)"/>
<path d="M45 68C46.1046 68 47 67.1046 47 66C47 64.8954 46.1046 64 45 64C43.8954 64 43 64.8954 43 66C43 67.1046 43.8954 68 45 68Z" fill="url(#paint3_linear)"/>
<path d="M70.8 42H53.2C51.984 42 51 41.1055 51 40C51 38.8945 51.984 38 53.2 38H70.8C72.016 38 73 38.8945 73 40C73 41.1055 72.016 42 70.8 42Z" fill="#DBE7F4"/>
<path d="M70.9125 50H53.2125C51.9896 50 51 49.1055 51 48C51 46.8945 51.9896 46 53.2125 46H70.9125C72.1354 46 73.125 46.8945 73.125 48C73.125 49.1055 72.1354 50 70.9125 50Z" fill="#DBE7F4"/>
<path d="M70.8 60H53.2C51.984 60 51 59.1055 51 58C51 56.8945 51.984 56 53.2 56H70.8C72.016 56 73 56.8945 73 58C73 59.1055 72.016 60 70.8 60Z" fill="#DBE7F4"/>
<path d="M61.8333 68H53.1667C51.9691 68 51 67.1055 51 66C51 64.8945 51.9691 64 53.1667 64H61.8333C63.0309 64 64 64.8945 64 66C64 67.1055 63.0309 68 61.8333 68Z" fill="#DBE7F4"/>
<defs>
<linearGradient id="paint0_linear" x1="47.3193" y1="40.1818" x2="42.7647" y2="40.1818" gradientUnits="userSpaceOnUse">
<stop stop-color="#93BEEF"/>
<stop offset="1" stop-color="#C6E0FF"/>
</linearGradient>
<linearGradient id="paint1_linear" x1="47.3193" y1="48.1818" x2="42.7647" y2="48.1818" gradientUnits="userSpaceOnUse">
<stop stop-color="#93BEEF"/>
<stop offset="1" stop-color="#C6E0FF"/>
</linearGradient>
<linearGradient id="paint2_linear" x1="47.3193" y1="58.1818" x2="42.7647" y2="58.1818" gradientUnits="userSpaceOnUse">
<stop stop-color="#93BEEF"/>
<stop offset="1" stop-color="#C6E0FF"/>
</linearGradient>
<linearGradient id="paint3_linear" x1="47.3193" y1="66.1818" x2="42.7647" y2="66.1818" gradientUnits="userSpaceOnUse">
<stop stop-color="#93BEEF"/>
<stop offset="1" stop-color="#C6E0FF"/>
</linearGradient>
</defs>
</svg>
