<svg width="14" height="13" viewBox="0 0 14 13" fill="none" xmlns="http://www.w3.org/2000/svg">
<path d="M4.77275 3.92969H7.75295C8.01561 3.92969 8.22852 4.13893 8.22852 4.39712C8.22852 4.65529 8.01563 4.86455 7.75295 4.86455H4.77275C4.50992 4.86455 4.29718 4.65531 4.29718 4.39712C4.2972 4.13893 4.51009 3.92969 4.77275 3.92969Z" fill="#0B61C4" stroke="#0B61C4" stroke-width="0.2"/>
<path d="M3.63141 6.19141H7.75295C8.01561 6.19141 8.22852 6.40065 8.22852 6.65884C8.22852 6.91701 8.01563 7.12627 7.75295 7.12627H3.63141C3.36875 7.12627 3.15584 6.91703 3.15584 6.65884C3.15584 6.40065 3.36875 6.19141 3.63141 6.19141Z" fill="#0B61C4" stroke="#0B61C4" stroke-width="0.2"/>
<path d="M1.47557 1H9.89301C10.1557 1 10.3686 1.20924 10.3686 1.46743V5.87677H11.2087C12.1965 5.87677 13 6.66671 13 7.6374V10.2394C13 11.2102 12.1965 12 11.2087 12C11.1279 12 11.0483 11.9947 10.9705 11.9844H3.12416C1.95302 11.9844 1 11.0479 1 9.89662V1.46743C1 1.20924 1.21288 1 1.47557 1ZM10.3686 10.2394C10.3686 10.64 10.6604 10.975 11.0461 11.0496H11.2087V11.0651C11.6721 11.0651 12.0489 10.6946 12.0489 10.2394V7.6374C12.0489 7.18213 11.6719 6.81161 11.2087 6.81161H10.3685V10.2394H10.3686ZM1.95112 9.8966C1.95112 10.5216 2.48819 11.0496 3.12416 11.0496H9.6186C9.49005 10.807 9.41744 10.5313 9.41744 10.2394V1.93484H1.95112V9.8966Z" fill="#0B61C4" stroke="#0B61C4" stroke-width="0.2"/>
<path d="M4.77275 8.3125H7.75295C8.01561 8.3125 8.22852 8.52174 8.22852 8.77993C8.22852 9.0381 8.01563 9.24736 7.75295 9.24736H4.77275C4.50992 9.24736 4.29718 9.03812 4.29718 8.77993C4.2972 8.52174 4.51009 8.3125 4.77275 8.3125Z" fill="#0B61C4" stroke="#0B61C4" stroke-width="0.2"/>
</svg>
