<svg width="17" height="11" viewBox="0 0 17 11" fill="none" xmlns="http://www.w3.org/2000/svg">
<path d="M16.6622 5.23777C15.3242 2.48347 12.2817 0 8.72266 0C4.71802 0 1.83948 3.06308 0.783081 5.23777C0.702515 5.40368 0.702515 5.59632 0.783081 5.76223C2.1211 8.51653 5.16358 11 8.72266 11C12.7273 11 15.6058 7.93681 16.6622 5.76223C16.7428 5.59632 16.7428 5.40368 16.6622 5.23777ZM8.72266 9.77778C5.84327 9.77778 3.45594 7.92236 2.05554 5.5C3.45008 3.08754 5.83594 1.22222 8.72266 1.22222C11.6018 1.22222 13.9894 3.0774 15.3898 5.5C13.9953 7.91234 11.6094 9.77778 8.72266 9.77778ZM8.72266 2.44444C6.99952 2.44444 5.59766 3.81515 5.59766 5.5C5.59766 7.18485 6.99952 8.55556 8.72266 8.55556C10.4458 8.55556 11.8477 7.18485 11.8477 5.5C11.8477 3.81515 10.4458 2.44444 8.72266 2.44444V2.44444ZM8.72266 7.33333C7.68885 7.33333 6.84766 6.51084 6.84766 5.5C6.84766 4.48904 7.68885 3.66667 8.72266 3.66667C9.7566 3.66667 10.5977 4.48904 10.5977 5.5C10.5977 6.51084 9.7566 7.33333 8.72266 7.33333V7.33333Z" fill="#253242"/>
</svg>
