<svg width="20" height="21" viewBox="0 0 20 21" fill="none" xmlns="http://www.w3.org/2000/svg">
<path d="M20 10.9502C20 16.4731 15.5229 20.9502 10 20.9502C4.47708 20.9502 0 16.4731 0 10.9502C0 5.42728 4.47708 0.950195 10 0.950195C15.5229 0.950195 20 5.42728 20 10.9502Z" fill="#4289DA"/>
<path d="M13.3337 5.08413V6.94148C13.3337 6.94148 10.9985 6.63197 10.9985 8.00771V9.38346H13.1076L12.8441 11.4815H10.9985V16.9502H8.66325V11.4815L6.66699 11.4471V9.38346H8.62556V7.80133C8.62556 7.80133 8.49631 5.44771 11.0361 5.01541C12.0908 4.83581 13.3337 5.08413 13.3337 5.08413Z" fill="white"/>
</svg>
