<svg width="22" height="22" viewBox="0 0 22 22" fill="none" xmlns="http://www.w3.org/2000/svg">
<path d="M18.582 11.2951C18 10.9187 17 10.5 16.2383 10.4944C16.2346 7.82392 16.2383 2.22266 16.2383 2.22266V1.58594C16.2383 1.26234 15.9759 1 15.6523 1H5.10156C4.94613 1 4.79711 1.06172 4.68727 1.17164L1.17172 4.68715C1.0641 4.79477 1 4.94414 1 5.10156V20.4141C1 20.7377 1.26234 21 1.58594 21H15.6855C18.705 21 21 18.579 21 15.7266C21 13.8703 20.0358 12.235 18.582 11.2951ZM4.51953 2.9966V4.51562H3.00051L4.51953 2.9966ZM2.17188 19.8281V5.6875H5.10547C5.42906 5.6875 5.69141 5.42516 5.69141 5.10156V2.17188H15.0664V10.4944C13.5336 10.6866 12.2035 11.5394 11.3705 12.7578H3.93359C3.61 12.7578 3.34766 13.0202 3.34766 13.3438C3.34766 13.6673 3.61 13.9297 3.93359 13.9297H10.7686C10.633 14.3026 10.5386 14.6951 10.4904 15.1016H3.93359C3.61 15.1016 3.34766 15.3639 3.34766 15.6875C3.34766 16.0111 3.61 16.2734 3.93359 16.2734H10.4814C10.6213 17.6243 11.3631 18.9765 12.4161 19.8281H2.17188ZM15.7266 19.8281C13.465 19.8281 11.625 17.9882 11.625 15.7266C11.625 13.465 13.465 11.625 15.7266 11.625C17.9882 11.625 19.8281 13.465 19.8281 15.7266C19.8281 17.9882 17.9882 19.8281 15.7266 19.8281Z" fill="white" stroke="#0B61C4" stroke-width="0.2"/>
<path d="M16.7038 15.3832C16.2146 15.0019 15.5655 14.9246 15.4416 14.701C15.4119 14.6473 15.4459 14.5355 15.5327 14.4771C15.6618 14.3904 15.9589 14.4263 16.0552 14.5153C16.2931 14.7346 16.6638 14.7197 16.8832 14.4818C17.1026 14.2439 17.0876 13.8733 16.8498 13.6539C16.6942 13.5104 16.4999 13.4049 16.289 13.339C16.2839 13.0198 16.0239 12.7626 15.7036 12.7626C15.38 12.7626 15.1176 13.0249 15.1176 13.3485V13.378C14.369 13.6861 14.0386 14.5868 14.4165 15.2689C14.6819 15.748 15.139 15.9285 15.5063 16.0736C15.7489 16.1694 16.1554 16.3142 16.1264 16.5736C16.1128 16.6954 16.0154 16.8219 15.8895 16.8811C15.6952 16.9725 15.2999 16.9129 15.0601 16.756C14.7893 16.5789 14.4262 16.6548 14.249 16.9256C14.0718 17.1964 14.1477 17.5596 14.4186 17.7368C14.6116 17.8631 14.8552 17.9665 15.1176 18.029V18.0389C15.1176 18.3625 15.38 18.6249 15.7036 18.6249C16.0272 18.6249 16.2895 18.3625 16.2895 18.0389V17.9832C17.3591 17.5729 17.7059 16.164 16.7038 15.3832Z" fill="white" stroke="#0B61C4" stroke-width="0.2"/>
<path d="M5.14258 11.002H12.1699C12.4935 11.002 12.7559 10.7396 12.7559 10.416C12.7559 7.2984 12.7558 11.2137 12.7559 8.06836C12.7559 7.74477 12.4935 7.48242 12.1699 7.48242H10.4121V5.72656C10.4121 5.40297 10.1498 5.14062 9.82617 5.14062H7.48633C7.16273 5.14062 6.90039 5.40297 6.90039 5.72656V6.89988C6.78703 6.8998 5.03035 6.89832 5.14258 6.89844C4.81934 6.89844 4.55664 7.16062 4.55664 7.48438V10.416C4.55664 10.7396 4.81898 11.002 5.14258 11.002ZM11.584 8.6543V9.83008H10.4121V8.6543H11.584ZM8.07227 6.3125H9.24023V9.83008H8.07227V6.3125ZM6.90039 8.07176V9.83004H5.72852V8.07078L6.90039 8.07176Z" fill="white" stroke="#0B61C4" stroke-width="0.2"/>
</svg>
