<svg width="20" height="21" viewBox="0 0 20 21" fill="none" xmlns="http://www.w3.org/2000/svg">
<circle cx="10" cy="10.9502" r="10" fill="#4289DA"/>
<path d="M10.0001 4.95598C7.54256 4.95598 5.20883 4.73753 4.31744 7.02343C3.94924 7.96754 4.00271 9.19368 4.00271 10.9494C4.00271 12.49 3.9533 13.9379 4.31744 14.8746C5.2068 17.1618 7.55948 16.9427 9.9988 16.9427C12.3522 16.9427 14.7786 17.1875 15.6808 14.8746C16.0497 13.921 15.9956 12.7131 15.9956 10.9494C15.9956 8.608 16.1248 7.09647 14.9884 5.96164C13.8378 4.81193 12.2818 4.95598 9.99744 4.95598H10.0001ZM9.46274 6.03603C14.5891 6.02791 15.2416 5.45847 14.8815 13.3692C14.7536 16.167 12.6215 15.86 10.0008 15.86C5.22237 15.86 5.08497 15.7234 5.08497 10.9466C5.08497 6.11448 5.464 6.03874 9.46274 6.03468V6.03603ZM13.2016 7.03087C12.8043 7.03087 12.4821 7.35279 12.4821 7.74977C12.4821 8.14676 12.8043 8.46868 13.2016 8.46868C13.5989 8.46868 13.9211 8.14676 13.9211 7.74977C13.9211 7.35279 13.5989 7.03087 13.2016 7.03087ZM10.0001 7.87151C8.29926 7.87151 6.92055 9.24981 6.92055 10.9494C6.92055 12.6489 8.29926 14.0265 10.0001 14.0265C11.701 14.0265 13.0791 12.6489 13.0791 10.9494C13.0791 9.24981 11.701 7.87151 10.0001 7.87151ZM10.0001 8.95156C12.6432 8.95156 12.6466 12.9471 10.0001 12.9471C7.35778 12.9471 7.35372 8.95156 10.0001 8.95156Z" fill="white" stroke="white" stroke-width="0.2"/>
</svg>
