<svg width="140" height="44" viewBox="0 0 140 44" fill="none" xmlns="http://www.w3.org/2000/svg">
<path d="M0.164852 27.4579V23.3102H13.5591C14.5482 23.2687 15.3312 22.8539 15.867 22.1073C16.4028 21.3607 16.6912 20.4897 16.6912 19.5357C16.6912 18.4988 16.3203 17.6278 15.6197 16.9227C14.8779 16.2176 14.0124 15.8443 12.9821 15.8443H7.78925C6.6765 15.8028 5.68739 15.5539 4.73949 15.1392C3.79159 14.7244 2.96733 14.1852 2.26671 13.4386C1.56609 12.7335 1.03032 11.9039 0.618194 10.95C0.206065 9.99599 0 9.00054 0 7.92213C0 6.84373 0.206065 5.8068 0.618194 4.85283C1.03032 3.89885 1.60731 3.02783 2.30793 2.32272C3.00855 1.61761 3.8328 1.03693 4.82192 0.622157C5.76981 0.207386 6.75892 0 7.87167 0H17.2682V4.18919H7.87167C6.88256 4.27215 6.01709 4.64544 5.27526 5.35055C4.53342 6.05566 4.20372 6.92668 4.20372 7.96361C4.20372 9.00054 4.57464 9.87156 5.27526 10.6181C5.97588 11.3647 6.88256 11.6966 7.91289 11.6966H13.1881C14.2597 11.6966 15.29 11.9039 16.2379 12.3187C17.1858 12.7335 18.0101 13.3142 18.7519 14.0608C19.4525 14.8073 20.0295 15.6369 20.4416 16.5909C20.8538 17.5448 21.0598 18.5403 21.0598 19.6187C21.0598 20.7386 20.8538 21.734 20.4828 22.6465C20.1119 23.559 19.5349 24.43 18.7519 25.2181C17.9276 25.9647 17.1034 26.5454 16.1967 26.9601C15.29 27.3334 14.3009 27.5408 13.1881 27.5408H0.164852V27.4579Z" fill="#020203"/>
<path d="M40.9245 9.24934C43.0264 11.3647 44.0979 13.8948 44.0979 16.8397C44.0979 19.826 43.0264 22.3146 40.9245 24.3885C38.8227 26.4624 36.2675 27.4993 33.3413 27.4993C30.9922 27.4993 28.9316 26.8356 27.1182 25.4669V32.8913H22.626V16.7982C22.626 13.8948 23.6975 11.3647 25.7994 9.20786C27.9012 7.13401 30.4152 6.09708 33.3413 6.09708C36.2675 6.13855 38.7815 7.17548 40.9245 9.24934ZM37.7923 21.3607C38.9875 20.1163 39.6057 18.6232 39.6057 16.8397C39.6057 15.0976 38.9875 13.563 37.7923 12.3186C36.5972 11.0329 35.1135 10.4107 33.3413 10.4107C31.5692 10.4107 30.0855 11.0329 28.9316 12.3186C27.7364 13.6044 27.1182 15.0976 27.1182 16.8397C27.1182 18.6232 27.7364 20.1163 28.9316 21.3607C30.1267 22.605 31.6104 23.2271 33.3413 23.2271C35.1135 23.2271 36.5972 22.605 37.7923 21.3607Z" fill="#020203"/>
<path d="M63.8386 9.24943C65.9404 11.3648 67.012 13.8949 67.012 16.8397C67.012 19.8261 65.9404 22.3147 63.8386 24.3886C61.7367 26.4624 59.1815 27.4994 56.2554 27.4994C53.3705 27.4994 50.8153 26.4624 48.6722 24.3886C46.5704 22.3562 45.54 19.8261 45.54 16.8397C45.54 13.8949 46.5704 11.3648 48.6722 9.24943C50.8153 7.17557 53.3293 6.13864 56.2554 6.13864C59.2227 6.13864 61.7367 7.17557 63.8386 9.24943ZM60.7476 21.3608C61.9428 20.1164 62.561 18.6233 62.561 16.8397C62.561 15.0977 61.9428 13.563 60.7476 12.3187C59.5112 11.0329 58.0276 10.4108 56.2966 10.4108C54.5245 10.4108 53.0408 11.0329 51.8868 12.3187C50.6917 13.6045 50.0735 15.0977 50.0735 16.8397C50.0735 18.6233 50.6917 20.1164 51.8868 21.3608C53.082 22.6051 54.5657 23.2272 56.2966 23.2272C58.0276 23.2272 59.5112 22.6051 60.7476 21.3608Z" fill="#020203"/>
<path d="M74.8835 12.2357C73.6883 13.5215 73.0701 15.0147 73.0701 16.7152V27.4578H68.6191V16.7152C68.6191 13.8118 69.6907 11.2817 71.7925 9.16639C73.8532 7.13401 76.3672 6.09708 79.3757 6.09708H82.2606V10.3277H79.3757C77.5624 10.3277 76.0787 10.9499 74.8835 12.2357Z" fill="#020203"/>
<path d="M97.3872 23.2273V27.4994H94.7908C91.8646 27.4994 89.3507 26.4625 87.2076 24.3886C85.1057 22.3562 84.0342 19.8261 84.0342 16.8398V0.663696H88.4852V6.05572H95.3677V10.3279H88.4852V16.8398C88.4852 17.7108 88.6912 18.5818 89.0622 19.3284C89.4331 20.1165 89.9276 20.7801 90.5458 21.4023C91.164 22.0244 91.8234 22.4807 92.4828 22.7295C93.1422 23.0199 93.9253 23.1443 94.832 23.2273H97.3872Z" fill="#020203"/>
<path d="M109.298 14.6829C110.163 14.6829 111.029 14.8488 111.771 15.2221C112.554 15.554 113.213 16.0517 113.749 16.6324C114.326 17.213 114.779 17.8767 115.109 18.6647C115.438 19.4528 115.603 20.2409 115.603 21.1119C115.603 21.9829 115.438 22.8539 115.109 23.6005C114.779 24.3886 114.326 25.0522 113.749 25.6329C113.172 26.2136 112.512 26.6698 111.771 27.0016C110.987 27.3335 110.163 27.4994 109.298 27.4994H109.174H99.2418V23.2687H109.421C109.998 23.2272 110.452 22.9784 110.864 22.5636C111.235 22.1488 111.441 21.6511 111.441 21.0704C111.441 20.4897 111.235 19.9505 110.823 19.5358C110.411 19.121 109.916 18.9136 109.298 18.9136H105.341C104.476 18.8721 103.652 18.7062 102.91 18.3744C102.127 18.0426 101.467 17.5863 100.932 17.0057C100.355 16.425 99.9424 15.7613 99.6127 14.9733C99.283 14.1852 99.1182 13.3971 99.1182 12.5261C99.1182 11.6551 99.283 10.7841 99.6127 10.0375C99.9424 9.24943 100.396 8.58579 100.973 8.00511C101.55 7.42443 102.209 6.96818 102.951 6.63637C103.734 6.30455 104.558 6.13864 105.424 6.13864H113.666V10.3693H105.547H105.424C104.847 10.4108 104.311 10.6182 103.899 11.0329C103.487 11.4477 103.281 11.9454 103.281 12.5676C103.281 13.1483 103.487 13.6875 103.899 14.1023C104.311 14.517 104.806 14.7244 105.424 14.7244H105.547H109.215H109.298V14.6829Z" fill="#020203"/>
<path d="M117.334 27.4579V10.5767C117.334 9.12497 117.622 7.75622 118.158 6.47043C118.694 5.18464 119.477 4.06476 120.425 3.11078C121.373 2.15681 122.486 1.41022 123.763 0.871016C125.041 0.331813 126.401 0.0414734 127.802 0.0414734H132.871V4.47953H127.72C126.895 4.47953 126.112 4.64544 125.371 4.97725C124.629 5.30907 124.01 5.72384 123.475 6.26304C122.939 6.80225 122.486 7.4244 122.197 8.17099C121.909 8.91758 121.744 9.66417 121.744 10.5352V12.1113H132.871V16.6323H121.785V27.4164H117.334V27.4579Z" fill="#3A9EBA"/>
<path d="M139.67 27.4579V12.1528H134.725V27.4579H139.67Z" fill="#3A9EBA"/>
<path d="M137.197 10.9915C138.745 10.9915 139.999 9.72872 139.999 8.17103C139.999 6.61334 138.745 5.35059 137.197 5.35059C135.649 5.35059 134.395 6.61334 134.395 8.17103C134.395 9.72872 135.649 10.9915 137.197 10.9915Z" fill="#3A9EBA"/>
<path d="M25.4697 37.5369H24.3157V39.4448C24.3157 39.5692 24.3157 39.6937 24.3157 39.7766C24.3157 39.9011 24.3569 39.984 24.3981 40.067C24.4393 40.1499 24.4806 40.2329 24.563 40.2743C24.6454 40.3158 24.7691 40.3573 24.8927 40.3573C24.9751 40.3573 25.0988 40.3573 25.1812 40.3158C25.2636 40.3158 25.3872 40.2743 25.4697 40.2329V40.9795C25.3872 41.0209 25.2636 41.0624 25.0988 41.1039C24.9339 41.1039 24.8515 41.1454 24.7691 41.1454C24.4806 41.1454 24.2333 41.1039 24.0684 41.0209C23.9036 40.938 23.7799 40.8135 23.6975 40.6891C23.6151 40.5647 23.5739 40.3988 23.5739 40.2329C23.5739 40.067 23.5327 39.9011 23.5327 39.7351V37.5369H22.626V36.8317H23.5327V35.6704H24.3157V36.8317H25.4697V37.5369Z" fill="#020203"/>
<path d="M26.0469 38.947C26.0469 38.6567 26.0881 38.3664 26.2117 38.076C26.3354 37.8272 26.5002 37.5783 26.6651 37.3709C26.8711 37.1635 27.1184 36.9976 27.3657 36.9147C27.6542 36.7902 27.9427 36.7487 28.2312 36.7487C28.5609 36.7487 28.8494 36.7902 29.0966 36.9147C29.3851 37.0391 29.5912 37.205 29.7973 37.3709C30.0033 37.5783 30.1682 37.7857 30.2506 38.076C30.3742 38.3249 30.4154 38.6152 30.4154 38.947C30.4154 39.2374 30.3742 39.5277 30.2506 39.8181C30.127 40.0669 29.9621 40.3158 29.7973 40.5232C29.5912 40.7306 29.3439 40.8965 29.0966 40.9794C28.8081 41.1039 28.5197 41.1453 28.2312 41.1453C27.9015 41.1453 27.613 41.1039 27.3657 40.9794C27.0772 40.855 26.8711 40.6891 26.6651 40.5232C26.459 40.3158 26.2942 40.1084 26.2117 39.8181C26.1293 39.5692 26.0469 39.2789 26.0469 38.947ZM26.9123 38.947C26.9123 39.1544 26.9536 39.3618 26.9948 39.5277C27.0772 39.6936 27.1596 39.8595 27.2833 39.984C27.4069 40.1084 27.5305 40.1914 27.6954 40.2743C27.8602 40.3573 28.0663 40.3987 28.2724 40.3987C28.4784 40.3987 28.6845 40.3573 28.8494 40.2743C29.0142 40.1914 29.1791 40.1084 29.2615 39.984C29.3851 39.8595 29.4675 39.6936 29.55 39.5277C29.6324 39.3618 29.6324 39.1544 29.6324 38.947C29.6324 38.7397 29.5912 38.5323 29.55 38.3664C29.4675 38.2004 29.3851 38.0345 29.2615 37.9101C29.1378 37.7857 29.0142 37.7027 28.8494 37.6198C28.6845 37.5368 28.4784 37.4953 28.2724 37.4953C28.0663 37.4953 27.8602 37.5368 27.6954 37.6198C27.5305 37.7027 27.3657 37.7857 27.2833 37.9101C27.1596 38.0345 27.0772 38.2004 26.9948 38.3664C26.9536 38.5323 26.9123 38.7397 26.9123 38.947Z" fill="#020203"/>
<path d="M31.1982 36.8732H31.9401V37.5368C31.9401 37.4954 32.0225 37.4124 32.0637 37.3295C32.1461 37.2465 32.2286 37.1635 32.3522 37.0806C32.4758 36.9976 32.5995 36.9147 32.7643 36.8732C32.9292 36.8317 33.094 36.7903 33.2589 36.7903C33.5886 36.7903 33.8359 36.8732 34.0419 36.9976C34.248 37.1221 34.4129 37.3295 34.5777 37.5783C34.7013 37.3295 34.9074 37.1221 35.1547 36.9976C35.402 36.8732 35.6492 36.7903 35.8965 36.7903C36.2262 36.7903 36.4735 36.8317 36.6796 36.9562C36.8856 37.0806 37.0505 37.205 37.1741 37.3709C37.2978 37.5368 37.3802 37.7442 37.4214 37.9516C37.5038 38.159 37.5038 38.3664 37.5038 38.6152V41.0624H36.7208V38.7397C36.7208 38.5738 36.7208 38.4079 36.6796 38.2834C36.6384 38.1175 36.5971 37.9931 36.5559 37.9101C36.4735 37.7857 36.3911 37.7027 36.2674 37.6198C36.1438 37.5368 35.9789 37.5368 35.8141 37.5368C35.4432 37.5368 35.1547 37.6613 34.9898 37.9101C34.825 38.159 34.7426 38.4493 34.7426 38.8226V41.0624H33.9595V38.8641C33.9595 38.6567 33.9595 38.4908 33.9183 38.3249C33.8771 38.159 33.8771 38.0346 33.7947 37.9101C33.7534 37.7857 33.6298 37.7027 33.5474 37.6198C33.4237 37.5368 33.2589 37.5368 33.094 37.5368C32.9704 37.5368 32.8056 37.5783 32.6819 37.6198C32.5583 37.6613 32.4346 37.7442 32.3522 37.8687C32.2698 37.9931 32.1874 38.1175 32.1049 38.2834C32.0637 38.4493 32.0225 38.6567 32.0225 38.9056V41.0624H31.2395V36.8732H31.1982Z" fill="#020203"/>
<path d="M38.2451 38.947C38.2451 38.6567 38.2863 38.3664 38.41 38.076C38.5336 37.8272 38.6985 37.5783 38.8633 37.3709C39.0694 37.1635 39.3167 36.9976 39.5639 36.9147C39.8524 36.7902 40.1409 36.7487 40.4294 36.7487C40.7591 36.7487 41.0476 36.7902 41.2949 36.9147C41.5834 37.0391 41.7894 37.205 41.9955 37.3709C42.2016 37.5783 42.3664 37.7857 42.4488 38.076C42.5725 38.3249 42.6137 38.6152 42.6137 38.947C42.6137 39.2374 42.5725 39.5277 42.4488 39.8181C42.3252 40.0669 42.1603 40.3158 41.9955 40.5232C41.7894 40.7306 41.5422 40.8965 41.2949 40.9794C41.0064 41.1039 40.7179 41.1453 40.4294 41.1453C40.0997 41.1453 39.8112 41.1039 39.5639 40.9794C39.2754 40.855 39.0694 40.6891 38.8633 40.5232C38.6572 40.3158 38.4924 40.1084 38.41 39.8181C38.3275 39.5692 38.2451 39.2789 38.2451 38.947ZM39.1106 38.947C39.1106 39.1544 39.1518 39.3618 39.193 39.5277C39.2754 39.6936 39.3579 39.8595 39.4815 39.984C39.6051 40.1084 39.7288 40.1914 39.8936 40.2743C40.0585 40.3573 40.2645 40.3987 40.4706 40.3987C40.6767 40.3987 40.8827 40.3573 41.0476 40.2743C41.2124 40.1914 41.3773 40.1084 41.4597 39.984C41.5834 39.8595 41.6658 39.6936 41.7482 39.5277C41.8306 39.3618 41.8306 39.1544 41.8306 38.947C41.8306 38.7397 41.7894 38.5323 41.7482 38.3664C41.6658 38.2004 41.5834 38.0345 41.4597 37.9101C41.3361 37.7857 41.2124 37.7027 41.0476 37.6198C40.8827 37.5368 40.6767 37.4953 40.4706 37.4953C40.2645 37.4953 40.0585 37.5368 39.8936 37.6198C39.7288 37.7027 39.5639 37.7857 39.4815 37.9101C39.3579 38.0345 39.2754 38.2004 39.193 38.3664C39.1518 38.5323 39.1106 38.7397 39.1106 38.947Z" fill="#020203"/>
<path d="M43.4387 36.8732H44.2217V37.5368C44.2629 37.4124 44.3454 37.3295 44.4278 37.2465C44.5102 37.1635 44.6338 37.0806 44.7163 36.9976C44.8399 36.9147 44.9635 36.8732 45.0872 36.8317C45.2108 36.7903 45.3345 36.7903 45.4581 36.7903C45.5817 36.7903 45.7054 36.7903 45.829 36.8317L45.7878 37.7028C45.7054 37.7028 45.6642 37.6613 45.5817 37.6613C45.4993 37.6613 45.4581 37.6613 45.3757 37.6613C45.0048 37.6613 44.6751 37.7857 44.469 37.9931C44.2629 38.2005 44.1805 38.5323 44.1805 39.03V41.0624H43.3975V36.8732H43.4387Z" fill="#020203"/>
<path d="M46.5305 36.8732H47.3135V37.5368C47.3547 37.4124 47.4372 37.3295 47.5196 37.2465C47.602 37.1635 47.7256 37.0806 47.8081 36.9976C47.9317 36.9147 48.0554 36.8732 48.179 36.8317C48.3026 36.7903 48.4263 36.7903 48.5499 36.7903C48.6735 36.7903 48.7972 36.7903 48.9208 36.8317L48.8796 37.7028C48.7972 37.7028 48.756 37.6613 48.6735 37.6613C48.5911 37.6613 48.5499 37.6613 48.4675 37.6613C48.0966 37.6613 47.7669 37.7857 47.5608 37.9931C47.3547 38.2005 47.2723 38.5323 47.2723 39.03V41.0624H46.4893V36.8732H46.5305Z" fill="#020203"/>
<path d="M49.208 38.947C49.208 38.6567 49.2492 38.3664 49.3729 38.076C49.4965 37.8272 49.6614 37.5783 49.8262 37.3709C50.0323 37.1635 50.2795 36.9976 50.5268 36.9147C50.8153 36.7902 51.1038 36.7487 51.3923 36.7487C51.722 36.7487 52.0105 36.7902 52.2578 36.9147C52.5463 37.0391 52.7523 37.205 52.9584 37.3709C53.1645 37.5783 53.3293 37.7857 53.4117 38.076C53.5354 38.3249 53.5766 38.6152 53.5766 38.947C53.5766 39.2374 53.5354 39.5277 53.4117 39.8181C53.2881 40.0669 53.1232 40.3158 52.9584 40.5232C52.7523 40.7306 52.505 40.8965 52.2578 40.9794C51.9693 41.1039 51.6808 41.1453 51.3923 41.1453C51.0626 41.1453 50.7741 41.1039 50.5268 40.9794C50.2383 40.855 50.0323 40.6891 49.8262 40.5232C49.6201 40.3158 49.4553 40.1084 49.3729 39.8181C49.2492 39.5692 49.208 39.2789 49.208 38.947ZM50.0323 38.947C50.0323 39.1544 50.0735 39.3618 50.1147 39.5277C50.1971 39.6936 50.2795 39.8595 50.4032 39.984C50.5268 40.1084 50.6505 40.1914 50.8153 40.2743C50.9802 40.3573 51.1862 40.3987 51.3923 40.3987C51.5984 40.3987 51.8044 40.3573 51.9693 40.2743C52.1341 40.1914 52.299 40.1084 52.3814 39.984C52.505 39.8595 52.5875 39.6936 52.6699 39.5277C52.7523 39.3618 52.7523 39.1544 52.7523 38.947C52.7523 38.7397 52.7111 38.5323 52.6699 38.3664C52.5875 38.2004 52.505 38.0345 52.3814 37.9101C52.2578 37.7857 52.1341 37.7027 51.9693 37.6198C51.8044 37.5368 51.5984 37.4953 51.3923 37.4953C51.1862 37.4953 50.9802 37.5368 50.8153 37.6198C50.6505 37.7027 50.4856 37.7857 50.4032 37.9101C50.2795 38.0345 50.1971 38.2004 50.1147 38.3664C50.0735 38.5323 50.0323 38.7397 50.0323 38.947Z" fill="#020203"/>
<path d="M53.7832 36.8732H54.6899L55.6378 40.0255L56.6269 36.8732H57.4924L58.5639 40.0255L59.4706 36.8732H60.3361L58.9348 41.0624H58.1518L57.039 37.9101L56.0499 41.0624H55.1844L53.7832 36.8732Z" fill="#020203"/>
<path d="M61.4076 36.9975H60.707L61.284 34.8822H62.1083L61.4076 36.9975Z" fill="#020203"/>
<path d="M64.0034 37.9101C63.921 37.7857 63.7974 37.7027 63.6737 37.6198C63.5501 37.5368 63.3853 37.4953 63.1792 37.4953C62.9731 37.4953 62.8083 37.5368 62.6846 37.6198C62.561 37.7027 62.4786 37.8272 62.4786 37.9516C62.4786 38.076 62.5198 38.159 62.6022 38.2419C62.6846 38.3249 62.7671 38.3664 62.8907 38.4078C63.0143 38.4493 63.0968 38.4908 63.2204 38.5323C63.344 38.5737 63.4677 38.5737 63.5501 38.5737C63.715 38.6152 63.8798 38.6567 64.0447 38.7397C64.2095 38.7811 64.3332 38.8641 64.4156 38.9885C64.5392 39.0715 64.6216 39.1959 64.6629 39.3203C64.7041 39.4448 64.7453 39.6107 64.7453 39.8181C64.7453 40.0669 64.7041 40.2743 64.5804 40.4402C64.498 40.6061 64.3332 40.7306 64.2095 40.855C64.0859 40.9794 63.8798 41.0209 63.6737 41.1038C63.4677 41.1453 63.2616 41.1868 63.0555 41.1868C62.7258 41.1868 62.3961 41.1453 62.1489 41.0209C61.9016 40.8965 61.6543 40.7306 61.4482 40.4402L62.0664 39.9425C62.1901 40.0669 62.3549 40.1914 62.4786 40.2743C62.6434 40.3573 62.8495 40.4402 63.0555 40.4402C63.138 40.4402 63.2616 40.4402 63.344 40.3987C63.4265 40.3573 63.5501 40.3573 63.6325 40.3158C63.715 40.2743 63.7562 40.2328 63.8386 40.1499C63.921 40.0669 63.921 39.984 63.921 39.901C63.921 39.7766 63.8798 39.6936 63.7974 39.6107C63.715 39.5277 63.6325 39.4862 63.5501 39.4448C63.4677 39.4033 63.344 39.3618 63.2204 39.3203C63.0968 39.2789 63.0143 39.2789 62.9319 39.2374C62.7671 39.1959 62.6022 39.1544 62.4374 39.1129C62.2725 39.0715 62.1489 38.9885 62.0252 38.9056C61.9016 38.8226 61.8192 38.6982 61.7367 38.5737C61.6543 38.4493 61.6131 38.2834 61.6131 38.076C61.6131 37.8686 61.6543 37.6612 61.7367 37.4953C61.8192 37.3294 61.9428 37.205 62.1076 37.0806C62.2725 36.9561 62.4373 36.9147 62.6022 36.8317C62.8083 36.7902 62.9731 36.7487 63.1792 36.7487C63.4677 36.7487 63.715 36.7902 64.0034 36.9147C64.2919 37.0391 64.4568 37.205 64.6216 37.4539L64.0034 37.9101Z" fill="#020203"/>
<path d="M72.9051 41.0209C72.9051 41.3527 72.8639 41.6431 72.7402 41.8919C72.6166 42.1408 72.493 42.3896 72.2869 42.5555C72.0808 42.7629 71.8336 42.8874 71.5451 43.0118C71.2566 43.1362 70.9681 43.1777 70.5972 43.1777C70.185 43.1777 69.8141 43.1362 69.4844 43.0118C69.1547 42.8874 68.825 42.7215 68.5365 42.4311L69.0723 41.7675C69.2784 41.9749 69.4844 42.1823 69.7317 42.2652C69.979 42.3896 70.2263 42.4311 70.556 42.4311C70.8444 42.4311 71.0917 42.3896 71.2978 42.3067C71.5039 42.2237 71.6275 42.0993 71.7511 41.9749C71.8748 41.8504 71.9572 41.6845 71.9984 41.5186C72.0396 41.3527 72.0808 41.1868 72.0808 40.9794V40.3573H72.0396C71.8748 40.6061 71.6687 40.8135 71.4214 40.9379C71.1742 41.0624 70.8857 41.1038 70.5972 41.1038C70.3087 41.1038 70.0202 41.0624 69.7317 40.9379C69.4844 40.8135 69.2371 40.6891 69.0723 40.4817C68.8662 40.2743 68.7426 40.0669 68.619 39.8181C68.4953 39.5692 68.4541 39.2789 68.4541 38.947C68.4541 38.6567 68.4953 38.3664 68.619 38.076C68.7014 37.8272 68.8662 37.5783 69.0311 37.3709C69.1959 37.1635 69.4432 36.9976 69.6905 36.9147C69.9378 36.7902 70.2263 36.7487 70.556 36.7487C70.8444 36.7487 71.0917 36.7902 71.3802 36.9147C71.6275 37.0391 71.8748 37.205 71.9984 37.4539V36.8317H72.7815V41.0209H72.9051ZM70.762 37.4953C70.556 37.4953 70.3499 37.5368 70.185 37.6198C70.0202 37.7027 69.8553 37.7857 69.7729 37.9101C69.6493 38.0345 69.5669 38.2004 69.4844 38.3664C69.402 38.5323 69.402 38.7397 69.402 38.947C69.402 39.3618 69.5256 39.6936 69.7729 39.984C70.0202 40.2328 70.3499 40.3573 70.762 40.3573C71.1741 40.3573 71.5039 40.2328 71.7511 39.984C71.9984 39.7351 72.122 39.4033 72.122 38.947C72.122 38.7397 72.0808 38.5323 72.0396 38.3664C71.9572 38.2004 71.8748 38.0345 71.7511 37.9101C71.6275 37.7857 71.5039 37.7027 71.339 37.6198C71.1329 37.5368 70.9681 37.4953 70.762 37.4953Z" fill="#020203"/>
<path d="M73.7715 37.3709C73.9776 37.1635 74.266 36.9976 74.5545 36.9147C74.843 36.8317 75.1315 36.7487 75.42 36.7487C75.7085 36.7487 75.997 36.7902 76.2031 36.8732C76.4091 36.9561 76.6152 37.0391 76.7388 37.1635C76.8625 37.288 76.9861 37.4539 77.0685 37.6198C77.151 37.7857 77.151 37.9516 77.151 38.159V40.3158C77.151 40.4817 77.151 40.6061 77.151 40.7306C77.151 40.855 77.151 40.9794 77.1922 41.1039H76.4915C76.4915 40.8965 76.4503 40.6891 76.4503 40.4817C76.2855 40.772 76.0794 40.9379 75.8321 41.0624C75.5849 41.1868 75.2964 41.2283 75.0079 41.2283C74.8018 41.2283 74.637 41.1868 74.4721 41.1453C74.3073 41.1038 74.1424 41.0209 74.0188 40.8965C73.8951 40.772 73.7715 40.6476 73.6891 40.4817C73.6066 40.3158 73.5654 40.1499 73.5654 39.9425C73.5654 39.6522 73.6066 39.4448 73.7303 39.2789C73.8539 39.1129 74.0188 38.947 74.2248 38.8226C74.4309 38.6982 74.6782 38.6152 74.9667 38.5737C75.2552 38.5323 75.5437 38.4908 75.8734 38.4908H76.4503V38.3249C76.4503 38.2005 76.4091 38.1175 76.4091 37.9931C76.3679 37.8686 76.3267 37.7857 76.2443 37.7027C76.1618 37.6198 76.0794 37.5368 75.9558 37.4953C75.8321 37.4539 75.6673 37.4124 75.5024 37.4124C75.3376 37.4124 75.2139 37.4124 75.0903 37.4539C74.9667 37.4953 74.8842 37.5368 74.7606 37.5783C74.6782 37.6198 74.5958 37.6612 74.5133 37.7442C74.4309 37.7857 74.3485 37.8686 74.3073 37.9101L73.7715 37.3709ZM75.997 39.03C75.7909 39.03 75.6261 39.03 75.42 39.0715C75.2139 39.1129 75.0491 39.1129 74.8842 39.1959C74.7194 39.2374 74.5958 39.3203 74.4721 39.4448C74.3485 39.5692 74.3073 39.6936 74.3073 39.8595C74.3073 40.1084 74.3897 40.2743 74.5545 40.3987C74.7194 40.5232 74.9255 40.5646 75.2139 40.5646C75.42 40.5646 75.6261 40.5232 75.7497 40.4402C75.9146 40.3573 76.0382 40.2743 76.1206 40.1499C76.2031 40.0254 76.2855 39.901 76.3267 39.7351C76.3679 39.6107 76.3679 39.4448 76.3679 39.3203V39.0715H75.997V39.03Z" fill="#020203"/>
<path d="M77.9746 36.8732H78.7164V37.5368C78.7164 37.4954 78.7989 37.4124 78.8401 37.3295C78.9225 37.2465 79.0049 37.1635 79.1286 37.0806C79.2522 36.9976 79.3758 36.9147 79.5407 36.8732C79.7056 36.8317 79.8704 36.7903 80.0353 36.7903C80.365 36.7903 80.6122 36.8732 80.8183 36.9976C81.0244 37.1221 81.1892 37.3295 81.3541 37.5783C81.4777 37.3295 81.6838 37.1221 81.9311 36.9976C82.1783 36.8732 82.4256 36.7903 82.6729 36.7903C83.0026 36.7903 83.2499 36.8317 83.4559 36.9562C83.662 37.0806 83.8268 37.205 83.9505 37.3709C84.0741 37.5368 84.1565 37.7442 84.1978 37.9516C84.239 38.159 84.2802 38.4079 84.2802 38.6567V41.0624H83.4971V38.7397C83.4971 38.5738 83.4971 38.4079 83.4559 38.2834C83.4147 38.1175 83.3735 37.9931 83.3323 37.9101C83.2499 37.7857 83.1674 37.7027 83.0438 37.6198C82.9202 37.5368 82.7553 37.5368 82.5905 37.5368C82.2195 37.5368 81.931 37.6613 81.7662 37.9101C81.6013 38.159 81.5189 38.4493 81.5189 38.8226V41.0624H80.7359V38.8641C80.7359 38.6567 80.7359 38.4908 80.6947 38.3249C80.6535 38.159 80.6535 38.0346 80.571 37.9101C80.5298 37.7857 80.4062 37.7027 80.3237 37.6198C80.2001 37.5368 80.0353 37.5368 79.8704 37.5368C79.7468 37.5368 79.5819 37.5783 79.4583 37.6198C79.3346 37.6613 79.211 37.7442 79.1286 37.8687C79.0461 37.9931 78.9637 38.1175 78.8813 38.2834C78.8401 38.4493 78.7989 38.6567 78.7989 38.9056V41.0624H78.0158V36.8732H77.9746Z" fill="#020203"/>
<path d="M85.8065 39.2374C85.8065 39.4033 85.8477 39.5692 85.9301 39.7351C86.0125 39.901 86.095 40.0254 86.2598 40.1084C86.4247 40.1914 86.5483 40.3158 86.7132 40.3573C86.878 40.3987 87.0429 40.4402 87.2489 40.4402C87.4962 40.4402 87.7023 40.3987 87.9083 40.2743C88.0732 40.1499 88.238 40.0254 88.4029 39.8181L89.0211 40.2743C88.5677 40.855 87.9496 41.1453 87.1665 41.1453C86.8368 41.1453 86.5483 41.1039 86.2598 40.9794C86.0125 40.855 85.7653 40.7306 85.6004 40.5232C85.4356 40.3158 85.2707 40.1084 85.1883 39.8181C85.1059 39.5692 85.0234 39.2789 85.0234 38.947C85.0234 38.6152 85.0646 38.3249 85.1883 38.076C85.3119 37.8272 85.4356 37.5783 85.6416 37.3709C85.8477 37.1635 86.0538 36.9976 86.3422 36.9147C86.5895 36.7902 86.878 36.7487 87.2077 36.7487C87.5786 36.7487 87.9083 36.8317 88.1556 36.9561C88.4029 37.0806 88.609 37.2465 88.7738 37.4539C88.9387 37.6612 89.0623 37.9101 89.1447 38.159C89.2272 38.4078 89.2684 38.6982 89.2684 38.947V39.2374H85.8065V39.2374ZM88.3205 38.6152C88.3205 38.4493 88.2793 38.2834 88.238 38.1175C88.1968 37.9516 88.1144 37.8272 88.032 37.7442C87.9496 37.6198 87.8259 37.5368 87.6611 37.4953C87.4962 37.4539 87.3314 37.4124 87.1253 37.4124C86.9192 37.4124 86.7544 37.4539 86.5895 37.5368C86.4247 37.6198 86.301 37.7027 86.1774 37.8272C86.0538 37.9516 85.9713 38.076 85.9301 38.2419C85.8889 38.3664 85.8477 38.5323 85.8477 38.6567H88.3205V38.6152Z" fill="#020203"/>
<path d="M94.789 37.5369H93.635V39.4448C93.635 39.5692 93.635 39.6937 93.635 39.7766C93.635 39.9011 93.6763 39.984 93.7175 40.067C93.7587 40.1499 93.7999 40.2329 93.8823 40.2743C93.9648 40.3158 94.0884 40.3573 94.212 40.3573C94.2945 40.3573 94.4181 40.3573 94.5005 40.3158C94.5829 40.3158 94.7066 40.2743 94.789 40.2329V40.9795C94.7066 41.0209 94.583 41.0624 94.4181 41.1039C94.2532 41.1039 94.1708 41.1454 94.0884 41.1454C93.7999 41.1454 93.5526 41.1039 93.3878 41.0209C93.2229 40.938 93.0993 40.8135 93.0168 40.6891C92.9344 40.5647 92.8932 40.3988 92.8932 40.2329C92.8932 40.067 92.852 39.9011 92.852 39.7351V37.5369H91.9453V36.8317H92.852V35.6704H93.635V36.8317H94.789V37.5369V37.5369Z" fill="#020203"/>
<path d="M95.3672 38.947C95.3672 38.6567 95.4084 38.3664 95.532 38.076C95.6557 37.8272 95.8205 37.5783 95.9854 37.3709C96.1914 37.1635 96.4387 36.9976 96.686 36.9147C96.9745 36.7902 97.263 36.7487 97.5515 36.7487C97.8812 36.7487 98.1697 36.7902 98.417 36.9147C98.7054 37.0391 98.9115 37.205 99.1176 37.3709C99.3236 37.5783 99.4885 37.7857 99.5709 38.076C99.6946 38.3249 99.7358 38.6152 99.7358 38.947C99.7358 39.2374 99.6946 39.5277 99.5709 39.8181C99.4473 40.0669 99.2824 40.3158 99.1176 40.5232C98.9115 40.7306 98.6642 40.8965 98.417 40.9794C98.1285 41.1039 97.84 41.1453 97.5515 41.1453C97.2218 41.1453 96.9333 41.1039 96.686 40.9794C96.3975 40.855 96.1914 40.6891 95.9854 40.5232C95.7793 40.3158 95.6145 40.1084 95.532 39.8181C95.4084 39.5692 95.3672 39.2789 95.3672 38.947ZM96.1914 38.947C96.1914 39.1544 96.2327 39.3618 96.2739 39.5277C96.3563 39.6936 96.4387 39.8595 96.5624 39.984C96.686 40.1084 96.8096 40.1914 96.9745 40.2743C97.1394 40.3573 97.3454 40.3987 97.5515 40.3987C97.7575 40.3987 97.9636 40.3573 98.1285 40.2743C98.2933 40.1914 98.4582 40.1084 98.5406 39.984C98.6642 39.8595 98.7467 39.6936 98.8291 39.5277C98.9115 39.3618 98.9115 39.1544 98.9115 38.947C98.9115 38.7397 98.8703 38.5323 98.8291 38.3664C98.7467 38.2004 98.6642 38.0345 98.5406 37.9101C98.417 37.7857 98.2933 37.7027 98.1285 37.6198C97.9636 37.5368 97.7575 37.4953 97.5515 37.4953C97.3454 37.4953 97.1394 37.5368 96.9745 37.6198C96.8096 37.7027 96.6448 37.7857 96.5624 37.9101C96.4387 38.0345 96.3563 38.2004 96.2739 38.3664C96.2327 38.5323 96.1914 38.7397 96.1914 38.947Z" fill="#020203"/>
<path d="M104.64 41.0623H103.857V40.4402C103.692 40.6476 103.486 40.855 103.239 40.9794C102.991 41.1038 102.703 41.1453 102.414 41.1453C102.085 41.1453 101.796 41.1038 101.549 40.9794C101.302 40.855 101.054 40.7305 100.889 40.5231C100.725 40.3158 100.56 40.1084 100.477 39.818C100.395 39.5692 100.312 39.2788 100.312 38.947C100.312 38.6152 100.354 38.3249 100.477 38.076C100.56 37.8271 100.725 37.5783 100.889 37.3709C101.054 37.1635 101.302 36.9976 101.549 36.9146C101.796 36.7902 102.085 36.7487 102.414 36.7487C102.703 36.7487 102.991 36.8317 103.28 36.9561C103.527 37.0805 103.733 37.2464 103.898 37.4538V34.343H104.681V41.0623H104.64ZM102.497 40.4402C102.703 40.4402 102.909 40.3987 103.074 40.3158C103.239 40.2328 103.403 40.1498 103.486 40.0254C103.61 39.901 103.692 39.7351 103.774 39.5692C103.857 39.4033 103.857 39.1959 103.857 38.9885C103.857 38.7811 103.816 38.5737 103.774 38.4078C103.692 38.2419 103.61 38.076 103.486 37.9516C103.362 37.8271 103.239 37.7442 103.074 37.6612C102.909 37.5783 102.703 37.5368 102.497 37.5368C102.291 37.5368 102.085 37.5783 101.92 37.6612C101.755 37.7442 101.59 37.8271 101.508 37.9516C101.384 38.076 101.302 38.2419 101.219 38.4078C101.137 38.5737 101.137 38.7811 101.137 38.9885C101.137 39.1959 101.178 39.4033 101.219 39.5692C101.302 39.7351 101.384 39.901 101.508 40.0254C101.631 40.1498 101.755 40.2328 101.92 40.3158C102.085 40.3987 102.25 40.4402 102.497 40.4402Z" fill="#020203"/>
<path d="M105.629 37.3709C105.835 37.1635 106.123 36.9976 106.412 36.9147C106.7 36.8317 106.989 36.7487 107.277 36.7487C107.566 36.7487 107.854 36.7902 108.06 36.8732C108.267 36.9561 108.473 37.0391 108.596 37.1635C108.72 37.288 108.844 37.4539 108.926 37.6198C109.008 37.7857 109.008 37.9516 109.008 38.159V40.3158C109.008 40.4817 109.008 40.6061 109.008 40.7306C109.008 40.855 109.008 40.9794 109.05 41.1039H108.349C108.349 40.8965 108.308 40.6891 108.308 40.4817C108.143 40.772 107.937 40.9379 107.69 41.0624C107.442 41.1868 107.154 41.2283 106.865 41.2283C106.659 41.2283 106.494 41.1868 106.33 41.1453C106.165 41.1038 106 41.0209 105.876 40.8965C105.753 40.772 105.629 40.6476 105.546 40.4817C105.464 40.3158 105.423 40.1499 105.423 39.9425C105.423 39.6522 105.464 39.4448 105.588 39.2789C105.711 39.1129 105.876 38.947 106.082 38.8226C106.288 38.6982 106.536 38.6152 106.824 38.5737C107.113 38.5323 107.401 38.4908 107.731 38.4908H108.308V38.3249C108.308 38.2005 108.267 38.1175 108.267 37.9931C108.225 37.8686 108.184 37.7857 108.102 37.7027C108.019 37.6198 107.937 37.5368 107.813 37.4953C107.69 37.4539 107.525 37.4124 107.36 37.4124C107.195 37.4124 107.071 37.4124 106.948 37.4539C106.824 37.4953 106.742 37.5368 106.618 37.5783C106.536 37.6198 106.453 37.6612 106.371 37.7442C106.288 37.7857 106.206 37.8686 106.165 37.9101L105.629 37.3709ZM107.854 39.03C107.648 39.03 107.483 39.03 107.277 39.0715C107.071 39.1129 106.907 39.1129 106.742 39.1959C106.577 39.2374 106.453 39.3203 106.33 39.4448C106.206 39.5692 106.165 39.6936 106.165 39.8595C106.165 40.1084 106.247 40.2743 106.412 40.3987C106.577 40.5232 106.783 40.5646 107.071 40.5646C107.277 40.5646 107.483 40.5232 107.607 40.4402C107.772 40.3573 107.896 40.2743 107.978 40.1499C108.06 40.0254 108.143 39.901 108.184 39.7351C108.225 39.6107 108.225 39.4448 108.225 39.3203V39.0715H107.854V39.03Z" fill="#020203"/>
<path d="M109.503 36.8732H110.41L111.646 40.1499L112.841 36.8732H113.707L111.728 41.9749C111.646 42.1408 111.605 42.3067 111.522 42.4726C111.44 42.6385 111.358 42.763 111.234 42.8459C111.11 42.9289 110.987 43.0533 110.863 43.0948C110.698 43.1362 110.533 43.1777 110.327 43.1777C110.204 43.1777 110.08 43.1777 109.956 43.1362C109.833 43.1362 109.709 43.0948 109.627 43.0533L109.709 42.3067C109.874 42.3897 110.039 42.3897 110.162 42.3897C110.286 42.3897 110.368 42.3897 110.492 42.3482C110.574 42.3067 110.657 42.2652 110.698 42.2238C110.739 42.1823 110.822 42.0993 110.863 42.0164C110.904 41.9334 110.945 41.8505 110.987 41.726L111.234 41.0624L109.503 36.8732Z" fill="#020203"/>
</svg>
