<svg  viewBox="0 0 369 85" fill="none" xmlns="http://www.w3.org/2000/svg">
<path d="M120.877 61.516H130.421C135.701 61.516 140.055 58.0844 140.055 53.8353C140.055 51.7983 139.244 49.8447 137.802 48.4043C136.36 46.9639 134.403 46.1547 132.364 46.1547H118.745C111 46.1547 104.659 38.9682 104.991 30.2635C105.207 26.2672 106.956 22.5076 109.877 19.7669C112.797 17.0262 116.663 15.5155 120.67 15.549H152.873L160.968 0.187744H120.301C116.205 0.192551 112.15 1.0149 108.376 2.60648C104.602 4.19805 101.185 6.52676 98.3251 9.45581C95.465 12.3849 93.22 15.8552 91.7217 19.6629C90.2235 23.4706 89.5024 27.5389 89.6006 31.6289C89.9964 48.3107 104.11 61.516 120.877 61.516Z" fill="#0B61C4"/>
<path d="M130.7 23.1594H123.1C116.623 23.1594 113.601 26.591 113.601 30.8401C113.601 32.8771 114.411 34.8307 115.853 36.2711C117.296 37.7115 119.252 38.5207 121.292 38.5207H133.345C135.404 38.5265 137.441 38.9462 139.335 39.7547C141.228 40.5633 142.939 41.7441 144.366 43.2269C145.793 44.7098 146.907 46.4642 147.64 48.3858C148.374 50.3074 148.713 52.3568 148.637 54.4119C148.419 58.4106 146.667 62.1715 143.743 64.9122C140.819 67.6529 136.95 69.1623 132.94 69.1264H96.8696L88.666 84.4876H133.318C137.415 84.4841 141.47 83.6625 145.244 82.0714C149.019 80.4802 152.437 78.1516 155.297 75.2223C158.157 72.293 160.402 68.8222 161.9 65.0139C163.398 61.2056 164.118 57.1368 164.019 53.0465C163.65 36.3737 150.058 23.1594 130.7 23.1594Z" fill="#0B61C4"/>
<path d="M45.4257 0.187744L0 84.5219H20.9858L33.4171 61.516H58.7745V84.5219H77.0077V0.187744H45.4257ZM41.6477 46.1547L58.7385 14.4441V46.1547H41.6477Z" fill="#0B61C4"/>
<path d="M233.119 15.549L241.287 0.187744H194.017H186.039H175.784V84.5219H194.017V46.6847H216.379L224.574 31.3235H194.017V15.549H233.119Z" fill="#0B61C4"/>
<path d="M329.152 2.12939L335.836 17.2301H332.75L331.158 13.556H324.439L322.981 17.2301H319.914L326.148 2.12939H329.152ZM325.347 11.3461H330.259L327.704 5.36334L325.347 11.3461Z" fill="#0B61C4"/>
<path d="M344.965 2.12939V14.9484H352.305V17.2301H342.042V2.12939H344.965Z" fill="#0B61C4"/>
<path d="M361.66 2.12939V14.9484H369V17.2301H358.736V2.12939H361.66Z" fill="#0B61C4"/>
<path d="M270.054 35.7358C271.543 35.7413 273.006 36.1213 274.309 36.8407V39.4279C273.069 38.5933 271.628 38.1063 270.135 38.0175C269.53 37.9859 268.93 38.1328 268.408 38.4397C268.215 38.5604 268.056 38.7288 267.948 38.9287C267.839 39.1286 267.784 39.3531 267.787 39.5806C267.787 40.1555 268.174 40.6765 268.948 41.1616C269.164 41.3054 270 41.7096 271.448 42.3744C272.487 42.8019 273.411 43.4664 274.147 44.3147C274.706 45.0566 274.997 45.965 274.975 46.8929C274.997 47.4861 274.883 48.0767 274.643 48.6198C274.403 49.1629 274.043 49.6445 273.589 50.028C272.574 50.8478 271.296 51.2722 269.991 51.2228C269.15 51.2375 268.311 51.1317 267.5 50.9084C266.678 50.6338 265.89 50.2661 265.152 49.8124V46.9378C266.394 48.1174 268.011 48.826 269.721 48.9411C270.333 48.9704 270.94 48.8104 271.457 48.4829C271.663 48.3483 271.83 48.164 271.945 47.9473C272.06 47.7306 272.118 47.4884 272.114 47.2432C272.099 46.8813 271.985 46.5304 271.783 46.2292C271.582 45.9281 271.301 45.6883 270.972 45.5364C270.333 45.1951 269.514 44.7818 268.507 44.2968C267.471 43.8848 266.547 43.2355 265.808 42.4013C265.216 41.7011 264.897 40.8113 264.909 39.895C264.887 39.3146 265.003 38.7373 265.249 38.2109C265.494 37.6844 265.862 37.224 266.321 36.8677C267.398 36.0734 268.717 35.6737 270.054 35.7358Z" fill="#0B61C4"/>
<path d="M287.783 35.9324C289.049 35.8785 290.287 36.3163 291.237 37.1541C291.652 37.5665 291.981 38.0564 292.205 38.596C292.43 39.1355 292.545 39.714 292.545 40.2983C292.545 40.8825 292.43 41.461 292.205 42.0005C291.981 42.5401 291.652 43.0301 291.237 43.4424C290.256 44.3056 288.982 44.7619 287.675 44.718H284.86V51.0062H281.945V35.9324H287.783ZM287.064 42.4183C287.708 42.4533 288.344 42.2627 288.863 41.8793C289.087 41.6843 289.263 41.4401 289.377 41.1658C289.491 40.8915 289.54 40.5945 289.519 40.2983C289.519 38.9059 288.62 38.2052 286.821 38.2052H284.824V42.4183H287.064Z" fill="#0B61C4"/>
<path d="M307.069 35.7343C308.536 35.7113 309.987 36.0442 311.296 36.7045C312.536 37.3352 313.573 38.2999 314.292 39.4892C314.84 40.3767 315.201 41.3672 315.35 42.3995C315.5 43.4317 315.436 44.4835 315.162 45.4899C314.888 46.4964 314.41 47.4358 313.757 48.2502C313.105 49.0645 312.292 49.7364 311.368 50.2241C310.042 50.886 308.579 51.2305 307.096 51.2305C305.613 51.2305 304.15 50.886 302.823 50.2241C301.587 49.5918 300.552 48.6282 299.834 47.4413C299.116 46.2545 298.743 44.8914 298.757 43.5047C298.757 42.1299 299.126 40.7801 299.828 39.597C300.533 38.3963 301.557 37.4138 302.787 36.7584C304.107 36.0681 305.579 35.7162 307.069 35.7343ZM301.735 43.4868C301.723 44.4293 301.958 45.3586 302.418 46.1817C302.86 46.9676 303.519 47.61 304.316 48.0323C305.163 48.4829 306.11 48.7116 307.069 48.697C307.772 48.7225 308.473 48.6059 309.13 48.3543C309.787 48.1027 310.386 47.7212 310.892 47.2328C311.39 46.7457 311.781 46.1601 312.04 45.5136C312.298 44.867 312.419 44.1736 312.394 43.4778C312.405 42.5365 312.173 41.6082 311.719 40.7828C311.277 39.992 310.614 39.3462 309.812 38.9233C308.956 38.4864 308.008 38.2587 307.046 38.2587C306.085 38.2587 305.137 38.4864 304.28 38.9233C303.485 39.3494 302.829 39.9949 302.391 40.7828C301.945 41.6133 301.719 42.5442 301.735 43.4868Z" fill="#0B61C4"/>
<path d="M328.018 35.9333C329.282 35.8751 330.522 36.2954 331.49 37.1101C331.929 37.4878 332.277 37.9592 332.509 38.4894C332.741 39.0196 332.851 39.5951 332.83 40.1734C332.851 40.9734 332.618 41.7595 332.165 42.4192C331.667 43.1011 330.983 43.6251 330.195 43.9283C330.688 44.1958 331.125 44.5557 331.481 44.9884C332.017 45.694 332.483 46.449 332.875 47.2431C333.799 49.0757 334.486 50.3393 334.935 51.034H331.679C331.351 50.5204 331.051 49.9896 330.78 49.444C330.22 48.3297 329.605 47.2444 328.936 46.1921C328.639 45.7297 328.257 45.3274 327.811 45.0063C327.441 44.77 327.009 44.6481 326.57 44.656H325.508V51.0071H322.585V35.9333H328.018ZM327.361 42.3742C328.011 42.4053 328.65 42.2011 329.16 41.7993C329.379 41.6016 329.551 41.3582 329.664 41.0865C329.778 40.8147 329.83 40.5214 329.817 40.2273C329.842 39.9358 329.795 39.6427 329.681 39.3734C329.566 39.1041 329.388 38.8669 329.16 38.6822C328.634 38.3181 328.001 38.1381 327.361 38.1701H325.562V42.3742H327.361Z" fill="#0B61C4"/>
<path d="M352.746 35.9319V38.2046H347.349V51.0057H344.425V38.2046H339.028V35.9319H352.746Z" fill="#0B61C4"/>
<path d="M363.541 35.7367C365.03 35.7411 366.493 36.1212 367.795 36.8417V39.4288C366.559 38.5934 365.121 38.1062 363.631 38.0185C363.026 37.9858 362.425 38.1327 361.904 38.4407C361.71 38.5613 361.552 38.7298 361.443 38.9297C361.334 39.1296 361.279 39.3541 361.283 39.5815C361.283 40.1565 361.67 40.6775 362.434 41.1626C362.659 41.3063 363.487 41.7106 364.935 42.3753C365.974 42.8028 366.898 43.4674 367.633 44.3157C368.189 45.0584 368.478 45.9669 368.452 46.8939C368.472 47.4886 368.356 48.08 368.113 48.6232C367.87 49.1664 367.506 49.6472 367.049 50.029C366.034 50.8487 364.755 51.2732 363.451 51.2238C362.606 51.2385 361.764 51.1326 360.95 50.9093C360.131 50.6345 359.346 50.2667 358.611 49.8134V46.9388C359.854 48.1184 361.47 48.827 363.181 48.942C363.79 48.9701 364.393 48.8101 364.908 48.4839C365.114 48.3497 365.283 48.1657 365.4 47.9491C365.516 47.7324 365.576 47.49 365.574 47.2442C365.559 46.881 365.444 46.529 365.241 46.2276C365.037 45.9261 364.754 45.6872 364.422 45.5374C363.787 45.196 362.968 44.7828 361.967 44.2977C360.932 43.8831 360.008 43.2343 359.268 42.4023C358.68 41.6997 358.361 40.8114 358.368 39.8959C358.348 39.3149 358.466 38.7374 358.713 38.211C358.96 37.6846 359.329 37.2245 359.79 36.8686C360.871 36.0697 362.197 35.6697 363.541 35.7367Z" fill="#0B61C4"/>
<path d="M255.059 69.7271V72.0088H248.762V75.9075H255.059V78.2072H248.762V84.8278H245.839V69.7271H255.059Z" fill="#0B61C4"/>
<path d="M265.133 69.7271V84.8278H262.219V69.7271H265.133Z" fill="#0B61C4"/>
<path d="M275.532 69.7271L284.527 80.2643V69.7271H287.388V84.8278H284.878L275.838 74.1108V84.8278H272.978V69.7271H275.532Z" fill="#0B61C4"/>
<path d="M302.796 69.7271L309.471 84.8278H306.385L304.82 81.1537H298.101L296.635 84.8278H293.576L299.81 69.7271H302.796ZM298.982 78.9348H303.867L301.312 72.961L298.982 78.9348Z" fill="#0B61C4"/>
<path d="M318.241 69.7271L327.236 80.2643V69.7271H330.096V84.8278H327.56L318.565 74.1108V84.8278H315.704V69.7271H318.241Z" fill="#0B61C4"/>
<path d="M345.775 69.5296C346.624 69.5284 347.469 69.628 348.294 69.826C349.229 70.0495 350.135 70.3812 350.993 70.8142V73.563C350.177 73.0831 349.312 72.6945 348.411 72.4042C347.608 72.1649 346.775 72.0438 345.937 72.0449C344.93 72.031 343.933 72.259 343.032 72.7096C342.194 73.1325 341.492 73.7833 341.008 74.5871C340.54 75.4082 340.293 76.337 340.293 77.2821C340.293 78.2271 340.54 79.1559 341.008 79.977C341.482 80.7787 342.183 81.4224 343.023 81.8275C343.928 82.2765 344.927 82.5014 345.937 82.4833C346.746 82.4888 347.55 82.3676 348.321 82.124C349.308 81.7828 350.263 81.3528 351.173 80.8394V83.5883C350.316 84.0489 349.411 84.4135 348.474 84.6752C347.532 84.9045 346.565 85.0131 345.596 84.9986C344.113 85.0253 342.645 84.6989 341.314 84.0464C340.084 83.4366 339.056 82.4852 338.354 81.3065C337.644 80.1241 337.274 78.7689 337.284 77.3899C337.263 75.9481 337.646 74.5293 338.39 73.2935C339.12 72.0914 340.178 71.1222 341.44 70.4997C342.788 69.8402 344.274 69.5078 345.775 69.5296Z" fill="#0B61C4"/>
<path d="M368.119 69.7271V72.0088H361.273V75.9704H367.831V78.2521H361.273V82.5461H368.272V84.8278H358.377V69.7271H368.119Z" fill="#0B61C4"/>
<path d="M222.29 84.7743L267.131 0H263.47L218.629 84.7743H222.29Z" fill="#0B61C4"/>
</svg>
