<svg width="28" height="28" viewBox="0 0 24 24" fill="black" xmlns="http://www.w3.org/2000/svg">
<path d="M13.3137 12.3661H10.6863C8.10247 12.3661 6 14.4277 6 16.9619V19.5448C6 19.7962 6.20381 20 6.45521 20C6.70662 20 6.91042 19.7962 6.91042 19.5448V16.9619C6.91042 14.92 8.60442 13.2589 10.6863 13.2589H13.3137C15.3956 13.2589 17.0896 14.92 17.0896 16.9619V19.5448C17.0896 19.7962 17.2934 20 17.5448 20C17.7962 20 18 19.7962 18 19.5448V16.9619C18 14.4277 15.8975 12.3661 13.3137 12.3661Z" fill="black" stroke="black" stroke-width="0.4"/>
<path d="M12.0007 4C10.0027 4 8.37695 5.59435 8.37695 7.55387C8.37695 9.51339 10.0027 11.1077 12.0007 11.1077C13.9988 11.1077 15.6245 9.51339 15.6245 7.55387C15.6245 5.59435 13.9988 4 12.0007 4ZM12.0007 10.2149C10.5046 10.2149 9.28738 9.02113 9.28738 7.55387C9.28738 6.08661 10.5046 4.89286 12.0007 4.89286C13.4969 4.89286 14.7141 6.08661 14.7141 7.55387C14.7141 9.02113 13.4969 10.2149 12.0007 10.2149Z" fill="black" stroke="black" stroke-width="0.4"/>
</svg>
