<svg width="24" height="24" viewBox="0 0 24 24" fill="none" xmlns="http://www.w3.org/2000/svg">
<path d="M19.8177 17.9381L15.913 14.0334C16.8835 12.8662 17.4683 11.3674 17.4683 9.73438C17.4683 6.02103 14.4474 3 10.7342 3C7.02093 3 4 6.02103 4 9.73438C4 13.4475 7.02093 16.4683 10.7342 16.4683C12.3672 16.4683 13.866 15.8836 15.0332 14.913L18.938 18.8178C19.0595 18.9393 19.2187 19 19.3779 19C19.537 19 19.6963 18.9393 19.8178 18.8178C20.0607 18.5748 20.0607 18.181 19.8177 17.9381ZM5.24414 9.73438C5.24414 6.70705 7.70695 4.24414 10.7342 4.24414C13.7613 4.24414 16.2241 6.70705 16.2241 9.73438C16.2241 12.7615 13.7613 15.2241 10.7342 15.2241C7.70695 15.2241 5.24414 12.7615 5.24414 9.73438Z" fill="white" stroke="white" stroke-width="0.5"/>
</svg>
