<svg width="28" height="28" viewBox="0 0 24 24" fill="black" xmlns="http://www.w3.org/2000/svg">
<path d="M18.3 15.6364H17.6V9.81819C17.6 6.61019 15.0877 4 12 4C8.91231 4 6.40001 6.61019 6.40001 9.81819V15.6364H5.70001C5.3129 15.6364 5 15.9615 5 16.3637C5 16.7658 5.3129 17.0909 5.70001 17.0909H6.40001H9.20001C9.20001 18.6953 10.4558 20 12 20C13.5442 20 14.8 18.6953 14.8 17.0909H17.6H18.3C18.6871 17.0909 19 16.7658 19 16.3636C19 15.9614 18.6871 15.6364 18.3 15.6364ZM12 18.5455C11.2279 18.5455 10.6 17.8931 10.6 17.0909H13.4C13.4 17.8931 12.7721 18.5455 12 18.5455ZM16.2 15.6364H14.8H9.20001H7.80002V9.81819C7.80002 7.41166 9.68372 5.45456 12 5.45456C14.3163 5.45456 16.2 7.41166 16.2 9.81819V15.6364Z" fill="white" stroke="black" stroke-width="0.01"/>
</svg>
