<svg width="21" height="12" viewBox="0 0 21 12" fill="none" xmlns="http://www.w3.org/2000/svg">
<g opacity="0.44">
<mask id="path-1-inside-1_6959_15856" fill="white">
<path d="M7.94615 11C7.94615 11.5523 8.39387 12 8.94615 12H11.4868C12.0391 12 12.4868 11.5523 12.4868 11C12.4868 10.4477 12.0391 10 11.4868 10H8.94615C8.39387 10 7.94615 10.4477 7.94615 11ZM0.999999 0C0.447714 0 0 0.447715 0 1C0 1.55228 0.447715 2 1 2H19.433C19.9853 2 20.433 1.55228 20.433 1C20.433 0.447715 19.9853 0 19.433 0H0.999999ZM3.40549 6C3.40549 6.55228 3.85321 7 4.40549 7H16.0275C16.5798 7 17.0275 6.55228 17.0275 6C17.0275 5.44772 16.5798 5 16.0275 5H4.40549C3.85321 5 3.40549 5.44772 3.40549 6Z"/>
</mask>
<path d="M7.94615 11C7.94615 11.5523 8.39387 12 8.94615 12H11.4868C12.0391 12 12.4868 11.5523 12.4868 11C12.4868 10.4477 12.0391 10 11.4868 10H8.94615C8.39387 10 7.94615 10.4477 7.94615 11ZM0.999999 0C0.447714 0 0 0.447715 0 1C0 1.55228 0.447715 2 1 2H19.433C19.9853 2 20.433 1.55228 20.433 1C20.433 0.447715 19.9853 0 19.433 0H0.999999ZM3.40549 6C3.40549 6.55228 3.85321 7 4.40549 7H16.0275C16.5798 7 17.0275 6.55228 17.0275 6C17.0275 5.44772 16.5798 5 16.0275 5H4.40549C3.85321 5 3.40549 5.44772 3.40549 6Z" fill="#0D4E9A"/>
<path d="M8.94615 16H11.4868V8H8.94615V16ZM11.4868 6H8.94615V14H11.4868V6ZM1 6H19.433V-2H1V6ZM19.433 -4H0.999999V4H19.433V-4ZM4.40549 11H16.0275V3H4.40549V11ZM16.0275 1H4.40549V9H16.0275V1ZM4.40549 1C1.64407 1 -0.594506 3.23858 -0.594506 6H7.40549C7.40549 7.65685 6.06235 9 4.40549 9V1ZM21.0275 6C21.0275 3.23858 18.7889 1 16.0275 1V9C14.3706 9 13.0275 7.65685 13.0275 6H21.0275ZM16.0275 11C18.7889 11 21.0275 8.76142 21.0275 6H13.0275C13.0275 4.34315 14.3706 3 16.0275 3V11ZM4.40549 3C6.06235 3 7.40549 4.34315 7.40549 6H-0.594506C-0.594506 8.76142 1.64407 11 4.40549 11V3ZM24.433 1C24.433 -1.76142 22.1944 -4 19.433 -4V4C17.7761 4 16.433 2.65685 16.433 1H24.433ZM19.433 6C22.1944 6 24.433 3.76142 24.433 1H16.433C16.433 -0.65685 17.7761 -2 19.433 -2V6ZM-4 1C-4 3.76142 -1.76142 6 1 6V-2C2.65685 -2 4 -0.656854 4 1H-4ZM4 1C4 2.65685 2.65686 4 0.999999 4V-4C-1.76143 -4 -4 -1.76142 -4 1H4ZM8.94615 6C6.18473 6 3.94615 8.23858 3.94615 11H11.9462C11.9462 12.6569 10.603 14 8.94615 14V6ZM16.4868 11C16.4868 8.23858 14.2482 6 11.4868 6V14C9.82996 14 8.48681 12.6569 8.48681 11H16.4868ZM11.4868 16C14.2482 16 16.4868 13.7614 16.4868 11H8.48681C8.48681 9.34315 9.82996 8 11.4868 8V16ZM8.94615 8C10.603 8 11.9462 9.34315 11.9462 11H3.94615C3.94615 13.7614 6.18473 16 8.94615 16V8Z" fill="#0D4E9A" mask="url(#path-1-inside-1_6959_15856)"/>
</g>
</svg>
