<svg width="120" height="120" viewBox="0 0 120 120" fill="none" xmlns="http://www.w3.org/2000/svg">
<rect width="120" height="120" rx="60" fill="url(#paint0_linear)"/>
<path d="M24 49.0008L58.668 71.0643C59.064 71.3568 59.532 71.5008 60 71.5008C60.468 71.5008 60.936 71.3568 61.332 71.0643L96 49.0008L61.35 22.4508C60.549 21.8523 59.451 21.8523 58.65 22.4508L24 49.0008Z" fill="#4289DA"/>
<path d="M82.5 22H37.5C35.0205 22 33 24.0205 33 26.5V76C33 77.242 34.008 78.25 35.25 78.25H84.75C85.992 78.25 87 77.242 87 76V26.5C87 24.0205 84.984 22 82.5 22Z" fill="white"/>
<path d="M44.25 35.5H75.75C76.992 35.5 78 34.492 78 33.25C78 32.008 76.992 31 75.75 31H44.25C43.008 31 42 32.008 42 33.25C42 34.492 43.008 35.5 44.25 35.5Z" fill="#DBE7F4"/>
<path d="M75.75 40H44.25C43.008 40 42 41.008 42 42.25C42 43.492 43.008 44.5 44.25 44.5H75.75C76.992 44.5 78 43.492 78 42.25C78 41.008 76.992 40 75.75 40Z" fill="#DBE7F4"/>
<path d="M62.25 49H44.25C43.008 49 42 50.008 42 51.25C42 52.492 43.008 53.5 44.25 53.5H62.25C63.492 53.5 64.5 52.492 64.5 51.25C64.5 50.008 63.492 49 62.25 49Z" fill="#DBE7F4"/>
<path d="M61.332 71.0635C60.936 71.356 60.468 71.5 60 71.5C59.532 71.5 59.064 71.356 58.668 71.0635L24 49V89.5C24 91.984 26.016 94 28.5 94H91.5C93.984 94 96 91.984 96 89.5V49L61.332 71.0635Z" fill="#72B1F0"/>
<path d="M91.5 94H28.5C25.9755 94 24 92.0245 24 89.5C24 88.7845 24.342 88.1095 24.918 87.6865L58.668 65.1865C59.064 64.894 59.532 64.75 60 64.75C60.468 64.75 60.936 64.894 61.332 65.1865L95.082 87.6865C95.658 88.1095 96 88.7845 96 89.5C96 92.0245 94.0245 94 91.5 94Z" fill="#4289DA"/>
<defs>
<linearGradient id="paint0_linear" x1="129.58" y1="65.4552" x2="-7.05882" y2="65.4552" gradientUnits="userSpaceOnUse">
<stop stop-color="#93BEEF"/>
<stop offset="1" stop-color="#C6E0FF"/>
</linearGradient>
</defs>
</svg>
