<svg width="17" height="20" viewBox="0 0 17 20" fill="none" xmlns="http://www.w3.org/2000/svg">
<path fill-rule="evenodd" clip-rule="evenodd" d="M7.63547 1.5C6.82147 1.5 6.02782 1.67239 5.27633 1.99708C4.52426 2.32202 3.87466 2.76902 3.3213 3.33915C2.75881 3.91869 2.29979 4.59292 1.98683 5.36184C1.66992 6.14045 1.5 6.96628 1.5 7.84414V18.4336H2.92768V11.9219C2.92768 11.5077 3.26346 11.1719 3.67768 11.1719H10.2198V9.62754H3.65057C3.23635 9.62754 2.90057 9.29175 2.90057 8.87754V7.81621C2.90057 7.1281 3.02954 6.53569 3.24708 5.95937C3.48109 5.33939 3.84456 4.83578 4.25093 4.4171C4.67446 3.98073 5.16005 3.64989 5.72383 3.39172C6.31079 3.12295 6.93246 2.98848 7.58125 2.98848H10.2198V1.5H7.63547ZM0.953473 19.9336C0.888769 19.9518 0.820521 19.9615 0.75 19.9615C0.335786 19.9615 0 19.6257 0 19.2115V19.1836V7.84414C0 6.76692 0.209597 5.74939 0.5975 4.79636C0.989343 3.83364 1.56044 2.99967 2.24493 2.29444C2.93854 1.57981 3.75277 1.02133 4.6814 0.620108C5.61061 0.218626 6.60611 0 7.63547 0H10.9698C11.384 0 11.7198 0.335786 11.7198 0.75V3.73848C11.7198 4.15269 11.384 4.48848 10.9698 4.48848H7.58125C7.14572 4.48848 6.73728 4.57744 6.34834 4.75554C5.93623 4.94425 5.60858 5.172 5.3273 5.46181C5.02886 5.76929 4.79594 6.10357 4.65044 6.48907C4.48846 6.91821 4.40057 7.33127 4.40057 7.81621V8.12754H10.9698C11.2445 8.12754 11.4848 8.27528 11.6154 8.49566C11.7125 8.29872 11.8935 8.15057 12.1117 8.09786C11.5582 7.61294 11.2087 6.90086 11.2087 6.10714C11.2087 4.64602 12.3932 3.46154 13.8543 3.46154C15.3154 3.46154 16.4999 4.64601 16.4999 6.10714C16.4999 6.92265 16.1309 7.65198 15.5508 8.13728C15.8182 8.25193 16.0055 8.51755 16.0055 8.82692V19.2115C16.0055 19.6257 15.6697 19.9615 15.2555 19.9615H12.2885C11.8742 19.9615 11.5385 19.6257 11.5385 19.2115V12.4109C11.4009 12.5707 11.1972 12.6719 10.9698 12.6719H4.42768V19.1836C4.42768 19.5978 4.09189 19.9336 3.67768 19.9336H0.953473ZM13.0385 9.57692V18.4615H14.5055V9.57692H13.0385ZM12.7087 6.10714C12.7087 5.47444 13.2216 4.96154 13.8543 4.96154C14.487 4.96154 14.9999 5.47444 14.9999 6.10714C14.9999 6.73984 14.487 7.25274 13.8543 7.25274C13.2216 7.25274 12.7087 6.73984 12.7087 6.10714Z" fill="white"/>
</svg>
