<svg width="17" height="20" viewBox="0 0 17 20" fill="none" xmlns="http://www.w3.org/2000/svg">
<path fill-rule="evenodd" clip-rule="evenodd" d="M7.63547 1.425C6.8107 1.425 6.00696 1.5997 5.24659 1.92823C4.48568 2.25699 3.82785 2.70956 3.26748 3.28692C2.69889 3.87274 2.23427 4.55495 1.91736 5.33357C1.5969 6.1209 1.425 6.95631 1.425 7.84414V18.5086H3.00268V11.9219C3.00268 11.5491 3.30488 11.2469 3.67768 11.2469H10.2948V9.55254H3.65057C3.27777 9.55254 2.97557 9.25033 2.97557 8.87754V7.81621C2.97557 7.13826 3.10249 6.55482 3.31725 5.98585C3.54683 5.3776 3.90377 4.88246 4.30474 4.46933C4.72116 4.04029 5.19886 3.71461 5.75506 3.45991C6.33212 3.19567 6.94312 3.06348 7.58125 3.06348H10.2948V1.425H7.63547ZM0.942779 19.8586C0.881694 19.8768 0.816987 19.8865 0.75 19.8865C0.377208 19.8865 0.075 19.5843 0.075 19.2115V19.1836V7.84414C0.075 6.77689 0.282613 5.76894 0.666966 4.82463C1.05487 3.87161 1.62036 3.04562 2.29874 2.34668C2.98534 1.63927 3.79134 1.08637 4.71114 0.688957C5.63147 0.291315 6.61688 0.075 7.63547 0.075H10.9698C11.3426 0.075 11.6448 0.377208 11.6448 0.75V3.73848C11.6448 4.11127 11.3426 4.41348 10.9698 4.41348H7.58125C7.13505 4.41348 6.71595 4.50472 6.31712 4.68735C5.89742 4.87953 5.56187 5.11244 5.27348 5.40957C4.96964 5.72262 4.7302 6.06537 4.58027 6.46258C4.41551 6.89908 4.32557 7.32111 4.32557 7.81621V8.20254H10.9698C11.2845 8.20254 11.5489 8.41796 11.6237 8.7094C11.6793 8.39263 11.9558 8.15192 12.2885 8.15192H12.2962C11.6808 7.68226 11.2837 6.94108 11.2837 6.10714C11.2837 4.68744 12.4346 3.53654 13.8543 3.53654C15.274 3.53654 16.4249 4.68743 16.4249 6.10714C16.4249 6.9495 16.0197 7.69723 15.3936 8.16607C15.7002 8.22982 15.9305 8.50147 15.9305 8.82692V19.2115C15.9305 19.5843 15.6283 19.8865 15.2555 19.8865H12.2885C11.9157 19.8865 11.6135 19.5843 11.6135 19.2115V12.1257C11.5271 12.3988 11.2715 12.5969 10.9698 12.5969H4.35268V19.1836C4.35268 19.5564 4.05047 19.8586 3.67768 19.8586H0.942779ZM12.9635 9.50192V18.5365H14.5805V9.50192H12.9635ZM12.6337 6.10714C12.6337 5.43302 13.1802 4.88654 13.8543 4.88654C14.5284 4.88654 15.0749 5.43302 15.0749 6.10714C15.0749 6.78126 14.5284 7.32774 13.8543 7.32774C13.1802 7.32774 12.6337 6.78126 12.6337 6.10714Z" fill="white"/>
</svg>
