<svg width="16" height="16" viewBox="0 0 16 16" fill="none" xmlns="http://www.w3.org/2000/svg">
<path d="M8 16C12.4183 16 16 12.4183 16 8C16 3.58172 12.4183 0 8 0C3.58172 0 0 3.58172 0 8C0 12.4183 3.58172 16 8 16Z" fill="#F61C0D"/>
<path d="M4.05763 8.41509C3.27336 9.74835 4.23467 11.4291 5.7815 11.4291H10.2164C11.7632 11.4291 12.7245 9.74836 11.9403 8.41509L9.72282 4.64542C8.94952 3.33081 7.04839 3.33081 6.27509 4.64542L4.05763 8.41509ZM8.51843 9.95545C8.51843 10.2378 8.28953 10.4667 8.00716 10.4667H7.99075C7.70838 10.4667 7.47947 10.2378 7.47947 9.95545C7.47947 9.67307 7.70838 9.44417 7.99075 9.44417H8.00716C8.28953 9.44417 8.51843 9.67307 8.51843 9.95545ZM8.51843 7.90213C8.51843 8.18903 8.28586 8.42161 7.99895 8.42161C7.71205 8.42161 7.47947 8.18903 7.47947 7.90213V5.30199C7.47947 5.01509 7.71205 4.78251 7.99895 4.78251C8.28586 4.78251 8.51843 5.01509 8.51843 5.30199V7.90213Z" fill="#FCFBFA"/>
</svg>
