<svg width="12" height="12" viewBox="0 0 12 12" fill="none" xmlns="http://www.w3.org/2000/svg">
<path d="M6 12C9.31371 12 12 9.31371 12 6C12 2.68629 9.31371 0 6 0C2.68629 0 0 2.68629 0 6C0 9.31371 2.68629 12 6 12Z" fill="#F61C0D"/>
<path d="M2.60003 7.0642C2.2079 7.73083 2.68855 8.57122 3.46197 8.57122H8.53656C9.30998 8.57122 9.79063 7.73083 9.3985 7.0642L6.8612 2.75079C6.47455 2.09349 5.52398 2.09349 5.13733 2.75079L2.60003 7.0642ZM6.38887 7.46595C6.38887 7.67773 6.21719 7.84941 6.00542 7.84941H5.99311C5.78133 7.84941 5.60965 7.67773 5.60965 7.46595C5.60965 7.25418 5.78133 7.0825 5.99311 7.0825H6.00542C6.21719 7.0825 6.38887 7.25418 6.38887 7.46595ZM6.38887 5.92597C6.38887 6.14114 6.21444 6.31558 5.99926 6.31558C5.78409 6.31558 5.60965 6.14114 5.60965 5.92597V3.97587C5.60965 3.76069 5.78409 3.58626 5.99926 3.58626C6.21444 3.58626 6.38887 3.76069 6.38887 3.97587V5.92597Z" fill="#FCFBFA"/>
</svg>
