<svg width="17" height="17" viewBox="0 0 14 14" fill="none" xmlns="http://www.w3.org/2000/svg">
<path d="M12.8633 12.2036L9.93473 9.27504C10.6627 8.39966 11.1012 7.27558 11.1012 6.05078C11.1012 3.26577 8.83554 1 6.05065 1C3.2657 1 1 3.26577 1 6.05078C1 8.83561 3.2657 11.1012 6.05065 11.1012C7.27538 11.1012 8.39953 10.6627 9.2749 9.93474L12.2035 12.8633C12.2946 12.9545 12.4141 13 12.5334 13C12.6528 13 12.7722 12.9545 12.8634 12.8633C13.0456 12.6811 13.0456 12.3858 12.8633 12.2036ZM1.93311 6.05078C1.93311 3.78028 3.78022 1.93311 6.05065 1.93311C8.32102 1.93311 10.1681 3.78028 10.1681 6.05078C10.1681 8.32109 8.32102 10.1681 6.05065 10.1681C3.78022 10.1681 1.93311 8.32109 1.93311 6.05078Z" fill="#253242" stroke="#253242" stroke-width="0.5"/>
</svg>
