<svg width="22" height="21" viewBox="0 0 22 21" fill="none" xmlns="http://www.w3.org/2000/svg">
<path fill-rule="evenodd" clip-rule="evenodd" d="M4.75025 4.28291C5.01938 5.48653 6.09624 6.38882 7.37994 6.38882C8.86567 6.38882 10.0743 5.18021 10.0743 3.69457C10.0743 2.20866 8.86567 1 7.37994 1C6.09612 1 5.01919 1.90246 4.75018 3.10645H1.58823C1.26332 3.10645 1 3.36994 1 3.69468C1 4.01941 1.26332 4.28291 1.58823 4.28291H4.75025ZM5.86204 3.68387C5.86782 2.85176 6.5465 2.1765 7.37994 2.1765C8.21694 2.1765 8.89787 2.85756 8.89787 3.69457C8.89787 4.53157 8.21694 5.21232 7.37994 5.21232C6.54655 5.21232 5.8679 4.53745 5.86205 3.70542C5.86211 3.70185 5.86214 3.69827 5.86214 3.69468C5.86214 3.69107 5.86211 3.68746 5.86204 3.68387Z" fill="white"/>
<path d="M4.75025 4.28291L4.79905 4.272L4.79031 4.23291H4.75025V4.28291ZM4.75018 3.10645V3.15645H4.79024L4.79898 3.11735L4.75018 3.10645ZM5.86204 3.68387L5.81203 3.68352L5.81205 3.68477L5.86204 3.68387ZM5.86205 3.70542L5.81204 3.70453L5.81205 3.70577L5.86205 3.70542ZM7.37994 6.33882C6.12019 6.33882 5.06319 5.4533 4.79905 4.272L4.70146 4.29382C4.97558 5.51975 6.07229 6.43882 7.37994 6.43882V6.33882ZM10.0243 3.69457C10.0243 5.15259 8.83806 6.33882 7.37994 6.33882V6.43882C8.89328 6.43882 10.1243 5.20783 10.1243 3.69457H10.0243ZM7.37994 1.05C8.83805 1.05 10.0243 2.23627 10.0243 3.69457H10.1243C10.1243 2.18105 8.89329 0.95 7.37994 0.95V1.05ZM4.79898 3.11735C5.063 1.93568 6.12008 1.05 7.37994 1.05V0.95C6.07217 0.95 4.97538 1.86924 4.70138 3.09554L4.79898 3.11735ZM1.58823 3.15645H4.75018V3.05645H1.58823V3.15645ZM1.05 3.69468C1.05 3.39754 1.29094 3.15645 1.58823 3.15645V3.05645C1.2357 3.05645 0.95 3.34234 0.95 3.69468H1.05ZM1.58823 4.23291C1.29094 4.23291 1.05 3.99181 1.05 3.69468H0.95C0.95 4.04702 1.2357 4.33291 1.58823 4.33291V4.23291ZM4.75025 4.23291H1.58823V4.33291H4.75025V4.23291ZM7.37994 2.1265C6.519 2.1265 5.81801 2.82397 5.81205 3.68352L5.91204 3.68421C5.91763 2.87956 6.57401 2.2265 7.37994 2.2265V2.1265ZM8.94787 3.69457C8.94787 2.82995 8.24456 2.1265 7.37994 2.1265V2.2265C8.18932 2.2265 8.84787 2.88517 8.84787 3.69457H8.94787ZM7.37994 5.26232C8.24455 5.26232 8.94787 4.55919 8.94787 3.69457H8.84787C8.84787 4.50395 8.18934 5.16232 7.37994 5.16232V5.26232ZM5.81205 3.70577C5.8181 4.56526 6.51906 5.26232 7.37994 5.26232V5.16232C6.57404 5.16232 5.91771 4.50964 5.91204 3.70507L5.81205 3.70577ZM5.81214 3.69468C5.81214 3.69796 5.81211 3.70125 5.81205 3.70453L5.91204 3.70632C5.91211 3.70245 5.91214 3.69857 5.91214 3.69468H5.81214ZM5.81205 3.68477C5.81211 3.68806 5.81214 3.69136 5.81214 3.69468H5.91214C5.91214 3.69077 5.91211 3.68686 5.91204 3.68297L5.81205 3.68477Z" fill="#0B61C4"/>
<path d="M20.4121 4.28291H11.6205C11.2955 4.28291 11.0322 4.01941 11.0322 3.69468C11.0322 3.36994 11.2955 3.10645 11.6205 3.10645H20.4121C20.737 3.10645 21.0003 3.36994 21.0003 3.69468C21.0003 4.01941 20.7371 4.28291 20.4121 4.28291Z" fill="white" stroke="#0B61C4" stroke-width="0.1"/>
<path d="M11.0382 11.3911H1.58823C1.26332 11.3911 1 11.1276 1 10.8028C1 10.4781 1.26332 10.2146 1.58823 10.2146H11.0382C11.3631 10.2146 11.6264 10.4781 11.6264 10.8028C11.6264 11.1276 11.3631 11.3911 11.0382 11.3911Z" fill="white" stroke="#0B61C4" stroke-width="0.1"/>
<path fill-rule="evenodd" clip-rule="evenodd" d="M12.584 10.8027C12.584 12.2883 13.7926 13.4969 15.2784 13.4969C16.562 13.4969 17.6388 12.5948 17.908 11.3913H20.412C20.7369 11.3913 21.0002 11.1278 21.0002 10.8031C21.0002 10.4783 20.7369 10.2148 20.412 10.2148H17.9082C17.6392 9.01096 16.5623 8.1084 15.2784 8.1084C13.7926 8.1084 12.584 9.31706 12.584 10.8027ZM16.7963 10.7911C16.79 9.9594 16.1115 9.2849 15.2784 9.2849C14.4414 9.2849 13.7604 9.96565 13.7604 10.8027C13.7604 11.6397 14.4414 12.3204 15.2784 12.3204C16.1113 12.3204 16.7897 11.6462 16.7963 10.8148C16.7962 10.8109 16.7961 10.807 16.7961 10.8031C16.7961 10.7991 16.7962 10.7951 16.7963 10.7911Z" fill="white"/>
<path d="M17.908 11.3913V11.3413H17.8679L17.8592 11.3804L17.908 11.3913ZM17.9082 10.2148L17.8594 10.2257L17.8681 10.2648H17.9082V10.2148ZM16.7963 10.7911L16.8463 10.7921L16.8463 10.7907L16.7963 10.7911ZM16.7963 10.8148L16.8463 10.8152L16.8462 10.8138L16.7963 10.8148ZM15.2784 13.4469C13.8202 13.4469 12.634 12.2606 12.634 10.8027H12.534C12.534 12.3159 13.765 13.5469 15.2784 13.5469V13.4469ZM17.8592 11.3804C17.595 12.5615 16.5381 13.4469 15.2784 13.4469V13.5469C16.586 13.5469 17.6826 12.628 17.9568 11.4022L17.8592 11.3804ZM20.412 11.3413H17.908V11.4413H20.412V11.3413ZM20.9502 10.8031C20.9502 11.1002 20.7092 11.3413 20.412 11.3413V11.4413C20.7645 11.4413 21.0502 11.1554 21.0502 10.8031H20.9502ZM20.412 10.2648C20.7092 10.2648 20.9502 10.5059 20.9502 10.8031H21.0502C21.0502 10.4507 20.7645 10.1648 20.412 10.1648V10.2648ZM17.9082 10.2648H20.412V10.1648H17.9082V10.2648ZM15.2784 8.1584C16.5383 8.1584 17.5954 9.04418 17.8594 10.2257L17.957 10.2039C17.6831 8.97774 16.5862 8.0584 15.2784 8.0584V8.1584ZM12.634 10.8027C12.634 9.34467 13.8203 8.1584 15.2784 8.1584V8.0584C13.765 8.0584 12.534 9.28944 12.534 10.8027H12.634ZM16.8463 10.7907C16.8398 9.93157 16.139 9.2349 15.2784 9.2349V9.3349C16.084 9.3349 16.7402 9.98722 16.7463 10.7915L16.8463 10.7907ZM15.2784 9.2349C14.4138 9.2349 13.7104 9.93803 13.7104 10.8027H13.8104C13.8104 9.99327 14.469 9.3349 15.2784 9.3349V9.2349ZM13.7104 10.8027C13.7104 11.6673 14.4138 12.3704 15.2784 12.3704V12.2704C14.469 12.2704 13.8104 11.612 13.8104 10.8027H13.7104ZM15.2784 12.3704C16.1388 12.3704 16.8395 11.6741 16.8463 10.8152L16.7463 10.8144C16.7399 11.6184 16.0839 12.2704 15.2784 12.2704V12.3704ZM16.8462 10.8138C16.8462 10.8103 16.8461 10.8067 16.8461 10.8031H16.7461C16.7461 10.8073 16.7462 10.8116 16.7463 10.8158L16.8462 10.8138ZM16.8461 10.8031C16.8461 10.7994 16.8462 10.7958 16.8463 10.7921L16.7463 10.7901C16.7462 10.7944 16.7461 10.7987 16.7461 10.8031H16.8461Z" fill="#0B61C4"/>
<path d="M20.4122 18.4992H10.9623C10.6373 18.4992 10.374 18.2357 10.374 17.911C10.374 17.5862 10.6373 17.3228 10.9623 17.3228H20.4122C20.7371 17.3228 21.0004 17.5862 21.0004 17.911C21.0004 18.2357 20.7371 18.4992 20.4122 18.4992Z" fill="white" stroke="#0B61C4" stroke-width="0.1"/>
<path fill-rule="evenodd" clip-rule="evenodd" d="M4.09189 18.4988C4.36074 19.703 5.43777 20.6056 6.72173 20.6056C8.20747 20.6056 9.41612 19.397 9.41612 17.9111C9.41612 16.4255 8.20747 15.2168 6.72173 15.2168C5.43819 15.2168 4.36145 16.1189 4.09215 17.3223H1.58823C1.26332 17.3223 1 17.5858 1 17.9105C1 18.2353 1.26332 18.4988 1.58823 18.4988H4.09189ZM5.20387 17.8963C5.21182 17.0661 5.88965 16.3933 6.72173 16.3933C7.55874 16.3933 8.23966 17.074 8.23966 17.9111C8.23966 18.7481 7.55874 19.4291 6.72173 19.4291C5.88937 19.4291 5.21136 18.7556 5.20387 17.925C5.20398 17.9201 5.20404 17.9153 5.20404 17.9105C5.20404 17.9057 5.20399 17.901 5.20387 17.8963Z" fill="white"/>
<path d="M4.09189 18.4988L4.14068 18.4879L4.13195 18.4488H4.09189V18.4988ZM4.09215 17.3223V17.3723H4.1322L4.14094 17.3332L4.09215 17.3223ZM5.20387 17.8963L5.15385 17.8958L5.15389 17.8975L5.20387 17.8963ZM5.20387 17.925L5.15385 17.9238L5.15387 17.9254L5.20387 17.925ZM6.72173 20.5556C5.46173 20.5556 4.40456 19.6697 4.14068 18.4879L4.04309 18.5097C4.31693 19.7362 5.41381 20.6556 6.72173 20.6556V20.5556ZM9.36612 17.9111C9.36612 19.3694 8.17985 20.5556 6.72173 20.5556V20.6556C8.23508 20.6556 9.46612 19.4246 9.46612 17.9111H9.36612ZM6.72173 15.2668C8.17985 15.2668 9.36612 16.4531 9.36612 17.9111H9.46612C9.46612 16.3978 8.23508 15.1668 6.72173 15.1668V15.2668ZM4.14094 17.3332C4.40525 16.1521 5.46214 15.2668 6.72173 15.2668V15.1668C5.41425 15.1668 4.31765 16.0856 4.04336 17.3113L4.14094 17.3332ZM1.58823 17.3723H4.09215V17.2723H1.58823V17.3723ZM1.05 17.9105C1.05 17.6134 1.29094 17.3723 1.58823 17.3723V17.2723C1.2357 17.2723 0.95 17.5582 0.95 17.9105H1.05ZM1.58823 18.4488C1.29095 18.4488 1.05 18.2077 1.05 17.9105H0.95C0.95 18.2629 1.23569 18.5488 1.58823 18.5488V18.4488ZM4.09189 18.4488H1.58823V18.5488H4.09189V18.4488ZM6.72173 16.3433C5.86221 16.3433 5.16209 17.0382 5.15388 17.8958L5.25387 17.8968C5.26156 17.0939 5.9171 16.4433 6.72173 16.4433V16.3433ZM8.28966 17.9111C8.28966 17.0464 7.58635 16.3433 6.72173 16.3433V16.4433C7.53113 16.4433 8.18966 17.1017 8.18966 17.9111H8.28966ZM6.72173 19.4791C7.58636 19.4791 8.28966 18.7757 8.28966 17.9111H8.18966C8.18966 18.7205 7.53112 19.3791 6.72173 19.3791V19.4791ZM5.15387 17.9254C5.1616 18.7834 5.8619 19.4791 6.72173 19.4791V19.3791C5.91684 19.3791 5.26111 18.7277 5.25386 17.9245L5.15387 17.9254ZM5.15404 17.9105C5.15404 17.9149 5.15399 17.9193 5.15388 17.9238L5.25385 17.9262C5.25398 17.921 5.25404 17.9157 5.25404 17.9105H5.15404ZM5.15389 17.8975C5.15399 17.9018 5.15404 17.9061 5.15404 17.9105H5.25404C5.25404 17.9054 5.25398 17.9002 5.25386 17.8951L5.15389 17.8975Z" fill="#0B61C4"/>
</svg>
