<svg width="20" height="21" viewBox="0 0 20 21" fill="none" xmlns="http://www.w3.org/2000/svg">
<path d="M10.0009 20.3172C15.5237 20.3172 20.0008 15.8401 20.0008 10.3173C20.0008 4.7945 15.5237 0.317383 10.0009 0.317383C4.47809 0.317383 0.000976562 4.7945 0.000976562 10.3173C0.000976562 15.8401 4.47809 20.3172 10.0009 20.3172Z" fill="#4289DA"/>
<path d="M15.8264 6.70414C15.3978 6.89416 14.9369 7.02268 14.4534 7.08008C14.947 6.78435 15.3258 6.31643 15.5046 5.75794C15.0427 6.03193 14.531 6.23068 13.9867 6.33782C13.5507 5.87346 12.9295 5.58325 12.2416 5.58325C10.9218 5.58325 9.85133 6.65369 9.85133 7.97351C9.85133 8.16086 9.87255 8.34322 9.91355 8.51827C7.92704 8.41862 6.16567 7.46708 4.98668 6.02052C4.78097 6.37347 4.66296 6.78435 4.66296 7.22233C4.66296 8.05141 5.08525 8.78334 5.72627 9.21187C5.33464 9.19957 4.96582 9.09208 4.64371 8.91258C4.64353 8.92274 4.64353 8.9329 4.64353 8.94288C4.64353 10.101 5.46779 11.067 6.56105 11.2864C6.36069 11.3413 6.1491 11.3704 5.93144 11.3704C5.77707 11.3704 5.62751 11.3556 5.4817 11.3278C5.78581 12.2772 6.66836 12.9683 7.71456 12.9877C6.89635 13.6289 5.86584 14.0109 4.74567 14.0109C4.55315 14.0109 4.36242 13.9997 4.17578 13.9774C5.23303 14.6559 6.48975 15.0514 7.83951 15.0514C12.2361 15.0514 14.6404 11.4093 14.6404 8.25035C14.6404 8.14678 14.6381 8.04357 14.6335 7.94125C15.1008 7.60434 15.506 7.18347 15.8264 6.70414Z" fill="white"/>
</svg>
