<svg width="32" height="24" viewBox="0 0 32 24" fill="none" xmlns="http://www.w3.org/2000/svg">
<path d="M25.0037 24H19.8316H18.4389H18.1381V16.8492H20.407C20.9824 16.8492 21.3224 16.1752 20.9824 15.69L16.5689 9.39511C16.2877 8.99073 15.7058 8.99073 15.4246 9.39511L11.011 15.69C10.671 16.1752 11.0045 16.8492 11.5864 16.8492H13.8553V24H13.5546H12.1618H6.16592C2.73314 23.8045 0 20.4954 0 16.9099C0 14.4364 1.30119 12.2797 3.23008 11.1137C3.05354 10.6217 2.96199 10.096 2.96199 9.54339C2.96199 7.01601 4.9432 4.97388 7.39518 4.97388C7.92481 4.97388 8.43482 5.06824 8.91214 5.25021C10.331 2.14996 13.3911 0 16.9481 0C21.5513 0.00673968 25.3437 3.63943 25.7752 8.26959C29.3126 8.89638 32 12.273 32 16.0944C32 20.1786 28.9138 23.7169 25.0037 24Z" fill="url(#paint0_linear)"/>
<defs>
<linearGradient id="paint0_linear" x1="34.5546" y1="13.091" x2="-1.88235" y2="13.091" gradientUnits="userSpaceOnUse">
<stop stop-color="#93BEEF"/>
<stop offset="1" stop-color="#C6E0FF"/>
</linearGradient>
</defs>
</svg>
