<svg width="12" height="13" viewBox="0 0 12 13" fill="none" xmlns="http://www.w3.org/2000/svg">
<path d="M11.0374 6.6582C10.5058 6.6582 10.0749 7.08918 10.0749 7.62077V10.0788H1.92513V7.62077C1.92513 7.08918 1.49416 6.6582 0.962567 6.6582C0.430973 6.6582 0 7.08918 0 7.62077V11.0414C0 11.573 0.430973 12.0039 0.962567 12.0039H11.0374C11.569 12.0039 12 11.573 12 11.0414V7.62077C12 7.08918 11.569 6.6582 11.0374 6.6582Z" fill="#0B61C4"/>
<path d="M3.96351 4.3609L5.03799 3.28642V6.87278C5.03799 7.40438 5.46896 7.83535 6.00056 7.83535C6.53215 7.83535 6.96313 7.40438 6.96313 6.87278V3.28639L8.03761 4.36087C8.22553 4.54883 8.47188 4.64281 8.71824 4.64281C8.96459 4.64281 9.21091 4.54883 9.39887 4.36087C9.77478 3.98496 9.77478 3.37552 9.39887 2.99961L6.68119 0.28196C6.30531 -0.0939866 5.69581 -0.0939866 5.31993 0.28196L2.60225 2.99964C2.22633 3.37555 2.22633 3.98499 2.60225 4.3609C2.97813 4.73682 3.58763 4.73682 3.96351 4.3609Z" fill="#0B61C4"/>
</svg>
