<svg width="14" height="12" viewBox="0 0 14 12" fill="none" xmlns="http://www.w3.org/2000/svg">
<path d="M4.77275 3.42969H7.75295C8.01561 3.42969 8.22852 3.63893 8.22852 3.89712C8.22852 4.15529 8.01563 4.36455 7.75295 4.36455H4.77275C4.50992 4.36455 4.29718 4.15531 4.29718 3.89712C4.2972 3.63893 4.51009 3.42969 4.77275 3.42969Z" fill="white" stroke="white" stroke-width="0.2"/>
<path d="M3.63141 5.69141H7.75295C8.01561 5.69141 8.22852 5.90065 8.22852 6.15884C8.22852 6.41701 8.01563 6.62627 7.75295 6.62627H3.63141C3.36875 6.62627 3.15584 6.41703 3.15584 6.15884C3.15584 5.90065 3.36875 5.69141 3.63141 5.69141Z" fill="white" stroke="white" stroke-width="0.2"/>
<path d="M1.47557 0.5H9.89301C10.1557 0.5 10.3686 0.709239 10.3686 0.967431V5.37677H11.2087C12.1965 5.37677 13 6.16671 13 7.1374V9.73938C13 10.7102 12.1965 11.5 11.2087 11.5C11.1279 11.5 11.0483 11.4947 10.9705 11.4844H3.12416C1.95302 11.4844 1 10.5479 1 9.39662V0.967431C1 0.709239 1.21288 0.5 1.47557 0.5ZM10.3686 9.73938C10.3686 10.14 10.6604 10.475 11.0461 10.5496H11.2087V10.5651C11.6721 10.5651 12.0489 10.1946 12.0489 9.73935V7.1374C12.0489 6.68213 11.6719 6.31161 11.2087 6.31161H10.3685V9.73938H10.3686ZM1.95112 9.3966C1.95112 10.0216 2.48819 10.5496 3.12416 10.5496H9.6186C9.49005 10.307 9.41744 10.0313 9.41744 9.73938V1.43484H1.95112V9.3966Z" fill="white" stroke="white" stroke-width="0.2"/>
<path d="M4.77275 7.8125H7.75295C8.01561 7.8125 8.22852 8.02174 8.22852 8.27993C8.22852 8.5381 8.01563 8.74736 7.75295 8.74736H4.77275C4.50992 8.74736 4.29718 8.53812 4.29718 8.27993C4.2972 8.02174 4.51009 7.8125 4.77275 7.8125Z" fill="white" stroke="white" stroke-width="0.2"/>
</svg>
