<svg width="20" height="21" viewBox="0 0 20 21" fill="none" xmlns="http://www.w3.org/2000/svg">
<path d="M10 20.9751C15.5228 20.9751 20 16.4979 20 10.9751C20 5.45225 15.5228 0.975098 10 0.975098C4.47715 0.975098 0 5.45225 0 10.9751C0 16.4979 4.47715 20.9751 10 20.9751Z" fill="#4289DA"/>
<path d="M13.3457 6.92554H6.65437C5.34156 6.92554 4.27734 7.9898 4.27734 9.30257V12.6476C4.27734 13.9604 5.3416 15.0246 6.65437 15.0246H13.3457C14.6585 15.0246 15.7227 13.9603 15.7227 12.6476V9.30257C15.7227 7.9898 14.6585 6.92554 13.3457 6.92554ZM11.7381 11.1378L8.6084 12.6305C8.52496 12.6703 8.42859 12.6095 8.42859 12.5171V9.43847C8.42859 9.34472 8.5275 9.28398 8.61102 9.32636L11.7407 10.9123C11.8339 10.9595 11.8322 11.093 11.7381 11.1378Z" fill="white"/>
</svg>
