<svg width="12" height="12" viewBox="0 0 12 12" fill="none" xmlns="http://www.w3.org/2000/svg">
<path d="M6 12C9.31371 12 12 9.31371 12 6C12 2.68629 9.31371 0 6 0C2.68629 0 0 2.68629 0 6C0 9.31371 2.68629 12 6 12Z" fill="#76E150"/>
<path d="M6.15127 7.3438C6.41626 7.60878 6.41626 8.06304 6.15127 8.32803L5.60238 8.87692C5.33739 9.14191 4.88313 9.14191 4.61815 8.87692L2.21436 6.45421C1.94938 6.18923 1.94938 5.73497 2.21436 5.46998L2.76326 4.92109C3.02824 4.65611 3.4825 4.65611 3.74749 4.92109L6.15127 7.3438Z" fill="white"/>
<path d="M8.25242 3.16108C8.51741 2.8961 8.97167 2.8961 9.23665 3.16108L9.78555 3.70998C10.0505 3.97496 10.0505 4.42922 9.78555 4.6942L5.62151 8.83931C5.35653 9.1043 4.90227 9.1043 4.63728 8.83931L4.08839 8.29042C3.8234 8.02543 3.8234 7.57117 4.08839 7.30619L8.25242 3.16108Z" fill="white"/>
</svg>
