<svg width="28" height="28" viewBox="0 0 28 28" fill="none" xmlns="http://www.w3.org/2000/svg">
<path d="M14 28C21.732 28 28 21.732 28 14C28 6.26801 21.732 0 14 0C6.26801 0 0 6.26801 0 14C0 21.732 6.26801 28 14 28Z" fill="url(#paint0_linear)"/>
<path d="M14 17.5C14.4891 17.987 14.4891 18.8217 14 19.3087L13.6201 19.6348C13.131 20.1217 12.2926 20.1217 11.8035 19.6348L7.36681 15.1826C6.87773 14.6957 6.87773 13.8609 7.36681 13.3739L7.74672 13.0478C8.23581 12.5609 9.07424 12.5609 9.56332 13.0478L14 17.5Z" fill="white"/>
<path d="M18.5002 10.0002C18.935 9.5205 19.381 9.60919 19.998 10.0002C20.998 10.634 21.4132 11.319 20.673 12.1358L13.8407 19.6404C13.1243 20.4309 12.3314 19.7073 11.6679 19.2868C11.2331 18.8071 11.2331 17.9847 11.6679 17.5049L18.5002 10.0002Z" fill="white"/>
<defs>
<linearGradient id="paint0_linear" x1="14" y1="-1.13365e-06" x2="51.9905" y2="39.3173" gradientUnits="userSpaceOnUse">
<stop stop-color="#ACE30D"/>
<stop offset="1" stop-color="#13C12F"/>
</linearGradient>
</defs>
</svg>
