<svg width="39" height="45" viewBox="0 0 39 45" fill="none" xmlns="http://www.w3.org/2000/svg">
<path fill-rule="evenodd" clip-rule="evenodd" d="M4 0C1.79086 0 0 1.79086 0 4V41C0 43.2091 1.79086 45 4 45H35C37.2091 45 39 43.2091 39 41V4C39 1.79086 37.2091 0 35 0H4ZM31.7786 7.03125H7.223V14.0625H31.7786V7.03125Z" fill="white" fill-opacity="0.17"/>
<path d="M34.125 45H4.875C2.1879 45 0 42.8963 0 40.3125V4.6875C0 2.10375 2.1879 0 4.875 0H34.125C36.8121 0 39 2.10375 39 4.6875V40.3125C39 42.8963 36.8121 45 34.125 45ZM4.875 1.875C3.26235 1.875 1.95 3.13687 1.95 4.6875V40.3125C1.95 41.8631 3.26235 43.125 4.875 43.125H34.125C35.7377 43.125 37.05 41.8631 37.05 40.3125V4.6875C37.05 3.13687 35.7377 1.875 34.125 1.875H4.875Z" fill="#DBE7F4"/>
<path d="M30.2251 15H8.7751C7.16245 15 5.8501 13.7381 5.8501 12.1875V8.4375C5.8501 6.88687 7.16245 5.625 8.7751 5.625H30.2251C31.8377 5.625 33.1501 6.88687 33.1501 8.4375V12.1875C33.1501 13.7381 31.8377 15 30.2251 15ZM8.7751 7.5C8.2369 7.5 7.8001 7.92 7.8001 8.4375V12.1875C7.8001 12.705 8.2369 13.125 8.7751 13.125H30.2251C30.7633 13.125 31.2001 12.705 31.2001 12.1875V8.4375C31.2001 7.92 30.7633 7.5 30.2251 7.5H8.7751Z" fill="#DBE7F4"/>
<path d="M11.7001 26.2497C11.1619 26.2497 10.7251 25.8297 10.7251 25.3122V19.6872C10.7251 19.1697 11.1619 18.7497 11.7001 18.7497C12.2383 18.7497 12.6751 19.1697 12.6751 19.6872V25.3122C12.6751 25.8297 12.2383 26.2497 11.7001 26.2497Z" fill="white"/>
<path d="M14.626 23.4373H8.77603C8.23783 23.4373 7.80103 23.0173 7.80103 22.4998C7.80103 21.9823 8.23783 21.5623 8.77603 21.5623H14.626C15.1642 21.5623 15.601 21.9823 15.601 22.4998C15.601 23.0173 15.1642 23.4373 14.626 23.4373Z" fill="white"/>
<path d="M30.2239 23.4373H24.3739C23.8357 23.4373 23.3989 23.0173 23.3989 22.4998C23.3989 21.9823 23.8357 21.5623 24.3739 21.5623H30.2239C30.7621 21.5623 31.1989 21.9823 31.1989 22.4998C31.1989 23.0173 30.7621 23.4373 30.2239 23.4373Z" fill="white"/>
<path d="M30.2239 31.8748H24.3739C23.8357 31.8748 23.3989 31.4548 23.3989 30.9373C23.3989 30.4198 23.8357 29.9998 24.3739 29.9998H30.2239C30.7621 29.9998 31.1989 30.4198 31.1989 30.9373C31.1989 31.4548 30.7621 31.8748 30.2239 31.8748Z" fill="white"/>
<path d="M30.2239 37.4997H24.3739C23.8357 37.4997 23.3989 37.0797 23.3989 36.5622C23.3989 36.0447 23.8357 35.6247 24.3739 35.6247H30.2239C30.7621 35.6247 31.1989 36.0447 31.1989 36.5622C31.1989 37.0797 30.7621 37.4997 30.2239 37.4997Z" fill="white"/>
<path d="M8.77554 37.4999C8.52594 37.4999 8.27634 37.408 8.08524 37.2261C7.70499 36.8605 7.70499 36.2661 8.08524 35.9005L13.9352 30.2755C14.3155 29.9099 14.9336 29.9099 15.3139 30.2755C15.6941 30.6411 15.6941 31.2355 15.3139 31.6011L9.46389 37.2261C9.27474 37.408 9.02514 37.4999 8.77554 37.4999Z" fill="white"/>
<path d="M14.6255 37.4999C14.3759 37.4999 14.1263 37.408 13.9352 37.2261L8.08524 31.6011C7.70499 31.2355 7.70499 30.6411 8.08524 30.2755C8.46549 29.9099 9.08364 29.9099 9.46389 30.2755L15.3139 35.9005C15.6941 36.2661 15.6941 36.8605 15.3139 37.2261C15.1247 37.408 14.8751 37.4999 14.6255 37.4999Z" fill="white"/>
</svg>
