<svg width="28" height="28" viewBox="0 0 28 28" fill="none" xmlns="http://www.w3.org/2000/svg">
<path d="M14 28C21.732 28 28 21.732 28 14C28 6.26801 21.732 0 14 0C6.26801 0 0 6.26801 0 14C0 21.732 6.26801 28 14 28Z" fill="#F61C0D"/>
<path d="M5.77297 16.986C4.98869 18.3192 5.95 20 7.49683 20H20.5032C22.05 20 23.0113 18.3192 22.227 16.986L15.7239 5.93058C14.9506 4.61596 13.0494 4.61596 12.2761 5.93058L5.77297 16.986ZM14.9091 17.4211C14.9091 17.9152 14.5085 18.3158 14.0144 18.3158H13.9856C13.4915 18.3158 13.0909 17.9152 13.0909 17.4211C13.0909 16.9269 13.4915 16.5263 13.9856 16.5263H14.0144C14.5085 16.5263 14.9091 16.9269 14.9091 17.4211ZM14.9091 13.8278C14.9091 14.3298 14.5021 14.7368 14 14.7368C13.4979 14.7368 13.0909 14.3298 13.0909 13.8278V9.27751C13.0909 8.77543 13.4979 8.36842 14 8.36842C14.5021 8.36842 14.9091 8.77543 14.9091 9.27751V13.8278Z" fill="#FCFBFA"/>
</svg>
