<svg width="28" height="28" viewBox="0 0 28 28" fill="none" xmlns="http://www.w3.org/2000/svg">
<path d="M14 28C21.732 28 28 21.732 28 14C28 6.26801 21.732 0 14 0C6.26801 0 0 6.26801 0 14C0 21.732 6.26801 28 14 28Z" fill="#4289DA"/>
<path d="M12.1058 12.7329C12.1058 11.6751 12.9633 10.8176 14.0212 10.8176C15.079 10.8176 15.9365 11.6751 15.9365 12.7329V19.6393C15.9365 20.6972 15.079 21.5547 14.0212 21.5547C12.9633 21.5547 12.1058 20.6972 12.1058 19.6393V12.7329ZM14.2774 5.55469C15.2288 5.55469 16 6.32592 16 7.27728C16 8.22864 15.2288 8.99987 14.2774 8.99987H13.7226C12.7712 8.99987 12 8.22864 12 7.27728C12 6.32592 12.7712 5.55469 13.7226 5.55469H14.2774Z" fill="white"/>
</svg>
