<svg width="15" height="15" viewBox="0 0 15 15" fill="none" xmlns="http://www.w3.org/2000/svg">
<circle cx="7.5" cy="7.5" r="7.5" fill="url(#paint0_linear)"/>
<path d="M7.50011 3.00434C5.65692 3.00434 3.90662 2.8405 3.23808 4.55492C2.96193 5.26301 3.00203 6.18261 3.00203 7.49937C3.00203 8.65483 2.96497 9.74079 3.23808 10.4433C3.9051 12.1587 5.66961 11.9944 7.4991 11.9944C9.26411 11.9944 11.084 12.178 11.7606 10.4433C12.0373 9.72811 11.9967 8.82221 11.9967 7.49937C11.9967 5.74335 12.0936 4.60971 11.2413 3.75858C10.3784 2.8963 9.21132 3.00434 7.49808 3.00434H7.50011ZM7.09706 3.81438C10.9418 3.80829 11.4312 3.38121 11.1611 9.31422C11.0652 11.4126 9.46615 11.1823 7.50062 11.1823C3.91677 11.1823 3.81373 11.0799 3.81373 7.49734C3.81373 3.87321 4.098 3.81641 7.09706 3.81336V3.81438ZM9.90119 4.5605C9.60321 4.5605 9.36158 4.80194 9.36158 5.09968C9.36158 5.39743 9.60321 5.63886 9.90119 5.63886C10.1992 5.63886 10.4408 5.39743 10.4408 5.09968C10.4408 4.80194 10.1992 4.5605 9.90119 4.5605ZM7.50011 5.19098C6.22445 5.19098 5.19041 6.22471 5.19041 7.49937C5.19041 8.77402 6.22445 9.80724 7.50011 9.80724C8.77578 9.80724 9.80931 8.77402 9.80931 7.49937C9.80931 6.22471 8.77578 5.19098 7.50011 5.19098ZM7.50011 6.00102C9.48239 6.00102 9.48493 8.99771 7.50011 8.99771C5.51834 8.99771 5.51529 6.00102 7.50011 6.00102Z" fill="white" stroke="white" stroke-width="0.2"/>
<defs>
<linearGradient id="paint0_linear" x1="1.00713" y1="14.0228" x2="14.9056" y2="1.99138" gradientUnits="userSpaceOnUse">
<stop stop-color="#FFDD55"/>
<stop offset="0.5" stop-color="#FF543E"/>
<stop offset="1" stop-color="#C837AB"/>
</linearGradient>
</defs>
</svg>
