<svg width="34" height="12" viewBox="0 0 34 12" fill="none" xmlns="http://www.w3.org/2000/svg">
<path d="M17.0331 8.72646H18.378C19.122 8.72646 19.7355 8.23818 19.7355 7.63357C19.7355 7.34372 19.6213 7.06574 19.4181 6.86079C19.2148 6.65583 18.9392 6.54069 18.6518 6.54069H16.7327C15.6414 6.54069 14.7478 5.51811 14.7947 4.27951C14.825 3.71087 15.0716 3.17591 15.4831 2.78594C15.8946 2.39596 16.4393 2.181 17.004 2.18577H21.5417L22.6824 0H16.952C16.3748 0.000684012 15.8035 0.117697 15.2717 0.344164C14.7399 0.570631 14.2584 0.901985 13.8554 1.31876C13.4524 1.73554 13.136 2.22934 12.9249 2.77114C12.7138 3.31294 12.6122 3.89183 12.626 4.4738C12.6818 6.84747 14.6705 8.72646 17.0331 8.72646Z" fill="white"/>
<path d="M18.4172 3.26904H17.3462C16.4336 3.26904 16.0077 3.75733 16.0077 4.36193C16.0077 4.65178 16.1219 4.92976 16.3251 5.13471C16.5283 5.33967 16.804 5.45481 17.0914 5.45481H18.7899C19.08 5.45564 19.3671 5.51536 19.6339 5.63041C19.9007 5.74545 20.1418 5.91348 20.3429 6.12447C20.5439 6.33546 20.7008 6.58511 20.8042 6.85853C20.9076 7.13196 20.9554 7.42357 20.9446 7.716C20.914 8.28497 20.667 8.82012 20.255 9.2101C19.8431 9.60007 19.2978 9.81485 18.7328 9.80973H13.6501L12.4941 11.9955H18.7861C19.3634 11.995 19.9347 11.8781 20.4666 11.6517C20.9985 11.4253 21.4801 11.0939 21.8831 10.6771C22.2862 10.2603 22.6025 9.76645 22.8136 9.22456C23.0246 8.68268 23.1261 8.10372 23.1121 7.52171C23.0601 5.14932 21.1449 3.26904 18.4172 3.26904Z" fill="white"/>
<path d="M6.40093 0L0 12H2.9571L4.7088 8.72646H8.28192V12H10.8512V0H6.40093ZM5.86858 6.54069L8.27685 2.02855V6.54069H5.86858Z" fill="white"/>
<path d="M32.8491 2.18577L34 0H27.3393H26.215H24.77V12H27.3393V6.61611H30.4903L31.645 4.43034H27.3393V2.18577H32.8491Z" fill="white"/>
</svg>
