<svg width="28" height="28" viewBox="0 0 28 28" fill="none" xmlns="http://www.w3.org/2000/svg">
<path d="M14 28C21.732 28 28 21.732 28 14C28 6.26801 21.732 0 14 0C6.26801 0 0 6.26801 0 14C0 21.732 6.26801 28 14 28Z" fill="#76E150"/>
<path d="M14 17.5C14.4891 17.987 14.4891 18.8217 14 19.3087L13.6201 19.6348C13.131 20.1217 12.2926 20.1217 11.8035 19.6348L7.36681 15.1826C6.87773 14.6957 6.87773 13.8609 7.36681 13.3739L7.74672 13.0478C8.23581 12.5609 9.07424 12.5609 9.56332 13.0478L14 17.5Z" fill="white"/>
<path d="M18.501 10C18.9358 9.52025 19.3819 9.60895 19.9989 10C20.9989 10.6338 21.4141 11.3187 20.6739 12.1355L13.8416 19.6402C13.1252 20.4306 12.3322 19.7071 11.6687 19.2866C11.234 18.8069 11.234 17.9844 11.6687 17.5047L18.501 10Z" fill="white"/>
</svg>
