<svg width="15" height="15" viewBox="0 0 15 15" fill="none" xmlns="http://www.w3.org/2000/svg">
<path d="M7.50091 14.9999C11.643 14.9999 15.0008 11.642 15.0008 7.49993C15.0008 3.35783 11.643 0 7.50091 0C3.35881 0 0.000976562 3.35783 0.000976562 7.49993C0.000976562 11.642 3.35881 14.9999 7.50091 14.9999Z" fill="#55ACEE"/>
<path d="M12.0939 5.38992C11.7725 5.53244 11.4268 5.62883 11.0642 5.67188C11.4344 5.45008 11.7185 5.09914 11.8526 4.68027C11.5062 4.88576 11.1223 5.03483 10.7142 5.11518C10.3872 4.76691 9.92124 4.54926 9.40532 4.54926C8.41545 4.54926 7.61262 5.35208 7.61262 6.34195C7.61262 6.48246 7.62853 6.61923 7.65928 6.75052C6.1694 6.67578 4.84838 5.96213 3.96413 4.87721C3.80985 5.14192 3.72134 5.45008 3.72134 5.77857C3.72134 6.40037 4.03806 6.94932 4.51882 7.27072C4.2251 7.26149 3.94849 7.18088 3.7069 7.04625C3.70677 7.05387 3.70677 7.06149 3.70677 7.06898C3.70677 7.93758 4.32497 8.66207 5.14491 8.82664C4.99464 8.86782 4.83594 8.88961 4.6727 8.88961C4.55692 8.88961 4.44476 8.87852 4.33539 8.85766C4.56348 9.56971 5.22539 10.088 6.01004 10.1026C5.39639 10.5835 4.6235 10.87 3.78337 10.87C3.63899 10.87 3.49593 10.8616 3.35596 10.8449C4.14889 11.3537 5.09143 11.6504 6.10376 11.6504C9.40117 11.6504 11.2044 8.91876 11.2044 6.54958C11.2044 6.4719 11.2027 6.39449 11.1992 6.31775C11.5498 6.06507 11.8536 5.74942 12.0939 5.38992Z" fill="white"/>
</svg>
