<svg width="11" height="11" viewBox="0 0 11 11" fill="none" xmlns="http://www.w3.org/2000/svg">
<path d="M8.34316 2.86756L5.77649 0.117563C5.70683 0.0433125 5.60636 0 5.50076 0C5.39516 0 5.29469 0.0433125 5.22503 0.117563L2.65836 2.86756C2.56376 2.96931 2.54029 3.113 2.60043 3.23606C2.65983 3.35844 2.79036 3.4375 2.93409 3.4375H4.40076V7.90625C4.40076 8.096 4.56503 8.25 4.76743 8.25H6.23409C6.43649 8.25 6.60076 8.096 6.60076 7.90625V3.4375H8.06743C8.21116 3.4375 8.34169 3.35912 8.40109 3.23606C8.46049 3.113 8.43849 2.96863 8.34316 2.86756Z" fill="#0B61C4"/>
<path d="M9.53333 7.5625V9.625H1.46667V7.5625H0V10.3125C0 10.6927 0.328533 11 0.733333 11H10.2667C10.6722 11 11 10.6927 11 10.3125V7.5625H9.53333Z" fill="#0B61C4"/>
</svg>
