<svg width="15" height="15" viewBox="0 0 15 15" fill="none" xmlns="http://www.w3.org/2000/svg">
<path d="M7.5 15C11.6421 15 15 11.6421 15 7.5C15 3.35786 11.6421 0 7.5 0C3.35786 0 0 3.35786 0 7.5C0 11.6421 3.35786 15 7.5 15Z" fill="#F61C0D"/>
<path d="M10.0093 4.46289H4.99078C4.00617 4.46289 3.20801 5.26108 3.20801 6.24566V8.75441C3.20801 9.73902 4.0062 10.5372 4.99078 10.5372H10.0093C10.9939 10.5372 11.7921 9.73899 11.7921 8.75441V6.24566C11.7921 5.26108 10.9939 4.46289 10.0093 4.46289ZM8.80356 7.62209L6.4563 8.74158C6.39372 8.77144 6.32145 8.72588 6.32145 8.65659V6.34759C6.32145 6.27728 6.39562 6.23172 6.45826 6.26351L8.80553 7.45299C8.87543 7.48835 8.87417 7.58846 8.80356 7.62209Z" fill="white"/>
</svg>
