<svg width="16" height="16" viewBox="0 0 16 16" fill="none" xmlns="http://www.w3.org/2000/svg">
<path d="M8 16C3.50667 16 0 12.336 0 8C0 3.58926 3.58926 0 8 0C12.4107 0 16 3.58926 16 8C16 12.4107 12.4107 16 8 16Z" fill="#87DB15"/>
<path d="M6.81712 10.6289L5.12962 8.94139C4.69019 8.50196 4.69019 7.78999 5.12962 7.35056C5.56904 6.91114 6.28102 6.91114 6.72044 7.35056L7.61249 8.24269L10.1921 5.66306C10.6315 5.22364 11.3435 5.22364 11.7829 5.66306C12.2224 6.10249 12.2224 6.81446 11.7829 7.25389L8.40794 10.6289C7.96844 11.0684 7.25654 11.0684 6.81712 10.6289Z" fill="white"/>
</svg>
